<?xml version="1.0" encoding="utf-8"?>
<!-- Generator: Adobe Illustrator 22.0.1, SVG Export Plug-In . SVG Version: 6.00 Build 0)  -->
<svg version="1.1" id="Слой_1" xmlns="http://www.w3.org/2000/svg" xmlns:xlink="http://www.w3.org/1999/xlink" x="0px" y="0px"
	 viewBox="0 0 1920 856.1" style="enable-background:new 0 0 1920 856.1;" xml:space="preserve">
<style type="text/css">
	.st0{clip-path:url(#SVGID_2_);fill:url(#SVGID_3_);}
	.st1{clip-path:url(#SVGID_2_);fill:#9AB7FF;}
	.st2{clip-path:url(#SVGID_2_);fill:url(#SVGID_4_);}
	.st3{clip-path:url(#SVGID_2_);fill:none;stroke:#FFFFFF;stroke-width:2;stroke-miterlimit:10;}
	.st4{clip-path:url(#SVGID_2_);fill:#FFFFFF;stroke:#FFFFFF;stroke-miterlimit:10;}
</style>
<g>
	<defs>
		<rect id="SVGID_1_" x="-1" y="6" width="1921" height="868"/>
	</defs>
	<clipPath id="SVGID_2_">
		<use xlink:href="#SVGID_1_"  style="overflow:visible;"/>
	</clipPath>
	<linearGradient id="SVGID_3_" gradientUnits="userSpaceOnUse" x1="-147.061" y1="196.951" x2="2042.1783" y2="196.951">
		<stop  offset="0" style="stop-color:#FFFFFF"/>
		<stop  offset="0.4838" style="stop-color:#F5F4FD"/>
		<stop  offset="1" style="stop-color:#F1F0FC"/>
	</linearGradient>
	<path class="st0" d="M-34.1,700c31.8,23.6,555.4,201.8,892.3,122.5c427.6-100.7,866.7-417.5,1070.3-315.9
		c142.9,71.4,151.6-700.5,23.3-845.4C1778.3-534.7,165.2-431,53.9-319.1C-108.3-156.2-257,534.5-34.1,700z"/>
	<path class="st1" d="M-40.1,680c31.8,23.6,555.4,201.8,892.3,122.5c427.6-100.7,866.7-417.5,1070.3-315.9
		C2065.4,558,1943-183,1943-183S111.3-323.9,0-212C-162.2-49-263,514.5-40.1,680z"/>
	
		<linearGradient id="SVGID_4_" gradientUnits="userSpaceOnUse" x1="1293.3768" y1="816.0228" x2="508.8258" y2="-542.8595" gradientTransform="matrix(0.9988 -4.823984e-02 4.823984e-02 0.9988 -11.5246 45.435)">
		<stop  offset="0" style="stop-color:#75A8F9"/>
		<stop  offset="0.1681" style="stop-color:#6798F5"/>
		<stop  offset="0.4396" style="stop-color:#5585F0"/>
		<stop  offset="0.7154" style="stop-color:#4A79ED"/>
		<stop  offset="1" style="stop-color:#4775EC"/>
	</linearGradient>
	<path class="st2" d="M-9,678.3c33.1,21.9,565.6,171.3,897.6,73.8c421.5-123.8,842.7-464.1,1051.6-373.6
		c103.7,44.9,47.9-290.7-1.2-561.5C1918.7-294.9-39-271-29-196C-0.7,16.1-23.7,668.6-9,678.3z"/>
	<circle class="st3" cx="91" cy="450" r="7"/>
	<circle class="st3" cx="1596" cy="50" r="7"/>
	<circle class="st3" cx="1808" cy="122" r="7"/>
	<circle class="st4" cx="1496" cy="304" r="7"/>
	<circle class="st4" cx="1702" cy="225" r="7"/>
	<circle class="st4" cx="117" cy="283" r="7"/>
	<circle class="st4" cx="551" cy="173" r="7"/>
	<circle class="st3" cx="319.5" cy="318.5" r="5.5"/>
	<circle class="st3" cx="394.5" cy="93.5" r="5.5"/>
	<circle class="st3" cx="1238.5" cy="105.5" r="5.5"/>
	<circle class="st3" cx="119.5" cy="108.5" r="5.5"/>
	<circle class="st4" cx="144" cy="624" r="7"/>
	<circle class="st3" cx="1103.5" cy="44.5" r="5.5"/>
</g>
</svg>
