<?xml version="1.0" encoding="utf-8"?>
<!-- Generator: Adobe Illustrator 22.0.1, SVG Export Plug-In . SVG Version: 6.00 Build 0)  -->
<svg version="1.1" id="Слой_1" xmlns="http://www.w3.org/2000/svg" xmlns:xlink="http://www.w3.org/1999/xlink" x="0px" y="0px"
	 viewBox="0 0 1920 1080.1" style="enable-background:new 0 0 1920 1080.1;" xml:space="preserve">
<style type="text/css">
	.st0{clip-path:url(#SVGID_2_);fill:url(#SVGID_3_);}
	.st1{clip-path:url(#SVGID_2_);fill:#9AB7FF;}
	.st2{clip-path:url(#SVGID_2_);fill:url(#SVGID_4_);}
	.st3{clip-path:url(#SVGID_2_);fill:none;stroke:#FFFFFF;stroke-width:2;stroke-miterlimit:10;}
	.st4{clip-path:url(#SVGID_2_);fill:#FFFFFF;stroke:#FFFFFF;stroke-miterlimit:10;}
</style>
<g>
	<defs>
		<rect id="SVGID_1_" x="-1" width="1921" height="1057"/>
	</defs>
	<clipPath id="SVGID_2_">
		<use xlink:href="#SVGID_1_"  style="overflow:visible;"/>
	</clipPath>
	<linearGradient id="SVGID_3_" gradientUnits="userSpaceOnUse" x1="-147.061" y1="379.951" x2="2042.1783" y2="379.951">
		<stop  offset="0" style="stop-color:#FFFFFF"/>
		<stop  offset="0.4838" style="stop-color:#F5F4FD"/>
		<stop  offset="1" style="stop-color:#F1F0FC"/>
	</linearGradient>
	<path class="st0" d="M-34.1,883c31.8,23.6,555.4,201.8,892.3,122.5c427.6-100.7,866.7-417.5,1070.3-315.9
		c142.9,71.4,151.6-700.5,23.3-845.4C1778.3-351.7,165.2-248,53.9-136.1C-108.3,26.8-257,717.5-34.1,883z"/>
	<path class="st1" d="M-40.1,863c31.8,23.6,555.4,201.8,892.3,122.5c427.6-100.7,866.7-417.5,1070.3-315.9C2065.4,741,1943,0,1943,0
		S111.3-140.9,0-29C-162.2,134-263,697.5-40.1,863z"/>
	
		<linearGradient id="SVGID_4_" gradientUnits="userSpaceOnUse" x1="1295.3546" y1="999.0705" x2="510.8036" y2="-359.8117" gradientTransform="matrix(0.9988 -4.823984e-02 4.823984e-02 0.9988 -22.3304 45.6958)">
		<stop  offset="0" style="stop-color:#75A8F9"/>
		<stop  offset="0.1681" style="stop-color:#6798F5"/>
		<stop  offset="0.4396" style="stop-color:#5585F0"/>
		<stop  offset="0.7154" style="stop-color:#4A79ED"/>
		<stop  offset="1" style="stop-color:#4775EC"/>
	</linearGradient>
	<path class="st2" d="M-9,861.3c33.1,21.9,565.6,171.3,897.6,73.8c421.5-123.8,842.7-464.1,1051.6-373.6
		c103.7,44.9,47.9-290.7-1.2-561.5C1918.7-111.9-39-88-29-13C-0.7,199.1-23.7,851.6-9,861.3z"/>
	<circle class="st3" cx="91" cy="633" r="7"/>
	<circle class="st3" cx="1596" cy="233" r="7"/>
	<circle class="st3" cx="1808" cy="189" r="7"/>
	<circle class="st4" cx="1338" cy="572" r="7"/>
	<circle class="st4" cx="1739" cy="408" r="7"/>
	<circle class="st4" cx="117" cy="466" r="7"/>
	<circle class="st4" cx="272" cy="756" r="7"/>
	<circle class="st3" cx="319.5" cy="501.5" r="5.5"/>
	<circle class="st3" cx="427.5" cy="221.5" r="5.5"/>
	<circle class="st3" cx="1057.5" cy="121.5" r="5.5"/>
</g>
</svg>
