<?xml version="1.0" encoding="utf-8"?>
<!-- Generator: Adobe Illustrator 22.0.1, SVG Export Plug-In . SVG Version: 6.00 Build 0)  -->
<svg version="1.1" id="kids" xmlns="http://www.w3.org/2000/svg" xmlns:xlink="http://www.w3.org/1999/xlink" x="0px" y="0px"
	 viewBox="0 0 2152.5 1278" style="enable-background:new 0 0 2152.5 1278;" xml:space="preserve">
<style type="text/css">
	.st0{fill:#FFFFFF;}
	.st1{fill:#82ACF8;}
	.st2{fill:#FEDCB9;}
	.st3{fill:#E0A175;}
	.st4{fill:#D09269;}
	.st5{fill:#FEF0A7;}
	.st6{fill:#D2DCE6;}
	.st7{fill:#467EDA;}
	.st8{fill:#D0BFB5;}
	.st9{fill:#D0C0B0;}
	.st10{fill:#DC926D;}
	.st11{fill:#B58473;}
	.st12{fill:#D2D0A0;}
	.st13{fill:#D5DDEA;}
	.st14{fill:#1B4F7F;}
	.st15{fill:#24609F;}
	.st16{fill:#2872BC;}
	.st17{fill:#1C4F84;}
	.st18{fill:#164B82;}
	.st19{fill:#FEC02A;}
	.st20{fill:#19D2C0;}
	.st21{fill:#D09366;}
	.st22{display:none;fill:#1B4F7F;}
	.st23{fill:#D6D3CC;}
	.st24{fill:#D3D3D3;}
	.st25{fill:#54AEE2;}
	.st26{fill:#FBBA9F;}
	.st27{fill:#FFBE9F;}
	.st28{fill:#D3C0B1;}
	.st29{fill:#3E87BC;}
	.st30{fill:#FFC001;}
	.st31{fill:#FDBCAA;}
	.st32{display:none;}
	.st33{fill:#FEBD00;}
	.st34{fill:#D77470;}
	.st35{fill:#D0DCE8;}
</style>
<g>
	<path class="st0" d="M924.3,966.5c10.5-26.2,21-52.3,31.3-78c4.9,3,10.2,5,13.5,8.8c2.5,2.9,3.9,8.4,3.2,12.3
		c-4.2,21.2-9.1,42.2-14,63.2c-1.7,7.2-7.2,11.9-13.1,12.3C943,970,942.8,969.9,924.3,966.5z"/>
	<path class="st1" d="M458.7,661.2c0.3-5.3,0.6-10.6,0.8-15.9c0.2-4-1.4-6.2-5.7-6.4c-23.7-0.8-40.1-13.6-52.5-32.5
		c-5.6-8.6-9.3-18-10.8-28.3c-0.3-1.8-2.6-4.3-4.2-4.5c-1.6-0.2-4.5,1.9-5,3.5c-4.4,14.7-14.7,24.4-27.2,32
		c-16,9.6-33.3,14.2-52.1,11.9c-9.1-1.1-16.7-5.3-23.8-10.9c-1.3-1-2.7-2.5-4.1-2.5c-1.7,0-4.7,1-4.9,2c-0.4,2.1-0.1,5.5,1.3,6.5
		c6.2,4.4,12.7,8.5,19.5,11.9c3.3,1.7,4.8,3.2,4.7,6.9c-0.8,26.5-9.4,50.2-26.1,70.8c-2,2.4-4.5,4.4-6.9,6.5c-2.7,2.3-3.2,4.8-1.5,8
		c13.3,24.6,14.4,50.8,9.4,77.7c-0.5,2.5-2.1,5.5-4,7.1c-14.5,11.5-26.7,25.1-36.7,40.6c-0.5,0.7-0.9,1.4-1.5,2
		c-0.3,0.4-0.8,0.6-1.5,1.2c-7.8-8-13.5-17.2-17.4-27.6c-10.5-27.7-4.3-52,15.9-73.1c3.9-4.1,8.1-7.9,12.3-11.7
		c2.5-2.2,4.2-4.7,1.9-7.7c-2.3-3-5.3-2.2-7.9,0c-5.6,4.7-11,9.5-16.9,14.4c-8.7-8.3-13.7-19-16.7-30.4
		c-8.4-32.2-2.8-61.4,19.5-86.7c3.2-3.6,7.1-6.6,10.9-9.4c3.1-2.3,4-4.7,3.3-8.6c-4.6-24.4-0.6-47.4,14.2-67.4
		c16.3-22.1,38.3-36.1,65.6-41.4c28.3-5.5,53.5,1.8,75.9,19.3c8.5,6.6,15.4,14.8,18.2,25.6c1,3.8,4,4.3,7.3,4.8
		c7.8,1.3,16,2.1,23.4,4.7c23.4,8.1,34.8,25.9,36.9,49.8c1.7,19.9-2.4,38.8-11.6,56.5c-0.3,0.6-0.7,1.1-1.1,1.6
		C459.3,661.4,459,661.3,458.7,661.2z"/>
	<path class="st0" d="M1133.3,1090.4c-17.3,0.2-30.4,10.2-45.3,19.3c0.5-5.9,0.9-10.8,1.5-15.7c1.9-15.8,3.9-31.6,5.8-47.5
		c0.3-2.8,1.4-3.6,4.1-3.6c8.3,0.1,16.6-0.2,24.9,0.1c1.5,0,4,1.6,4.1,2.7c1.9,14.1,3.5,28.3,5.2,42.5
		C1133.7,1088.6,1133.5,1089.1,1133.3,1090.4z"/>
	<path class="st2" d="M303.1,653.6c0.6-7.3,1.2-14.2,1.8-21.6c15.4,0.3,30.1-2.7,44.1-9.1c13.9-6.3,25.7-15.3,35.3-28.5
		c1,2.2,1.7,3.7,2.5,5.2c11.4,23.8,28.1,41.6,54.9,47.6c8.5,1.9,8.3,1.9,7.5,10.8c-1,11.6-1.3,23.3-2.5,34.9
		c-4.5,43.9-41.8,81.2-85.7,86.2c-28.8,3.3-54.4-4.2-76.7-22.6c-1.9-1.6-3.2-4.5-4-7c-3.1-9.6-5.9-19.3-8.7-29.1
		c-0.4-1.4-0.2-3.7,0.7-4.6c12.9-13.2,21.1-29,26.4-46.5c0.9-3.1,2.5-4.4,5.4-5.6c8.9-3.6,17.8-3.8,26.8-0.7
		c3.1,1.1,6.1,1.6,7.6-2.1c1.6-4.1-1.5-5.7-4.7-6.8c-8.4-3-16.9-3.2-25.6-1.6C306.7,652.9,305.1,653.2,303.1,653.6z M338,722.8
		c-1.8,13.8,9.5,26.1,23.7,26.9c13.1,0.8,25.8-10.6,25.7-23.6C371,725,354.7,723.9,338,722.8z M317.7,675.1
		c-4.1,0.2-8.1,2.4-11.4,6.3c-1.4,1.6-3.3,2.9-5.3,3.6c-3.4,1.3-4.9,4.3-2.8,6.5c1.9,2,5.8,2.7,8.9,2.9c1.7,0.1,4.4-1.8,5.1-3.5
		c1.4-3.5,2.8-6.6,7.2-6.2c4.2,0.3,5.2,3.4,5.6,7c0.3,3,2.1,5.6,5.1,4.7c1.8-0.6,3.9-3.6,4.1-5.7
		C334.7,682.4,327.2,675.2,317.7,675.1z M413.5,681.3c-8.1,0-15.8,6.7-15.8,14.1c0,2,1.6,4.9,3.3,5.6c2.8,1.2,4.9-0.9,5.6-4
		c0.8-3.5,2.5-6.4,6.6-6.3c4.3,0.1,5.5,3.3,6.6,6.9c0.5,1.8,2.7,4,4.3,4.2c2.9,0.4,6.6,0.3,8.7-1.3c2.7-2,1.4-4.9-1.5-6.9
		c-1.8-1.2-3.5-2.8-4.7-4.5C423.4,684.3,418.8,681.8,413.5,681.3z M409.4,657.6c-3.1,0.3-6.3,0.5-9.4,1c-3.3,0.6-6.5,1.8-5.5,6.1
		c0.9,4.1,4.3,3.6,7.3,3c9.4-2,18.2-0.3,26.4,4.4c2.7,1.5,5.6,2.2,7.4-0.9c2-3.3,0-5.6-2.9-7.3C425.6,659.8,417.8,657.7,409.4,657.6
		z"/>
	<path class="st3" d="M555.9,382.1c-1-12.7,0.9-25.7,7-37.9c13.3-26.9,35.9-42.5,64.3-49.7c30.6-7.8,59.9-4.1,86.7,13.6
		c6.2,4.1,11.7,9.3,17.1,14.5c2.9,2.8,5.4,3.6,9.3,2.9c23.2-4.3,38.3,4.4,46.3,26.7c1.1,3,2.1,6,2.7,9.1c4.4,19.6,4.3,39.4,2.3,59.1
		c-1.4,14.4-4.1,28.6-6.3,42.9c-0.2,1.5-0.7,2.9-1.3,5.3c-1-2-1.8-3.1-2.3-4.4c-5.5-14.5-10.9-29-16.3-43.5
		c-2.8-7.6-3.5-7.8-11.3-6.4c-20.3,3.8-39.2,0.8-55.8-12c-12.5-9.6-17.4-23.1-18.6-38.3c-0.3-4.1-0.2-8.3-0.1-12.5
		c0.1-3.7-0.6-7-5.1-7c-4.1-0.1-5.1,3-5.2,6.5c-0.5,10.6,0,21.1,3.6,31.1c1.8,5.1,1.5,9.8-0.1,14.6c-6.5,20.3-20.9,32.8-40.1,40.4
		c-15.7,6.2-32,7.3-48.6,4.2c-7.6-1.4-9.2-0.3-9.9,7.3c-1.4,15.9-2.7,31.8-4.9,48c-6.3-12.5-13.3-24.8-18.8-37.7
		c-4.6-10.6-8.6-21.7-11-33c-4.6-21.3,12-36.5,33.3-31.5c2.9,0.7,5.5,0.5,6.6-2.6c1.2-3.4-0.1-6.4-3.6-7
		C569.5,383.4,563.1,383,555.9,382.1z"/>
	<path class="st2" d="M583.8,451.3c43.7,4,79-7.8,98.5-50.6c0.1,0.1,0.7,0.1,1,0.5c18.7,21.1,42.6,26.4,69.4,23.1
		c2.9-0.4,4.1,0.4,5.1,3.1c6.9,18.7,14.1,37.4,21,56.1c0.8,2.1,1,4.6,0.5,6.8c-5.9,27.8-20.5,49.8-43.5,66.5c-3.8,2.8-6.1,2.3-9-1.1
		c-5.3-6.2-11.1-12-16.7-17.9c-6.2-6.5-14.2-7.4-20-2.1c-6,5.4-5.9,13.5,0.4,20.4c3,3.3,6,6.6,8.6,9.4
		c-5.2,11.1-14.9,10.6-24.1,10.3c-42.3-1.4-74-20.5-94.5-57.6c-1.1-1.9-1.8-4.4-1.7-6.6c1.4-18.8,3-37.5,4.5-56.3
		C583.3,454,583.6,452.7,583.8,451.3z M720.2,495.8c-12.9,1-22.3,5.4-29.7,13.8c-2,2.3-2.7,5.2,0.1,6.8c1.6,0.9,5.2,0.7,6.4-0.5
		c6.1-6.5,13.6-9.9,22.3-10.8c3.3-0.3,5.8-2,4.8-5.4C723.7,497.8,721,496.5,720.2,495.8z M630.5,500c5.5,0,9.8-4.3,9.9-9.7
		c0.1-5.6-4.4-10.2-10-10.1c-5.5,0.1-9.7,4.3-9.8,9.8C620.5,495.7,624.7,500,630.5,500z M723.8,466.1c-5.7-0.1-10.2,4.2-10.2,9.9
		c0,5.5,4.2,9.8,9.7,9.9c5.7,0.1,10.2-4.2,10.1-9.9C733.4,470.4,729.3,466.1,723.8,466.1z"/>
	<g>
		<path class="st4" d="M570,496.5l5.3-53.8c0,0,46.5,0.5,78.3-49.3C661.7,380.7,671,346,671,346l3.5-0.5l1.8,1.3
			c1,4.8,14.4,42.9,31.8,59c12.2,11.3,46.2,10.7,51.8,6.8c0.5-0.3,3.6,1.2,3.8,1.8l20,54.5c0,0,14.3-68.5,8.8-90
			c-10.8-42.2-62.3-30.8-72.5-30c0,0-13.3-29.8-49.3-38.8c-17.4-4.4-63.8-11.3-88.5,7.5c-28,21.2-26.4,64.4-26.4,64.4
			s18.6,2,22.4,6.6c2,2.5,1,6.5-1.3,5.8c-25.5-8.3-35.8,10.8-37,13c-11.1,20,29,87,29,87"/>
	</g>
	<path class="st5" d="M1940.4,767c-10.4-0.3-19.8-2.9-28.7-7.2c-30.3-14.4-47.2-45.2-44.1-79.4c1.8-19.1,3.3-38.1,4.6-57.2
		c0.2-3.5,1.7-4.6,4.7-5.8c9.1-3.6,18.1-7.6,27-11.5c3.2-1.4,4.8-4,2.9-7.2c-1.9-3.1-4.6-2.3-7.4-0.8c-15.7,8.6-32,14.8-50.3,14.3
		c-14.1-0.4-26.4-4.8-35.8-15.9c-3.4-4.1-5.6-3.8-9.6,0.8c-17.7,20.5-39,35.6-65.2,43.4c-12.2,3.6-24.7,5.1-37.5,4.8
		c-3.4-0.1-4.9-1.2-5.8-4.5c-6.2-21.7-5-43.2,2.2-64.3c9.6-28.4,26.7-51.3,52.2-67.4c35.7-22.6,77.6-20.4,112,6
		c9.4,7.2,18,13.3,31.2,13.5c15.3,0.2,26.2,10.4,33.7,23.6c9.6,16.9,12.9,35.6,15.2,54.5c4.3,36.2,1.1,72.5,0.5,108.8
		c-0.3,15-0.8,30-1.3,45C1940.7,762.4,1940.5,764.5,1940.4,767z M1802.5,506.1c-2.2,0-4.6-0.6-6.4,0.2c-1.9,0.8-3.2,2.9-4.8,4.5
		c1.5,1.4,2.9,3.2,4.6,4.2c1.3,0.7,3.3,0.2,4.9,0.2c13.6,0.1,26,3.4,36.6,12.4c2.4,2.1,5.1,3.8,7.8,0.6c2.8-3.4,0.6-5.7-2.1-7.9
		C1831.3,510.5,1817.7,506,1802.5,506.1z"/>
	<g>
		<polyline class="st6" points="955.6,885.5 974.2,899.7 972.8,928.7 942.5,914.7 955.6,885.5 		"/>
	</g>
	<path class="st0" d="M1081.6,947.2c0,12.4,0.1,24.4-0.1,36.4c0,1-1.6,2.8-2.4,2.8c-16.1,0.2-32.2,0.1-48.6,0.1
		c0-13.3,0-26.1,0-39.3C1047.3,947.2,1064,947.2,1081.6,947.2z"/>
	<g>
		<polyline class="st6" points="1030.7,972.7 1081.2,964.7 1081.5,947 1030.7,947 1030.7,972.7 		"/>
	</g>
	<g>
		<path class="st7" d="M215,626c3.3,1.8-14.5,22.1-10,48.5c4.6,27.2,28.5,35.7,24.5,55c-2,9.6-10.4,19.2-18,19
			c-15.6-0.5-34.3-42.5-26-78.5C191.7,643.2,211.7,624.2,215,626z"/>
		<path class="st7" d="M318,491.5c-13.5-11.3-112.3,67.7-88.5,70c10.7,1,8.5-14,52.8-9.5C283.5,505.2,323.3,496,318,491.5z"/>
	</g>
	<path class="st8" d="M286.5,692.7c0,0,14.2-11.9,18.7-21c7.1-14.5,8.7-30,8.7-30s27.8-4.4,36-6.7c14.3-4,33.7-23,33.7-23
		s18.7,38.3,65,36.3c2-0.1-19.3-9.5-36-24.3c-16.3-14.5-28-34.3-28-34.3s-30.7,23.5-42,28.7c-9.3,4.2-40.3,9-40.3,9L286.5,692.7z"/>
	<path class="st9" d="M577,513.5l16-56.5c0,0,32.5,1.5,47-4c25-9.5,46.5-36,46.5-36s17.1,12.4,24.5,14.5c17.5,5,40,2,40,2l31,52
		l-20.5-70.8c0,0-26.3,3.9-37,2.3c-11-1.6-43-24.5-43-24.5s-24.5,32.1-34.7,39.2C637.4,438.2,603,447,603,447h-20L577,513.5z"/>
	<path class="st10" d="M1418,480.9c1.7,7.4,3.5,14.3,5,21.3c2.2,10.5,7.1,18.9,17.1,23.8c2.9,1.4,4.9,5.8,9,3.1
		c4-2.6,1.9-6.5,1.7-10c-0.9-12.6,1.2-24.8,5.3-36.6c10.9,0.8,20.7,9.6,23.2,20.7c2.7,12.2-2.9,24.8-14,30.3
		c-3.6,1.8-7.8,2.6-11.9,3.3c-4.2,0.7-6.4,2.4-5.7,6.9c0.2,1.3,0,3-0.6,4.2c-20.2,41.1-52.7,65.2-98.6,70.2
		c-59.9,6.5-115.6-34-129.2-92.8c-2.7-11.6-0.6-23.1,3-34c4.4-13.2,10.4-25.8,15.9-38.7c1.8-4.3,4.6-6,9.8-4.5
		c14.4,4.2,27.6,1.1,39.4-8.3c0.8-0.6,1.6-1.1,2.8-2c2,3.2,3.7,6.5,5.9,9.3c5.3,6.6,11,12.9,16.4,19.4c5.8,7.1,9.6,15.1,10,24.5
		c0.1,3.5,1.6,6.3,5.7,5.9c3.9-0.4,4.7-3.3,4.4-6.6c-0.4-4-0.9-7.9-1.6-13C1359.6,489.8,1388.5,487.3,1418,480.9z M1288.5,496.8
		c-0.8-0.8-1.9-2.7-3.6-3.7c-15.3-8.4-31.1-8.8-47-2c-2.9,1.2-4.8,3.4-3.6,6.7c1.3,3.4,4,3.9,7.4,2.7c3.9-1.3,7.9-2.7,12-3.3
		c9.3-1.4,18.2,0.2,26.5,4.7C1284.6,504.3,1288.5,502.2,1288.5,496.8z M1370.6,487.7c-6.7,1.7-13.5,3.3-20.1,5.2
		c-3.5,1-6.3,3.2-4.6,7.3c1.6,3.8,4.8,3.5,8,2.1c12.8-5.2,25.3-4.6,37.6,1.7c2.9,1.5,5.9,2.1,7.8-1.3c2-3.6,0-5.9-3.1-7.7
		C1388.4,490.7,1379.9,488.8,1370.6,487.7z M1316.3,564.3c7.5-1.9,14.1-3.5,20.6-5.4c3.1-0.9,5.4-3.1,4-6.8
		c-1.4-3.6-4.2-3.8-7.4-2.7c-0.8,0.3-1.6,0.6-2.4,0.8c-9.2,3.2-18.4,4.4-27.5-0.6c-2.8-1.5-5.6-1.3-7.3,1.8c-1.7,3.1-0.3,5.9,2.6,7
		C1304.7,560.8,1310.7,562.5,1316.3,564.3z M1371,532.1c6.4-0.1,11.4-5.1,11.5-11.3c0.1-6.3-5.5-11.8-11.8-11.7
		c-6.5,0.1-11.5,5.4-11.4,12C1359.5,527.4,1364.6,532.2,1371,532.1z M1248.3,520.6c-0.1,6.3,4.8,11.4,11.2,11.6
		c6.6,0.2,11.9-4.9,11.9-11.4c0-6.2-5.1-11.5-11.3-11.7C1253.9,508.8,1248.4,514.1,1248.3,520.6z"/>
	<path class="st11" d="M1236.3,443.7c0.2,8.3,36.2,36.8,58,24c9.2-5.4,23,19.2,32.5,20.2c34,3.3,87.8-16.2,91.5-10.2
		c-34.5,26.9-123.4-30.1-123.5-41.7C1294.8,434,1241.6,453,1236.3,443.7z"/>
	<path class="st12" d="M1908,526.2c0,6.4,16,17,16,17s17.3,34.8,18.3,45.3c1.7,17.4,2.3,68,2.3,68L1941,770c0,0-20.9,0.1-24.5-5
		c-25.8-37.2,23.3-147.8,15.5-180.5c-3.2-13.5-24-50-24-50"/>
	<path class="st0" d="M965.3,1105.6c-10.1-14.2-17.3-29.4-33.6-36.8c1-1.9,1.8-3.5,2.7-5c6.6-10.8,13.1-21.6,19.9-32.3
		c0.8-1.2,3.4-2.7,4.4-2.2c9,3.8,17.9,7.9,27.2,12.2C979.1,1062.8,972.4,1083.7,965.3,1105.6z"/>
	<g>
		<polygon class="st13" points="957,1026.5 965.5,1031 945.5,1078 929,1067.5 		"/>
	</g>
	<g>
		<polygon class="st13" points="1094.2,1042.2 1104.5,1041.5 1101.2,1104.5 1087,1111.5 		"/>
	</g>
	<path class="st14" d="M1092.8,961.1c5.9,0,11.5,0,17.1,0c11,0,18.1,6.9,18.3,17.9c0.2,7.2-1.4,7.1,7.4,7.1c18.3,0,36.7-0.1,55,0.1
		c4.3,0,5.8-1.2,6-5.5c2.2-36.9,4.6-73.8,7.1-110.6c2.2-31.9,4.3-63.8,7.1-95.6c1.6-18.7,2.9-37.7,7.1-55.8
		c8-34.2,27.5-60.3,60.3-75c3.6-1.6,7.5-2.7,11.3-4c0.9-0.3,2.7-0.5,2.7-0.9c0.7-5,1.3-10,1.3-15c0-1.3-2.1-3.1-3.7-3.7
		c-13.6-5.4-26-12.7-37.2-22.2c-18.5-15.7-31.7-34.9-39.6-57.8c-0.8-2.4-2.9-4.9-5-6.1c-25-13.7-27.4-46.6-4.6-63.7
		c2-1.5,3.4-4.8,3.8-7.4c8.2-53,36.1-90.9,86.5-110c51-19.4,108.8-1.6,143.8,42.4c17.7,22.3,27.7,47.5,29.8,76
		c0.1,2.1,1.7,4.7,3.5,5.8c14.2,9,20.6,21.9,18.1,38.2c-2.3,15.6-12,25.5-27.1,30.2c-2,0.6-4.2,2.6-5.1,4.6
		c-15.4,34-40.6,57.7-75.5,70.8c-3.3,1.2-4.5,2.8-4.2,6.1c0.3,2.6,0.1,5.3,0.1,8c0,0.5,0.2,1,0.4,1.7c6.4,1.4,12.9,2.5,19.2,4.3
		c32.1,9.1,55,28.9,68.7,59.3c12.6,27.9,25.5,55.6,34,85.1c2.8,9.7,5.1,19.7,6,29.7c0.6,6.7-1.1,13.9-3.1,20.5
		c-6.7,21.6-18.4,40.9-30.1,60.1c-6.1,9.9-12.5,19.6-19.1,29.8c6.2,4.2,11.4,9.8,20.2,9c6.4-0.6,13,0.5,19.4,0.9
		c9.4,0.6,15.7,7.2,15.4,16.2c-0.3,8.6-7,14.6-16.4,14.4c-5.8-0.1-11.6-0.6-18.1,0.1c2.7,2.2,5.6,4.2,7.9,6.8c3.2,3.5,5.9,7.4,9,11
		c0.8,1,2.1,1.8,3.3,2.2c1,0.4,2.3,0.1,3.5,0.1c79.2,0,158.3,0,237.5,0.1c4.9,0,7-1.2,7.6-6.3c1.3-10.2,6.3-18.8,13.1-26.4
		c1.6-1.8,2.7-4.5,2.9-6.9c0.4-7,0.1-14,0.1-21.6c-1.4,0.9-2.9,1.7-4.2,2.7c-9.8,6.6-19.7,13-29.4,19.9
		c-22.1,15.6-45.7,18.6-71.1,9.8c-9.1-3.1-18.4-5.8-27.4-9.2c-5.2-2-10.1-2.5-15.5-1.2c-10.5,2.4-21.1,4.4-31.7,6.7
		c-4.3,0.9-6.7-0.7-7.6-4.9c-1.1-5.5-2.3-11-3.5-16.6c-2.7,0.2-5,0.8-7.3,0.5c-8.6-0.8-14.4-8.5-12.6-17c0.7-3.4,0.1-5.4-2-7.9
		c-2.9-3.5-3.5-7.7-2.4-12.3c0.4-1.6,0-4-1-5.2c-3.6-4.2-4.1-8.9-3.3-14.1c0.2-1.6,0.1-3.7-0.8-4.8c-7.7-10.4-4.4-20.5,8.2-24.2
		c0.9-0.3,1.8-0.8,3.1-1.3c-1.8-8.6-3.5-17-5.3-25.4c-1.4-6.8-0.6-8.2,6.1-9.7c8.9-2,17.8-3.9,27.3-5.9c-0.7-1.9-1.2-3.4-1.9-4.8
		c-2.7-5.6-5.6-11-8-16.7c-1.4-3.4-3.4-4.5-7.1-4.5c-8.8,0.1-16.6-6.4-18.5-14.7c-2.1-9,2.2-18.3,10.4-22.2c8-3.9,17.9-1.9,23.6,4.9
		c5.7,6.7,6.4,17,0.7,24c-2.8,3.4-2.4,5.8-0.6,9.2c3.4,6.3,6.4,12.8,9.4,19.3c1.3,2.9,2.9,3.4,5.9,2.8c13-2.8,26-5.3,39-8
		c5.4-1.1,7-0.1,8.1,5.1c5.7,26.8,11.4,53.7,16.8,80.5c0.8,4,2.5,6,6.3,7.2c9.5,3,18.5,2.3,25.5-5.1c15.8-16.7,31.6-33.4,46.5-50.9
		c14.2-16.6,27.4-34,44.8-47.5c3.9-3.1,7.9-6.2,12.1-8.9c4.6-2.9,1.3-6.7,1.2-10c0-1.3-2.2-2.9-3.7-3.6c-3.2-1.4-6.6-2.2-11-3.6
		c0,6.1-0.1,11.7,0,17.2c0.1,4.6-2.3,6.1-6.5,6.1c-35.7-0.6-68-24.6-78.5-59.1c-2.4-8-3.2-16.6-4-25c-0.6-6.3-0.4-12.7-0.1-19
		c0.8-15.7-1.7-30.9-4.8-46.4c-5.6-27.1,0.3-53,12.9-77.3c15.6-30.1,38.7-52.5,71.2-63.7c36.4-12.6,69.6-4.5,99.7,18.1
		c7.7,5.7,14.7,10.3,25,11c21.1,1.5,35.2,14.4,44.3,32.9c7.6,15.4,11,32,13.3,48.9c4.5,32.9,2.4,65.8,1.5,98.8
		c-0.6,21.2-1,42.3-1.6,63.5c0,1.7-0.1,3.3-0.2,5c-0.4,8.1-1.4,9.1-9.3,8.5c-22.3-1.5-41.6-9.9-57.4-25.8c-1.3-1.3-2.2-3-2.8-3.9
		c-4.6,1-4.9,3-5,6.1c-0.2,9.5,4,13.7,13.3,16.5c26.4,7.7,44.4,26.6,59.8,48.4c16.6,23.3,25.9,49.8,32.5,77.3
		c3.6,15.2,6.7,30.5,9.1,45.9c2.4,15.1,2.1,30.2-6.7,44.9c2.8,0,4.7,0,6.6,0c34,0,68,0,102,0c7.1,0,8.2,1.1,8.2,8c0,7.5,0,15,0,22.5
		c0,6.1-1.2,7.4-7.2,7.5c-14.5,0.1-29,0.2-43.5,0c-3.8-0.1-5.7,1.2-7,4.7c-3.1,8.4-6.8,16.6-10,25c-1.1,3-2.6,4.4-5.8,4
		c-1.3-0.2-2.7,0-4,0c-291.8,0-583.7,0-875.5,0c-2.5,0-4.9,0-8.1,0c0.9,7.6,1.7,14.6,2.5,21.7c0.1,1,0.5,2,0.4,3
		c-0.4,6,2,9.4,7.7,12.1c8.8,4.3,13.1,12.5,14.3,22.1c0.6,4.7-1.3,7-6.2,7c-24.8,0.1-49.7,0.2-74.5,0.1c-5,0-6.5-1.7-5.9-6.9
		c2.1-18.2,4.3-36.4,6.5-54.5c0.2-1.3,0.3-2.6,0.4-4.6c-2.1,0-3.9,0-5.7,0c-27.8,0-55.7,0.1-83.5-0.1c-3.8,0-5.5,1.1-6.7,4.8
		c-5.4,17.6-11.1,35.2-16.7,52.8c-1.9,5.9-3.9,7-9.5,4.4c-22.1-10.1-44.1-20.3-66.2-30.5c-5.4-2.5-6-4.6-2.9-9.7
		c5.4-9,13.6-13.4,23.9-14.1c6.4-0.4,6.6-0.4,9-7.6c-3.1,0-6,0-9,0c-268.5,0-537,0-805.5,0.2c-5.9,0-9-1.3-10.8-7.1
		c-2.5-7.7-6.2-15.1-9.1-22.7c-1.1-3.1-2.8-4-5.9-3.9c-15.3,0.1-30.7,0.1-46,0c-7.1,0-8.4-1.4-8.4-8.5c0-6.8,0-13.7,0-20.5
		c0-8,1-9,8.8-9c50.2,0,100.3,0,150.5,0c2.1,0,4.2,0,6.8,0c0.2-3.7,0.4-6.9,0.5-10c0.4-15.6,0.3-31.3,1.4-46.9
		c1.7-23,8.6-44.7,18.8-65.2c2-4.1,2.1-6.6-1.1-10.4c-16.9-19.4-25.6-41.8-22.7-68c1.2-11.1,5.1-21.3,11.2-30.6
		c0.8-1.2,1-4.1,0.2-4.9c-12.2-12.6-18.2-28.2-21.1-45c-4-24.2-1.4-47.7,11.9-68.8c5.3-8.5,12.5-16,19.7-23
		c3.5-3.4,4.4-6.2,3.8-10.6c-2.5-18.8-0.2-37.1,8.2-54c16.6-33.2,44.5-52.6,80.2-59c36.3-6.5,68.2,4.1,93.7,31.5
		c3.3,3.6,6.4,7.9,8.1,12.5c1.9,5,5.3,5.6,9.6,6.7c9.6,2.4,19.6,4.6,28.3,9c19.7,9.9,29.5,27.4,32.4,48.7c3.2,24-1.6,46.7-13.1,67.9
		c-2,3.6-4.3,7.3-7.2,10.1c-3.2,3.1-4.2,6.6-4.4,10.7c-0.8,18.4-6.4,35.2-15.8,51c-1.1,1.9-1.7,4.8-1.2,6.9
		c7.5,29.4,6.4,58.3-3.1,87.1c-0.6,1.8-0.1,4.6,1,6.2c16.3,23.3,23.6,49.3,23.7,77.5c0,13.3,0,26.7,0,40c0,1.6,0,3.3,0,5.3
		c9.6,0,18.7,0,28.4,0c0.1-2.1,0.3-4.1,0.3-6.2c0-53.7,0-107.3,0-161c0-14.3,6.7-21.2,21-21.3c12-0.1,24-0.1,36,0.1
		c4,0.1,5.6-0.8,6.2-5.3c4.3-32,7.4-64.2,14-95.7c9-42.5,36.1-69.8,78-82c2-0.6,4.7-0.2,4.9-3.8c0.2-3.8-2.4-3.9-4.7-4.5
		c-31.8-8.8-55.7-27.7-71.8-56.4c-1.6-2.9-3.4-3.8-6.6-3.8c-14.5,0-25.4-6.5-31.9-19.4c-6.4-12.7-5.1-25.3,3.4-36.7
		c2.2-3,2.1-5.2,0.8-8.5c-5.4-12.7-10.2-25.7-9.5-39.9c0.5-10.7,5.1-19.2,13.9-25.2c2.2-1.5,3.7-2.9,3.4-5.9
		c-4.7-51.8,33.3-87.5,75.3-98.8c36.2-9.7,70.3-5.1,101.2,17.1c0.8,0.6,1.6,1,3.3,2.1c0-7.1-0.4-13.5,0.1-19.8
		c0.5-4.9,2.1-9.7,3.5-14.5c0.8-2.8,2.8-4.9,6-3.7c3.3,1.2,3.6,3.9,2.5,7c-3.8,10.4-4.6,21-1.8,33.2c2-3,3.5-5.2,4.9-7.4
		c1.1-1.7,1.7-3.9,3.2-5c1.8-1.2,4.2-1.4,6.4-2c0.4,2.2,1.8,4.8,1.1,6.6c-1.4,3.7-4,6.9-6,10.3c-0.8,1.4-1.5,2.8-2.4,4.6
		c5.3,0.4,10.1,0.4,14.8,1.1c15,2.3,25.4,11,32.2,24.2c6.2,11.9,9.2,24.7,9.9,37.9c0.7,13.1,0.3,26.3,0.1,39.4
		c0,3.2,0.6,5.4,3.4,7.5c11.5,8.6,15.8,20.6,13.3,34.4c-2.5,13.9-11.4,22.9-24.9,27.4c-1.8,0.6-4.1,2.5-4.5,4.2
		c-4.4,22.2-14.4,41.3-29.7,57.9c-0.4,0.5-0.8,1.1-1.3,1.9c6.2,3.9,7.4,9.8,6.7,16.5c-0.8,6.9-1.2,13.9-1.9,20.9
		c-0.4,3.8,0.7,7,4.1,9c24.4,14.1,38.7,36,47.9,61.8c7.2,20,10.2,41,12.9,61.9c2,15.7,3.5,31.4,5.2,47.1c0.3,2.9,1.1,4.3,4.5,4.4
		c10.9,0.2,16.2,5.9,16.3,17.1c0.1,33.3,0,66.7,0,100c0,26,0.1,52,0,78c0,5.9-0.6,11.9-0.9,18.3c6.9,0,14.2,0,21.9,0
		c0-1.5,0-2.8,0-4.1c0.2-8.4,5.8-14.1,14.1-14.3c7.3-0.2,14.7-0.2,22,0c2.8,0.1,4.2-0.9,5.2-3.5c11.8-29.8,23.9-59.6,35.5-89.5
		c1.6-4,1.3-8.8,1.4-13.2c0.2-14.9,7.5-23.5,22.2-26.1c1.4-0.2,3.3-2.2,3.6-3.6c4-16.2,15.5-25.7,32.1-25.9c12-0.2,24-0.2,36,0.1
		c4.1,0.1,5.4-1.4,5-5.2c-0.1-1.3-0.2-2.7,0-4c0.8-6.1-0.5-10.1-7-13.2c-8.7-4.2-11.6-15.1-8.4-24.3c3.2-9.1,11.8-14.4,22-13.7
		c8.7,0.7,16.5,7.6,18.2,16.1c2,10.1-2.6,19.6-11.7,23.5c-3.4,1.4-4.4,3.2-4.2,6.7c0.2,4.4,0.1,8.9,0.1,14c2.9,0,5.2,0,7.4,0
		c13,0.2,26-0.3,38.9,0.8c13.8,1.2,23.8,11.3,26.5,24.8c0.5,2.8,1.4,3.9,4.3,4.3c8.2,0.9,14.3,5.3,18,12.6c1.3,2.6,2.9,3.6,5.8,3.4
		c4.8-0.2,9.7,0,14.5-0.1c3,0,5.4,0.8,5.7,4.2c0.3,3.8-2.3,5-5.4,5c-5.6,0.2-11.3,0-17.7,0c0,4.3-0.2,8,0.2,11.8
		c0.1,1.1,2,2.4,3.2,2.8c3.9,1,7.8,1.4,11.8,2.2c2.9,0.6,5.2,2.1,4.6,5.4c-0.6,3.3-3.1,4.1-6.1,3.5c-0.5-0.1-1-0.1-1.5-0.2
		c-8-2-15.9-3.6-20.4,6.2c-8.4,2.9-9.5,10.3-12,17.6c-6.7,20-21.3,31.6-41.8,35.9c-3.1,0.6-4.4,1.5-4.1,4.7c0.2,2.8,0.1,5.7,0.1,8.5
		C1092.3,959.2,1092.5,959.7,1092.8,961.1z M520.2,986.1c2.1,0,3.8,0,5.4,0c102.6,0,205.3,0,307.9,0.1c5.1,0,7.9-2,8.7-6.8
		c0.4-2.1,0.6-4.3,0.6-6.4c0-60.5,0-121,0-181.4c0-8.3-0.4-8.7-8.8-8.7c-100,0-199.9,0-299.9,0c-1.3,0-2.7,0-4,0
		c-4.3,0.2-6.9,2.1-7.2,6.6c-0.1,2-0.2,4-0.2,6c0,51.3,0.1,102.6-0.1,154C522.5,961.4,524.4,973.6,520.2,986.1z M1417.5,985.2
		c-1.5-1.6-2.2-2.3-2.9-3c-27-27-54-53.9-81-80.9c-5.5-5.5-5.5-6.4-1.1-13.2c-4.3-1.1-8.6-1.7-12.5-3.3c-2.1-0.9-4.4-3.1-5-5.2
		c-0.8-3.3,2.7-5.5,6.9-4.7c5.2,1,10.3,2.8,15.6,3.4c1.9,0.2,4.3-1.6,5.9-3.1c0.5-0.5-0.5-3.2-1.5-4.4c-3.2-3.6-6.7-7-10.1-10.4
		c-2.6-2.6-4.1-5.9-1.3-8.8c3.2-3.2,6.3-1.4,8.9,1.6c3.7,4.2,7.5,8.3,11.1,12.2c7.4-5.4,7.7-5.4,14.3-0.8c3,2.1,6.1,4,9.1,6.2
		c2.5,1.9,4.4,2.2,6.9-0.3c4.2-4.3,9.5-5.7,15.1-3.5c3.6,1.4,4.9,0.1,6.5-2.8c6.9-12.7,13.3-25.8,21.2-37.9
		c7.3-11.2,7.1-21.5,2.3-33.3c-7.4-18.2-13.9-36.7-20.8-55.1c-1.3-3.4-2.2-6.7,2.1-8.4c4.5-1.8,6.3,1.3,7.6,4.9
		c1.7,4.5,3.8,8.9,5.3,13.5c1.4,4.1,3.1,5.5,7.6,3.4c9-4.2,18.4-7.8,27.6-11.8c4.7-2,9.4-4.1,14.6-6.4c-4.7-10.2-9.2-19.8-13.4-29.5
		c-8-18.2-20.3-32.7-37.4-43.1c-11.8-7.2-24.5-11.6-38.8-13.5c0.4,2.3,0.6,4.1,1,5.8c1.8,8,3.7,15.9,5.4,23.9
		c1.4,6.4,0.4,7.8-5.9,9.7c-19.4,6-38.8,12.1-58.2,17.9c-2.4,0.7-5.5,0.8-7.7-0.2c-14.7-7.1-29.2-14.5-43.8-21.9
		c-5.6-2.9-6.1-5.5-2.4-10.7c4.2-5.9,8.3-11.8,12.4-17.7c-3.7,0.7-6.9,2.2-9.8,3.9c-13.2,8-23.6,19-31.5,32.2
		c-8.3,13.9-13.6,28.9-15.1,45.1c-0.2,1.7,1,4.7,2.2,5.1c5,1.5,10.2,2.2,15.5,3.3c0.8-2.5,1.4-4.4,1.9-6.2c1-3.3,2.9-5.5,6.5-4.5
		c3.7,1,4.1,3.8,3.3,7.2c-1,4.2-2.1,8.4-2.5,12.7c-3,33.7-6.6,67.3-8.7,101c-2.5,41.2-3.8,82.5-5.5,123.8c-0.3,7.6-0.2,7.6,7.7,7.6
		c54,0,108,0,162,0C1410.2,985.2,1413.3,985.2,1417.5,985.2z M1904,923.6c-0.5-2.5-0.7-4.3-1.1-6.1c-4.6-19.4-11.7-37.8-21.2-55.4
		c-1.7-3.1-3-6.5,1-8.6c3.7-1.9,5.8,0.7,7.5,3.7c11.8,21.5,20.1,44.2,24.4,68.4c1.1,6.4-0.5,8-6.9,8.3c-22.9,1.3-45.9,2.5-68.8,4.2
		c-9.9,0.8-19.7,2.9-29.6,4.4c0.4,1,0.4,1.4,0.6,1.5c1.3,1,2.6,2,4,3c10.8,8.3,18,18.8,19,32.6c0.4,4.8,2.4,5.6,6.5,5.6
		c40.8,0,81.7,0.2,122.5,0.3c9.1,0,14.9-3.6,17.1-12.3c1.8-7,2.6-14.5,2.5-21.7c-0.5-21.8-6.4-42.7-12-63.7
		c-7.8-29.5-20-56.8-40.6-79.9c-13.1-14.6-28.3-25.7-47.2-31.4c-3.1-0.9-4-0.2-5.5,2.6c-2.4,4.6-5.3,9.6-9.3,12.7
		c-18.9,14.7-38.2,28.9-57.5,43.2c-4.4,3.3-8,1.4-8.7-4.1c-1.1-8.4-2-16.9-3-25.3c-0.9-7.1-1.8-14.3-2.9-22.2
		c-2.3,1.5-3.8,2.2-5,3.3c-11.1,10.5-22.8,20.5-33,31.8c-18.7,20.6-36.5,42-54.9,62.9c-10.7,12.1-23.5,19.1-40.3,14.8
		c-0.1,0-0.3,0.2-0.9,0.6c0.2,1.3,0.4,2.9,0.7,4.5c1.5,7.2,2.9,14.4,4.4,21.5c2.5,12.1,2.5,12.1-9.7,14.6c-5.5,1.2-11,2.5-16.6,3.7
		c0,0.6,0,1.2,0,1.8c9.9,2.6,19.9,5.3,29.8,7.9c14.5,3.8,28.2,1.9,40.8-6.1c15.7-10,31.2-20.4,46.6-30.9c1.6-1.1,2.7-3.8,2.8-5.8
		c0.6-10.3,0.8-20.6,1.2-31c0.2-5.8,0.3-11.7,1.2-17.4c0.3-1.8,3.1-4.5,4.7-4.4c1.7,0.1,3.4,2.8,4.7,4.7c0.5,0.8,0,2.3,0,3.4
		c-0.9,24.1-1.8,48.3-2.7,72.4c-0.1,2.1,0,4.2,0,6.1C1812.9,929,1858,925.5,1904,923.6z M458.7,661.2c0.3,0.1,0.5,0.1,0.8,0.2
		c0.4-0.5,0.8-1,1.1-1.6c9.3-17.7,13.4-36.6,11.6-56.5c-2.1-23.9-13.4-41.7-36.9-49.8c-7.5-2.6-15.6-3.3-23.4-4.7
		c-3.3-0.6-6.3-1-7.3-4.8c-2.8-10.8-9.7-19-18.2-25.6c-22.4-17.4-47.6-24.7-75.9-19.3c-27.2,5.3-49.3,19.3-65.6,41.4
		c-14.8,20-18.8,43-14.2,67.4c0.7,3.8-0.2,6.3-3.3,8.6c-3.8,2.9-7.8,5.9-10.9,9.4c-22.3,25.3-27.9,54.5-19.5,86.7
		c3,11.5,8,22.1,16.7,30.4c5.8-5,11.3-9.7,16.9-14.4c2.6-2.2,5.6-3,7.9,0c2.3,3,0.6,5.5-1.9,7.7c-4.2,3.8-8.4,7.6-12.3,11.7
		c-20.2,21.1-26.3,45.3-15.9,73.1c3.9,10.3,9.6,19.6,17.4,27.6c0.8-0.6,1.2-0.8,1.5-1.2c0.5-0.6,1-1.3,1.5-2
		c10.1-15.5,22.3-29,36.7-40.6c2-1.6,3.6-4.5,4-7.1c5-26.8,4-53-9.4-77.7c-1.7-3.1-1.2-5.7,1.5-8c2.4-2.1,4.9-4.1,6.9-6.5
		c16.7-20.6,25.3-44.3,26.1-70.8c0.1-3.8-1.4-5.3-4.7-6.9c-6.8-3.4-13.3-7.5-19.5-11.9c-1.4-1-1.7-4.4-1.3-6.5c0.2-1,3.2-2,4.9-2
		c1.4,0,2.9,1.5,4.1,2.5c7,5.6,14.7,9.7,23.8,10.9c18.8,2.3,36.1-2.2,52.1-11.9c12.5-7.6,22.8-17.2,27.2-32c0.5-1.6,3.4-3.7,5-3.5
		c1.6,0.2,3.9,2.7,4.2,4.5c1.5,10.3,5.2,19.7,10.8,28.3c12.4,19,28.8,31.7,52.5,32.5c4.3,0.1,5.9,2.4,5.7,6.4
		C459.3,650.6,459,655.9,458.7,661.2z M1940.4,767c0.1-2.5,0.3-4.6,0.4-6.7c0.5-15,1-30,1.3-45c0.6-36.3,3.8-72.6-0.5-108.8
		c-2.3-18.9-5.5-37.6-15.2-54.5c-7.5-13.2-18.4-23.4-33.7-23.6c-13.2-0.2-21.7-6.3-31.2-13.5c-34.4-26.4-76.3-28.6-112-6
		c-25.4,16.1-42.6,38.9-52.2,67.4c-7.1,21.2-8.4,42.6-2.2,64.3c0.9,3.3,2.4,4.5,5.8,4.5c12.8,0.3,25.2-1.1,37.5-4.8
		c26.2-7.8,47.5-22.9,65.2-43.4c4-4.6,6.2-4.9,9.6-0.8c9.3,11.2,21.7,15.6,35.8,15.9c18.2,0.5,34.6-5.8,50.3-14.3
		c2.8-1.5,5.5-2.3,7.4,0.8c2,3.3,0.3,5.8-2.9,7.2c-9,4-17.9,8-27,11.5c-3,1.2-4.4,2.3-4.7,5.8c-1.3,19.1-2.8,38.2-4.6,57.2
		c-3.1,34.2,13.8,65,44.1,79.4C1920.6,764.1,1929.9,766.7,1940.4,767z M555.9,382.1c7.3,0.9,13.7,1.3,19.9,2.5
		c3.5,0.6,4.8,3.6,3.6,7c-1.1,3.1-3.7,3.3-6.6,2.6c-21.2-5-37.8,10.3-33.3,31.5c2.4,11.3,6.4,22.4,11,33
		c5.6,12.9,12.5,25.2,18.8,37.7c2.2-16.2,3.5-32.1,4.9-48c0.7-7.7,2.3-8.8,9.9-7.3c16.6,3.1,32.9,2.1,48.6-4.2
		c19.2-7.6,33.6-20.1,40.1-40.4c1.6-4.8,1.9-9.5,0.1-14.6c-3.6-10-4.1-20.5-3.6-31.1c0.2-3.5,1.1-6.6,5.2-6.5c4.4,0.1,5.2,3.3,5.1,7
		c-0.1,4.2-0.2,8.3,0.1,12.5c1.2,15.2,6.1,28.7,18.6,38.3c16.7,12.8,35.6,15.8,55.8,12c7.8-1.5,8.5-1.2,11.3,6.4
		c5.4,14.5,10.9,29,16.3,43.5c0.5,1.3,1.3,2.5,2.3,4.4c0.6-2.4,1.1-3.8,1.3-5.3c2.2-14.3,4.8-28.5,6.3-42.9c2-19.8,2-39.6-2.3-59.1
		c-0.7-3.1-1.7-6.1-2.7-9.1c-8-22.2-23.1-31-46.3-26.7c-3.9,0.7-6.4-0.1-9.3-2.9c-5.4-5.2-10.9-10.4-17.1-14.5
		c-26.7-17.7-56-21.4-86.7-13.6c-28.4,7.2-50.9,22.8-64.3,49.7C556.8,356.4,554.8,369.4,555.9,382.1z M1418,480.9
		c-29.5,6.4-58.4,8.8-87-3.5c0.6,5.1,1.2,9,1.6,13c0.3,3.3-0.5,6.2-4.4,6.6c-4.2,0.4-5.6-2.4-5.7-5.9c-0.4-9.4-4.2-17.4-10-24.5
		c-5.4-6.6-11.1-12.8-16.4-19.4c-2.2-2.8-3.9-6.1-5.9-9.3c-1.2,0.9-2.1,1.4-2.8,2c-11.7,9.4-24.9,12.5-39.4,8.3
		c-5.2-1.5-8,0.2-9.8,4.5c-5.5,12.8-11.6,25.5-15.9,38.7c-3.6,10.8-5.7,22.4-3,34c13.6,58.9,69.3,99.3,129.2,92.8
		c45.9-5,78.4-29,98.6-70.2c0.6-1.2,0.8-2.8,0.6-4.2c-0.7-4.6,1.5-6.2,5.7-6.9c4-0.7,8.3-1.5,11.9-3.3c11.1-5.5,16.7-18.1,14-30.3
		c-2.4-11.1-12.2-20-23.2-20.7c-4.1,11.8-6.2,24-5.3,36.6c0.2,3.5,2.3,7.4-1.7,10c-4.2,2.7-6.1-1.7-9-3.1
		c-10-4.9-14.9-13.3-17.1-23.8C1421.5,495.3,1419.7,488.4,1418,480.9z M270.9,815c-0.7,0.5-2.3,1.4-3.7,2.6
		c-33.3,28.5-51.8,65.2-57.4,108.2c-2.3,17.4-1.5,35.2-2,52.9c-0.2,6.5,0,6.5,6.6,6.5c36.3,0,72.7,0,109,0c1.2,0,2.3-0.3,4-0.5
		c-14.3-17-15.7-34.5-4.6-53.5c-10.9,3.7-21.4,7.8-31.8,12.2c-20.4,8.7-40.6,17.7-60.9,26.3c-4.7,2-8,0.7-9.1-2.9
		c-1.4-4.6,1.5-6.7,5.3-8c5.3-1.9,10.6-4.1,16-5.8c4.7-1.4,6-4.2,6.4-9.1c1-12.6,2.8-25.1,4.7-37.5c0.4-2.7,2.5-5.7,4.6-7.4
		c1.5-1.1,4.8-1,6.7,0c1.1,0.5,1.8,4.4,1,5.6c-4.9,7-5,15.1-5.9,22.9c-0.6,5.6-0.1,11.4-0.1,17.7c8.1-3.9,15.6-7.4,23.1-11
		c28.4-13.6,57.5-22.4,89.7-17.7c19.1,2.8,32.9,11,38.8,30.2c1.3,4.2,2.1,8.6,3.1,13.1c8.5,1.4,9,0.9,9-7.5c0-0.8,0-1.7,0-2.5
		c-0.3-18.1,0.7-36.4-5.4-53.9c-1.1-3.2,0.1-5.8,3.3-6.8c3-1,5.5,0.4,6.2,3.4c1.9,8.2,4.3,16.5,5,24.8c1.1,12.6,0.9,25.3,1.3,37.9
		c0.1,2.4,0,4.8,3.5,4.8c4.5,0,8.9,0,13.6,0c0.1-1.7,0.3-3,0.3-4.3c0-14.8,0.3-29.7,0-44.5c-0.8-31.8-11.7-59.5-34.2-82.4
		c-8.1-8.2-17.2-15.1-27.7-20.5c-2.6,5.1-4.8,10-7.4,14.6c-12.8,22.5-28.7,42.9-45.1,62.9c-3.8,4.6-6.7,4.7-10.7,0.2
		c-8.1-9.3-16.4-18.5-23.9-28.2C291.7,843.9,281.5,829.5,270.9,815z M583.8,451.3c-0.2,1.4-0.5,2.7-0.6,4
		c-1.6,18.8-3.2,37.5-4.5,56.3c-0.2,2.2,0.6,4.6,1.7,6.6c20.5,37.1,52.2,56.2,94.5,57.6c9.1,0.3,18.9,0.8,24.1-10.3
		c-2.6-2.8-5.6-6.1-8.6-9.4c-6.2-6.8-6.3-14.9-0.4-20.4c5.8-5.2,13.8-4.4,20,2.1c5.6,5.9,11.4,11.7,16.7,17.9c3,3.4,5.2,3.9,9,1.1
		c23-16.7,37.6-38.7,43.5-66.5c0.5-2.1,0.3-4.7-0.5-6.8c-6.9-18.7-14.1-37.4-21-56.1c-1-2.7-2.2-3.4-5.1-3.1
		c-26.7,3.2-50.7-2-69.4-23.1c-0.3-0.3-0.8-0.4-1-0.5C662.7,443.5,627.4,455.2,583.8,451.3z M1128.6,1033.1c7.8,1.7,7.9,1.7,8.7,9.9
		c0.3,2.8,1.2,4.4,4.3,4.1c1.5-0.1,3,0,4.5,0c290.3,0,580.5,0,870.8,0c1.5,0,3.1,0.2,4.5-0.1c1.1-0.3,2.7-0.9,3.1-1.9
		c2.8-6.5,5.4-13.1,8.3-20.5c-3.3,0-5.8,0-8.3,0c-188.6,0-377.3,0-565.9,0.1c-3.7,0-7.4,1.4-11.2,1.7c-3.6,0.3-7.2,0-10.8-0.3
		c-2.8-0.2-5.5-1.4-8.2-1.4c-98.1-0.1-196.3-0.1-294.4-0.1c-1.8,0-3.5,0.2-5.5,0.3C1128.6,1028,1128.6,1030.4,1128.6,1033.1z
		 M303.1,653.6c2-0.4,3.6-0.7,5.2-1c8.7-1.6,17.2-1.4,25.6,1.6c3.1,1.1,6.2,2.6,4.7,6.8c-1.4,3.7-4.5,3.2-7.6,2.1
		c-9-3.1-17.9-2.9-26.8,0.7c-2.9,1.2-4.5,2.6-5.4,5.6c-5.3,17.4-13.5,33.3-26.4,46.5c-0.9,0.9-1.1,3.2-0.7,4.6
		c2.7,9.7,5.6,19.4,8.7,29.1c0.8,2.5,2,5.4,4,7c22.3,18.5,47.9,25.9,76.7,22.6c43.9-5,81.1-42.3,85.7-86.2
		c1.2-11.6,1.5-23.3,2.5-34.9c0.8-8.9,1-8.8-7.5-10.8c-26.8-6.1-43.5-23.8-54.9-47.6c-0.7-1.5-1.5-3.1-2.5-5.2
		c-9.5,13.2-21.4,22.1-35.3,28.5c-14,6.4-28.6,9.4-44.1,9.1C304.3,639.4,303.7,646.3,303.1,653.6z M648.5,598.7
		c-0.7,0.2-2.5,0.5-4.2,1c-35.9,11.3-59.2,35.3-67.4,71.8c-5.9,26.4-8.4,53.6-12.4,80.4c-0.9,6.4-1.5,12.8-2.3,19.5
		c55.1,0,109.4,0,163.8,0c-0.9-8.8-0.9-8.9-8.7-10.6c-33.9-7.4-67.8-6.7-101.6,0.5c-7.8,1.7-9.8,0.2-9.1-7.9
		c1.4-18.3,3.2-36.5,4.7-54.7c0.3-3.6,1.5-6.5,5.5-6.2c4,0.3,4.9,3.5,4.5,7c-0.8,9.1-1.7,18.2-2.4,27.4c-0.6,7.5-1.1,15.1-1.7,23.6
		c35.3-6.9,69.5-6.9,103.6,0.5c0.2-1.2,0.4-1.7,0.3-2.1c-3-17.9-5.9-35.8-9.1-53.7c-3.8-21.3-10.4-41.6-21.7-60.3
		c-1.9-3.1-4-4.7-7.9-4.7c-10.5,0-19.3-4.5-25.2-13C653.6,611.8,651.6,605.3,648.5,598.7z M947.2,1025.1c-282,0-563.1,0-844.8,0
		c2.1,5.3,4.4,10,5.8,14.9c1.6,5.8,4.8,7.3,10.7,7.3c269.6-0.2,539.2-0.1,808.8-0.1c1.3,0,2.7,0.2,4-0.1c1.1-0.2,2.4-0.7,2.9-1.5
		C938.7,1039,942.7,1032.3,947.2,1025.1z M1056,937.4c0,0.2,0,0.4,0,0.7c10.9-0.7,21.8-1.2,32.7-2.2c26.2-2.2,44.2-22.4,41.7-47.7
		c-1.8-18.2-4.7-36.3-7.6-54.3c-1.8-11.4-10-17.9-21.7-18c-30.2-0.1-60.3-0.1-90.5,0c-12.7,0-20.8,7.6-22.4,20.2
		c-2,16-3.9,32-6.5,47.9c-3.6,22.7,9.8,44.5,32.1,50.1c7.6,1.9,15.7,2.5,23.6,3.2C1043.6,937.8,1049.8,937.4,1056,937.4z
		 M970.3,997.1c-2.7,0-4.4,0-6,0c-42.8,0-85.7,0.1-128.5,0.1c-260.7,0-521.3-0.1-782,0c-13,0-10.9-2.6-11.1,11.9c0,2.7,1,4,3.8,3.9
		c1.8-0.1,3.7,0,5.5,0c299.2,0,598.3,0,897.5,0c3.5,0,7,0.1,10.5,0c1.2-0.1,3-0.5,3.4-1.3C965.8,1007.1,967.8,1002.4,970.3,997.1z
		 M1809.2,605.8c-0.6,0.3-1,0.4-1.2,0.6c-24.3,26.2-53.4,43.2-89.3,47.6c-1,0.1-2.5,2.2-2.4,3.3c0.3,5,0.7,10,1.6,14.9
		c11.2,55.4,62,90.7,117.7,81.8c13.4-2.1,25.9-6.8,37.6-14.5c-1.1-1.9-2.1-3.4-3-5c-8.7-14.7-13.4-30.5-12.5-47.6
		c0.7-14.1,2.3-28.2,3.5-42.3c0.6-7.7,1-15.4,1.5-23.2C1842.3,622.7,1823.9,620,1809.2,605.8z M763.3,642.6c-1.3,0.2-2,0.1-2.5,0.4
		c-14.6,5.6-29.2,11.3-43.8,16.9c-3.1,1.2-2.6,3.1-2,5.6c2.6,10.7,5.4,21.3,7.5,32.1c4.5,23,8.7,46.1,12.9,69.2
		c0.7,4.1,2.6,5.3,6.7,5.2c25.1-0.2,50.3-0.1,75.4-0.1c1.6,0,3.2-0.2,5.2-0.3c-0.1-2.1-0.1-3.7-0.3-5.3c-3.1-24.4-5.7-48.9-9.5-73.2
		c-3.5-22.5-10.5-44-24.3-62.8c-5.6-7.6-11.9-14.5-20.2-20c-1.9,8.8-7.2,17.2,1.8,24.6c0.7,0.6,0.9,1.8,1.3,2.7
		c12.4,27.1,20.8,55.4,26.7,84.6c1.6,7.8,3,15.7,4.5,23.5c0.6,3.3,0,6.2-3.7,7c-3.5,0.7-5.2-1.6-5.8-4.8c-0.3-1.6-0.7-3.3-1-4.9
		c-4.8-27.6-11.2-54.8-21.2-81C768.7,655.4,766,649,763.3,642.6z M1456.6,996.5c-0.3,0.5-0.7,1-1,1.4c0.5,2.4,1,4.7,1.6,7.1
		c2,7.9,2,7.9,10.3,7.9c204.3,0,408.6,0,612.8,0c10,0,8.9,1.3,8.9-9.2c0-6.7,0-6.7-6.4-6.7c-194.8,0-389.6,0-584.3,0
		c-2.2,0-4.4-0.2-6.5,0.1c-1.7,0.2-3.5,0.8-4.9,1.8c-7.7,5.9-14.3,5.9-22.4,0.4C1462.5,997.8,1459.4,997.4,1456.6,996.5z
		 M1452.3,908.7c3.2-5,6.2-9.5,9.1-14.1c11.5-18.3,22.4-37,30.3-57.3c4-10.5,6-21.1,2.8-32.2c-3.4-12-6.7-24-10.6-35.9
		c-2.8-8.7-6.4-17.1-9.8-25.9c-1.9,0.7-3.3,1.1-4.7,1.7c-12.9,5.4-25.7,11-38.7,16.2c-3.9,1.6-4.5,3.3-3.1,7.1
		c4.2,11.7,8,23.6,12.2,35.4c2.2,6.3,1.3,12-1.9,17.7c-5.8,10.5-11.4,21.1-17.2,31.6c-4.3,7.8-8.7,15.6-12.3,21.9
		c4.4,4.5,8.1,8.3,11.9,11.9c1.1,1,2.8,1.7,4.3,2c4.9,1,8.4,3.6,10.8,8c0.6,1.2,1.9,2.9,2.9,2.9
		C1444.6,900,1448.7,903.3,1452.3,908.7z M1611.6,807.2c-19.6,4.1-38.4,8.1-57.4,12.1c1.7,7.9,3,15.1,4.8,22.1c0.3,1.4,2,3,3.4,3.4
		c7.9,2.7,10.9,6.4,11.6,14.8c0.1,1.3,1.2,2.9,2.4,3.6c7.2,4.4,9.3,9.3,7.8,17.7c-0.3,1.5,0.3,3.5,1.2,4.7
		c4.9,6.4,5.1,12.1,0.7,18.8c-0.8,1.2-1.2,3.4-0.7,4.7c3.2,8.5,1.7,13.7-5.9,19.5c-0.8,0.6-1.8,1.8-1.7,2.6
		c0.7,4.2,1.8,8.3,2.8,12.8c19.4-4.1,38.2-8,57.3-12.1C1629,890.1,1620.4,849,1611.6,807.2z M1426.2,1013c-0.8-3.5-1.4-5.9-2-8.3
		c-2.5-8.8-1-7.6-9.8-7.6c-91.8,0-183.6,0-275.5,0c-11.8,0-9.7-1.6-10.2,10c-0.2,4.5,1.1,6,5.9,6c95-0.1,190-0.1,284.9-0.1
		C1421.4,1013,1423.4,1013,1426.2,1013z M757.6,633.8c-0.5-1.4-0.8-2.2-1.1-3c-1.3-3.2-4-6-1.3-10.1c5-7.6,3.9-15.4-0.1-23.2
		c-1.3-2.6-1.8-5.9-1.7-8.9c0.4-8.1,1.6-16.2,1.8-24.4c0.1-1.8-2-4.9-3.6-5.3c-3-0.8-4.1,1.8-4.3,4.6c-0.2,4-0.3,8-1.1,11.9
		c-0.5,2.3-1.8,5.3-3.6,6.3c-1.3,0.7-4.7-1-6.2-2.6c-10.8-11.1-21.3-22.5-32-33.7c-1-1.1-2-2.6-3.3-3c-1.5-0.4-4-0.5-4.9,0.5
		c-0.9,0.9-0.7,3.3-0.4,4.9c0.2,1,1.4,1.8,2.2,2.6c7.4,8.1,14.8,16.3,22.2,24.4c2.3,2.5,3.5,5.3,0.7,7.9c-2.8,2.6-5.5,1.3-7.7-1.3
		c-1.4-1.6-2.6-3.7-4.4-4.7c-1.7-0.9-4.1-0.7-6.1-1c0.1,2.1-0.5,4.5,0.4,6.1c1.5,2.7,4.5,4.6,5.9,7.3c0.8,1.7,0.5,4.9-0.6,6.4
		c-0.7,0.9-4.3,0.5-5.9-0.4c-2.1-1.2-3.5-3.5-5.1-5.4c-2.1-2.5-4.6-4.7-7.6-2.1c-3,2.6-0.6,5.1,1.3,7.2c2,2.2,4.1,4.4,6,6.7
		c2,2.4,1.9,5-0.5,7.1c-2.4,2.1-4.9,1.8-7-0.6c-1.1-1.2-2.1-2.5-3.2-3.8c-2-2.3-4.5-3.3-6.8-0.7c-2.2,2.5-0.4,4.2,1.4,6.3
		c6.4,7.2,13,14.2,18.5,22c4.4,6.1,7.3,13.3,11.1,20.3C726.2,646.1,741.7,640,757.6,633.8z M1223.1,750.4c-0.3,1.9-0.5,3.2-0.6,4.5
		c-1.1,13.3-2.1,26.6-3.1,39.8c-2.3,31.4-4.6,62.7-6.8,94.1c-1.3,17.4-2.5,34.9-3.7,52.3c-0.9,13-1.5,25.9-2.5,38.9
		c-0.3,4,1.1,5.5,5.1,5.3c3.3-0.2,6.7-0.3,10,0c3.9,0.3,5.4-1.4,5.4-5.2c0-5.7,0.3-11.3,0.6-17c1.7-36.6,3.2-73.2,5.1-109.8
		c0.9-17.6,2.3-35.2,3.7-52.8c1.2-14.1,2.8-28.2,4-42.3c0.1-1.5-0.9-4.3-1.9-4.6C1233.5,752.3,1228.4,751.5,1223.1,750.4z M1445,931
		c-10.7,8.5-13.5,8.5-24.8,0.2c-0.8-0.6-2.4-0.5-3.6-0.3c-8,1.7-13.2-0.7-17.5-8c-0.8-1.3-2.5-2.6-4-2.8c-8-1.5-12.3-5.6-12.8-13.5
		c-0.2-2.6-1-3.7-3.3-4.6c-6.9-2.7-10.9-8.2-9.2-15.1c1.5-5.8-1-8.1-5.1-10.4c-2-1.1-3.9-2.5-6.1-3.9c-6.1,7.4-12,14.5-17.8,21.6
		c0.5,0.9,0.7,1.3,1.1,1.7c28.3,28.2,56.5,56.5,84.9,84.6c4.6,4.5,11.2,4.2,15.5-0.8c6.6-7.5,12.9-15.2,19.1-23.1
		c4-5.1,3.2-11.8-1.8-15.5C1454.9,937.5,1449.9,934.3,1445,931z M1767.7,770.9c0.4-0.9,0.7-1.2,0.7-1.5c0.1-3.5-0.1-7,0.2-10.5
		c0.4-4.2-1.2-6.4-4.9-8.6c-28.6-16.5-46.9-40.8-54.3-73.1c-1.6-7.2-2.3-14.7-3.5-22.2c-2.6,0-5,0-7.5,0c-0.2,1.3-0.5,2.2-0.5,3.2
		c0,13-0.2,26,0.1,38.9c0.4,17.7,6.3,33.6,17.8,47.1C1729.4,760.2,1746.7,769,1767.7,770.9z M385.9,961c-2.5-5.2-4.6-9-6.1-13.1
		c-0.6-1.8-0.6-4.7,0.5-6.1c1.7-2.4,4.5-1.8,6.4,0.3c1.5,1.7,2.9,3.7,3.9,5.8c1.4,3.2,2.4,6.5,3.6,9.8c1.2,3.2,3.8,4.1,6.4,2.8
		c1.5-0.8,3.2-3.8,2.9-5.3c-2.9-12.1-7.9-23.2-21.5-26.2c-8.8-2-18-2.9-27.1-3c-12.7-0.2-21.9,6.5-26.9,18
		c-5.2,11.9-2.9,23,5.8,32.4c5.9,6.4,13.4,10,22.9,8.8c-0.9-2.7-1.8-5-2.3-7.4c-0.5-2.6-0.6-5.3-0.6-7.9c-0.1-7.4,1.3-8.8,8.6-8.8
		C369.7,961,377,961,385.9,961z M1809.2,823.3c1.7-1,2.6-1.4,3.4-1.9c14.5-10.8,29.1-21.6,43.5-32.6c13.1-9.9,14.5-15.8,9.6-34.3
		c-20.1,9.1-41.2,12.1-63.7,9.2C1804.5,784,1806.8,803.4,1809.2,823.3z M512.2,783.3c-8.4-1-11.6,1.7-11.6,9.9c0,9.3,0,18.6,0,28
		c0,52.9,0,105.9,0.1,158.8c0,1.9,1,3.8,1.6,5.7c2-0.9,5.1-1.3,5.9-2.9c1.9-3.5,3.8-7.6,3.9-11.4
		C512.3,908.8,512.2,846.3,512.2,783.3z M1303.2,625.5c0.7,6.9,0.5,13.5,2.2,19.6c3.3,11.8,7.7,23.4,11.7,35c1,3.1,2.1,6.2,3.3,9.7
		c1.2-0.9,2-1.3,2.5-1.9c13.4-14.9,26.6-29.8,40.1-44.5c3.4-3.8,4.7-7.7,4.5-12.6c-0.2-3.8-1.2-4.9-5.1-4.1
		c-13.1,2.6-26.4,3.6-39.7,1.7C1316.6,627.5,1310.5,626.6,1303.2,625.5z M924.3,966.5c18.6,3.3,18.7,3.5,20.8,18.5
		c6-0.4,11.4-5.1,13.1-12.3c4.9-21,9.8-42,14-63.2c0.8-3.8-0.7-9.3-3.2-12.3c-3.2-3.8-8.6-5.7-13.5-8.8
		C945.3,914.2,934.8,940.3,924.3,966.5z M297.1,776.8c-4.3,20.4-1.1,33.5,12,43.2c11.3,8.3,27.5,8.4,39,0.6
		c10.6-7.2,16.5-20.5,13.6-31.9C339.2,790.9,317.4,787.5,297.1,776.8z M331.3,877.4c3.6-4.5,6.4-7.9,9.2-11.4
		c13.7-17.8,27.4-35.6,37.2-56c3.3-6.8,3.1-7-4-9.2c-0.6-0.2-1.2-0.3-2.1-0.4c-5.6,21.3-18.9,34.3-41.2,34.9
		c-22.1,0.6-36.4-11.1-43.5-31.7c-7.7,2.3-8.4,3.2-4.3,9.3c8.1,12.4,16.5,24.6,25.4,36.4C315.1,858.7,323.1,867.6,331.3,877.4z
		 M989.5,1033c8.8,2,6.2,8,4.4,14.1c2.6,0,4.3,0,6.1,0c26.7,0,53.3-0.1,80,0.1c5.1,0.1,6.6-1.6,6.9-6.4c0.2-2.3,1.9-5.7,3.8-6.5
		c5.3-2.3,6-2.9,3.8-9.6c-2,0-4.2,0-6.3,0c-29.2,0-58.3,0-87.5,0C992.6,1024.7,992.6,1024.7,989.5,1033z M1133.3,1090.4
		c0.2-1.2,0.4-1.7,0.3-2.2c-1.7-14.2-3.3-28.4-5.2-42.5c-0.2-1.1-2.7-2.7-4.1-2.7c-8.3-0.2-16.6,0-24.9-0.1c-2.7,0-3.8,0.8-4.1,3.6
		c-1.8,15.8-3.9,31.6-5.8,47.5c-0.6,4.9-0.9,9.8-1.5,15.7C1102.9,1100.5,1116,1090.6,1133.3,1090.4z M965.3,1105.6
		c7-22,13.7-42.9,20.5-64.2c-9.3-4.2-18.2-8.4-27.2-12.2c-1-0.4-3.6,1-4.4,2.2c-6.8,10.7-13.3,21.5-19.9,32.3
		c-0.9,1.5-1.7,3.1-2.7,5C948.1,1076.3,955.3,1091.5,965.3,1105.6z M1081.6,947.2c-17.6,0-34.2,0-51.1,0c0,13.2,0,26,0,39.3
		c16.3,0,32.5,0,48.6-0.1c0.8,0,2.4-1.8,2.4-2.8C1081.6,971.6,1081.6,959.7,1081.6,947.2z M428.5,823.8c6.7-23.4,8.1-46.7,2.5-71.4
		c-16.3,18.2-35.8,29.3-59.5,35.4c11.2,5.8,21.2,10.1,30.3,15.9C411,809.5,419.3,816.7,428.5,823.8z M489.4,972.1
		c-41.9,0-83.3,0-124.6,0c0,8.3,5.8,13.8,14.1,13.8c35.1,0,70.3,0,105.4,0c1.6,0,3.2-0.2,5.1-0.4
		C489.4,980.9,489.4,976.6,489.4,972.1z M1823.6,985.6c-0.1-2.8,0-5.3-0.4-7.6c-2.7-14-17.4-29.1-31.3-32c-0.8-0.2-1.7-0.3-2.5-0.1
		c-16.8,4.3-30.6,12.3-36.3,29.9c-1,3-1.3,6.3-1.9,9.4c8.6,1.4,8.6,1.4,10.8-5.8c2.7-9,8-16,16.6-20.2c2.7-1.3,5.8-1.1,6.6,2
		c0.4,1.8-1.2,4.2-2.3,6.2c-0.5,0.9-2,1.1-2.9,1.8c-5.5,4-8.7,9.2-9.4,16c8.7,1.5,8.8,1.5,12.5-5.7c2.6-5.2,6.8-8.6,12-10.7
		c3.1-1.2,6.5-2.3,8.1,1.7c1.6,3.8-1,5.7-4.4,6.9c-3.6,1.3-6.8,3.3-7.6,8.1C1802,985.6,1812.5,985.6,1823.6,985.6z M979.3,922.5
		c-5.2,21.5-10.2,42.4-15.2,63.2c11.2,1.8,11.4,1.7,16.2-9c0.7-1.5,1.4-3,2.1-4.5c2.4-5.4,6.4-9,12.2-9.9c5-0.8,10.2-1,15.3-1.2
		c12.4-0.4,10.7,2.5,10.6-11.3c0-1.3-1.9-3.6-3.1-3.8c-14.7-2.7-26.7-9.7-35.9-21.6C981,923.8,980.4,923.4,979.3,922.5z
		 M998.9,1012.7c2.5,0.1,4.1,0.2,5.7,0.2c26.5,0,52.9,0.1,79.4,0c12.6-0.1,11.1,2.9,11.2-11.9c0-3.1-1.4-4-4.3-3.9
		c-27,0.1-53.9,0-80.9,0.1c-1.5,0-3.7,0.5-4.3,1.6C1003.3,1003,1001.3,1007.5,998.9,1012.7z M1656.6,927.8c-0.1-1.4-0.1-2.3-0.2-3.1
		c-7.9-38-15.9-76.1-23.9-114.1c-1.5-7.4-1.6-7.4-8.8-5.8c-0.8,0.2-1.5,0.5-2.8,1c8.7,41.3,17.3,82.5,26,124
		C1650.4,929.1,1653.2,928.5,1656.6,927.8z M969.7,1023.5c2.3,1.1,4.3,1.9,6.1,3c3.5,2.1,5.5,1.3,7.1-2.6c3.8-9,8.1-17.8,12.2-26.8
		c2.6-5.7,5.4-11.4,7.7-17.3c1.8-4.7-1.5-9.1-6-7.9c-2.4,0.7-5,3.2-6.1,5.5c-6.6,13.6-12.7,27.4-19,41.2
		C970.9,1020.1,970.4,1021.7,969.7,1023.5z M1106.5,1004.5c0,8.3,0.1,16.6-0.1,24.9c-0.1,3.6,2,4.2,4.8,3.9c2.5-0.3,6.2,1.4,6.2-3.4
		c0-17.1,0-34.2,0-51.4c0-0.5,0-1.1-0.3-1.4c-1.5-1.7-3.1-4.7-4.7-4.8c-1.8,0-3.9,2.5-5.2,4.3c-0.8,1.2-0.6,3.2-0.6,4.8
		C1106.4,989.2,1106.5,996.9,1106.5,1004.5z M1376.9,677.7c-2.2-9.5-4.2-18.3-6.5-28.2c-12.6,13.9-24.2,26.8-35.8,39.8
		c0.3,0.3,0.6,0.7,0.8,1C1349,686.2,1362.6,682.1,1376.9,677.7z M1278.1,675.1c10.9,5.4,20.9,10.3,30.9,15.3c0.3-0.3,0.7-0.6,1-0.9
		c-4.4-12.9-8.8-25.8-13.5-39.8C1290,658.7,1284.3,666.6,1278.1,675.1z M1153.9,1113.7c-2.1-6.2-5.3-10.8-10.7-12
		c-5.5-1.3-11.5-1.4-17.1-0.8c-9.5,1.2-17.2,6.6-25.9,12.8C1118.8,1113.7,1135.9,1113.7,1153.9,1113.7z M903.4,1081.9
		c16.2,7.4,32,14.6,49,22.4c-7-12.3-14.2-22.3-26.3-27.6C918.1,1073.1,910.4,1074.7,903.4,1081.9z M545.4,471.1
		c-7,9.6-6.4,22,1,31.2c5.1,6.4,14.2,10.1,19.4,7.8C559.1,497.3,552.4,484.5,545.4,471.1z M1055.6,777.5c6.5,0.1,11.9-5,12.1-11.4
		c0.2-6.4-5.4-12.3-11.8-12.2c-6.4,0-11.7,5.3-11.7,11.8C1044.1,772.3,1049,777.4,1055.6,777.5z M976.1,844.9
		c-7.8,0.2-13.3,5.1-13.8,12.4c-0.4,6-0.4,12-0.1,17.9c0.3,5.1,2.8,9,8.2,11.6C972.4,872.6,974.2,859,976.1,844.9z M792.5,476.8
		c9.6-4,14.6-10.7,16.5-20.1c1.7-8.6-2-18.2-8.6-22.5C797.8,448.2,795.3,462.1,792.5,476.8z M676.4,618.7c-1.2-1.2-2.1-2-3-2.9
		c-6.3-6-5.9-16,1.5-20.6c4.2-2.6,4.5-5.7,4.2-10.3c-6.6,0-12.9,0-19.3,0C657.7,603,664.2,616.5,676.4,618.7z M1141.2,885.5
		c0.7,0.2,1.4,0.4,2.1,0.6c1.7-2.9,4.6-5.6,4.9-8.6c0.7-7.2,0.8-14.6,0.1-21.9c-0.6-6.4-7-11-12.6-9.8
		C1137.5,859,1139.4,872.3,1141.2,885.5z M1572.4,759.3c0.1-5.6-4.8-10.5-10.5-10.5c-5.5,0-10.3,4.6-10.5,10
		c-0.2,5.7,4.5,10.7,10.2,10.8C1567.4,769.7,1572.3,765,1572.4,759.3z M1455.1,978.6c6.1,5,11.5,9.6,17.1,13.9
		c3,2.3,6.6,1.9,8.2-1.2c1.1-2.1,1-6.5-0.4-7.9c-5.1-5.1-11-9.5-16.9-14.4C1460.4,972.4,1457.9,975.3,1455.1,978.6z M919.8,986.5
		C919.8,986.5,919.8,986.5,919.8,986.5c3.5,0,7,0.1,10.4,0c3.2-0.1,5.9-1.8,5.2-5.1c-0.4-2-3.1-4.7-4.9-4.8
		c-6.9-0.6-13.9-0.6-20.8,0c-1.8,0.2-3.4,3.2-5,5c1.7,1.7,3.2,4.2,5.3,4.8C913,987.1,916.4,986.5,919.8,986.5z M1472.9,943.1
		c0,4.6,0,8.4,0,12.6c6.9,0.4,13.6,1.1,20.4,1.2c3.5,0,5.9-2.5,5.9-6.2c0-3.3-1.9-5.7-5.4-6C1486.9,944.1,1480,943.6,1472.9,943.1z
		 M1431.2,993.2c1.9,7,3.5,13.8,5.5,20.5c1,3.5,3.8,5.2,7.4,4.2c3.5-0.9,5.3-3.7,4.5-7.3c-1.5-6.6-3.4-13.1-5.1-19.5
		C1439.2,991.8,1435.5,992.4,1431.2,993.2z M1553.2,885.6c7.1-1.7,13-2.7,18.6-4.7c1.7-0.6,3.8-4.3,3.3-5.4
		c-0.8-1.8-3.9-3.9-5.7-3.7c-5.7,0.7-11.4,2.1-16.8,4c-1.6,0.6-3.5,3.7-3.3,5.4C1549.3,882.9,1552,884.4,1553.2,885.6z
		 M1575.4,890.2c-6.9,1.6-12.8,2.7-18.5,4.6c-1.6,0.6-3.7,3.8-3.3,5.3c0.4,1.7,3.5,4,5.2,3.8c5.9-0.7,11.8-2.1,17.4-4
		c1.6-0.5,3.2-3.8,3.1-5.7C1579.2,892.7,1576.6,891.3,1575.4,890.2z M1207,520.7c-0.7-12.7-1.4-25.5-2-38.2
		C1194.2,492.6,1195.4,512.4,1207,520.7z M1406.2,887.4c-0.2,0.1-1,0.2-1.4,0.6c-4.2,5.3-8.5,10.5-12.3,16.1c-0.7,1,0.4,4.5,1.6,5.3
		c1.3,0.8,4.7,0.5,5.6-0.7c3.9-4.7,7.4-9.8,10.6-14.9C1412.1,891.1,1409.6,887.3,1406.2,887.4z M1427.2,902.7
		c-1.1-1.2-2.1-3.2-3.4-3.4c-1.6-0.3-4.1,0.5-5.1,1.7c-3.5,4.2-6.4,8.9-9.6,13.4c-1.8,2.5-1.5,4.7,0.9,6.5c2.5,1.9,4.8,1,6.5-1.3
		c3.2-4.3,6.2-8.7,9.2-13.1C1426.1,905.6,1426.4,904.4,1427.2,902.7z M1548.8,866.6c4.9-1.2,8.9-1.6,12.2-3.2c1.7-0.8,3.5-4,3.1-5.7
		c-0.4-1.6-3.5-3.6-5.4-3.6c-3.6,0-7.4,0.9-10.6,2.4c-1.7,0.8-3.6,3.7-3.4,5.6C1544.9,863.8,1547.6,865.3,1548.8,866.6z
		 M1561.7,923.8c5.2-1.3,9.4-2,13.1-3.6c1.4-0.7,2.8-4,2.3-5.6c-0.5-1.6-3.4-3.4-5.1-3.3c-3.7,0.2-7.6,1.2-11,2.7
		c-1.6,0.7-3.5,3.5-3.2,5.1C1558,920.8,1560.4,922.3,1561.7,923.8z M1443.5,915.3c-1.4-2.1-1.9-4.1-3.1-4.5
		c-1.4-0.6-4.1-0.6-4.9,0.4c-2.8,3.2-5.3,6.8-7.3,10.5c-0.6,1.1,0.3,3.6,1.3,4.7c0.8,0.9,3.7,1.3,4.3,0.7
		C1437.2,923.4,1440.2,919.4,1443.5,915.3z M1395.5,880.1c-0.4-0.5-1.1-2.3-2.2-2.6c-1.6-0.4-3.9-0.4-5.1,0.5
		c-2.9,2.2-5.5,4.8-7.7,7.7c-0.9,1.2-0.9,3.5-0.5,5c0.3,1,2.2,2,3.5,2.2C1386.9,893.3,1395.6,884.4,1395.5,880.1z M895.5,976.5
		c-4-0.2-8.2-1.5-11.1,2.2c-0.9,1.2-0.7,5-0.2,5.2c3.4,1.3,7.1,1.9,11.2,2.8C895.5,982.5,895.5,979.7,895.5,976.5z M281.7,793.6
		c5.2-3.7,5.7-21.5,1.3-23.6C282.6,777.7,282.2,785.2,281.7,793.6z"/>
	<path class="st15" d="M1216.2,480.3c4.5,0.3,11.7-34.8,23-39.7c6.4-2.7,7.3,2.2,23.7,2c16.8-0.2,25.2-20.5,29.7-15.7
		c3.3,3.5,12.5,21.9,28.7,35.2c42.7,35,100.4,3.9,105.5,13c4.6,8.3,4,43.5,13.7,42.3c4-0.5,0.6-37.3,11.7-41.7
		c2.9-1.2,3.9,0.6,5.2-1.2c2.8-3.8-2-47.4-26.7-73.3c-33.8-35.6-92.9-34.4-130.7-22.3c-8,2.6-61.7,20.5-79,66.3
		C1214.1,463.1,1214.8,480.2,1216.2,480.3z"/>
	<path class="st16" d="M1221.1,442.7c0,0,39.7-61.6,103.1-70.2c59-8,102.8,25.3,102.8,25.3s-14.2-13.4-23.3-19.3
		c-30.3-19.6-71-26.8-111.3-12C1237,386.9,1221.1,442.7,1221.1,442.7z"/>
	<path class="st17" d="M1620.6,747.4c0-8.8,0-17.6,0-26.5c0-5.7,1.9-7.1,7.3-6c4.5,0.9,9.8,3.6,13.2,2c3.2-1.5,4.5-7.3,6.6-11.3
		c3.1-5.9,5.9-11.9,9.3-17.6c1.1-1.8,3.8-2.6,5.7-3.8c1.2,2.1,3.4,4.3,3.3,6.4c-1.4,19.1-3.2,38.1-4.9,57.1c-0.3,3.5-2.2,5.4-6,5.1
		c-2.5-0.2-5.1,0.3-7.5-0.3c-5.4-1.4-7.7,1.2-9.6,5.7c-2.5,6-5.6,11.7-8.4,17.5c-1.3,2.7-2.9,5.8-6.1,4.2c-1.9-0.9-3.4-4.3-3.5-6.7
		c-0.4-8.6-0.2-17.3-0.2-26C1620.2,747.4,1620.4,747.4,1620.6,747.4z M1630.3,750.6c2.4-9.3,9.4-8.6,16.5-7.7c0.3,0,0.8,0.2,1,0
		c1.5-1.2,3.9-2.2,4.1-3.6c1-7.5,1.5-15.1,2.2-23.1c-0.8,0.8-1.3,1-1.5,1.4c-3.1,9.6-8.8,13.6-18.8,9.2c-0.7-0.3-3.3,1.6-3.4,2.6
		C1630.2,736.3,1630.3,743.4,1630.3,750.6z"/>
	<path class="st14" d="M1118,709.1c-1.5,1.7-2.5,3.7-3.7,3.8c-1.9,0.2-4.1-0.5-5.7-1.5c-7.4-4.7-14.1-11-22-14.4
		c-29.5-12.8-56.8-8-81.4,12.5c-1,0.9-1.8,2.3-3,2.6c-2,0.4-4.2,0.2-6.3,0.2c0-2.2-0.9-5.4,0.2-6.5c3.6-3.8,7.8-7.2,12.2-10.3
		c31.6-22,77.2-18.5,105.1,8.1C1115.1,705.1,1116.4,707,1118,709.1z"/>
	<path class="st14" d="M1093.7,731.3c-0.1,4.5-3.4,6.5-6.4,5c-1.3-0.7-2.4-1.8-3.5-2.8c-16.7-14-39-14-55.8-0.1
		c-0.6,0.5-1.3,1.1-1.9,1.6c-2.2,2.1-4.6,2.9-7,0.4c-2.7-2.7-1.3-5.1,1-7.3c6.3-5.9,13.5-10.2,21.9-12.3c18-4.5,34.2-0.9,48.3,11.3
		C1091.9,728.5,1093,730.4,1093.7,731.3z"/>
	<path class="st18" d="M1514.1,683.5c0.7-0.8,1.9-3.2,2.9-3.1c2.1,0.2,5.1,1.1,6,2.7c5.4,9.3,10.3,18.9,15.4,28.4
		c0.2,0.4,0.7,1,0.6,1.3c-0.6,1.9-0.9,4.6-2.2,5.3c-1.3,0.7-4.8-0.1-5.5-1.2c-5.8-10.2-11.3-20.6-16.8-31
		C1514.4,685.5,1514.4,684.9,1514.1,683.5z"/>
	<path class="st0" d="M520.2,986.1c4.2-12.5,2.4-24.7,2.4-36.7c0.2-51.3,0.1-102.6,0.1-154c0-2,0-4,0.2-6c0.3-4.5,2.9-6.5,7.2-6.6
		c1.3,0,2.7,0,4,0c100,0,199.9,0,299.9,0c8.4,0,8.8,0.4,8.8,8.7c0,60.5,0,121,0,181.4c0,2.1-0.2,4.3-0.6,6.4
		c-0.8,4.8-3.6,6.8-8.7,6.8c-102.6-0.1-205.3-0.1-307.9-0.1C523.9,986.1,522.3,986.1,520.2,986.1z M683.8,862.1
		c-11.1,0-20.2,9.1-20,19.9c0.2,11.1,9.2,19.8,20.2,19.8c11,0,20-9.1,20-20C704,870.8,695,862,683.8,862.1z"/>
	<path class="st19" d="M1417.5,985.2c-4.2,0-7.3,0-10.4,0c-54,0-108,0-162,0c-7.9,0-8,0-7.7-7.6c1.7-41.3,3-82.6,5.5-123.8
		c2.1-33.7,5.6-67.3,8.7-101c0.4-4.3,1.5-8.5,2.5-12.7c0.8-3.3,0.4-6.2-3.3-7.2c-3.6-1-5.6,1.2-6.5,4.5c-0.5,1.9-1.1,3.8-1.9,6.2
		c-5.3-1-10.5-1.8-15.5-3.3c-1.2-0.4-2.4-3.4-2.2-5.1c1.5-16.2,6.8-31.2,15.1-45.1c7.9-13.2,18.2-24.2,31.5-32.2
		c2.9-1.8,6.1-3.2,9.8-3.9c-4.1,5.9-8.3,11.8-12.4,17.7c-3.6,5.1-3.2,7.8,2.4,10.7c14.5,7.4,29.1,14.8,43.8,21.9
		c2.1,1,5.3,0.9,7.7,0.2c19.5-5.8,38.8-11.9,58.2-17.9c6.3-1.9,7.2-3.3,5.9-9.7c-1.7-8-3.6-15.9-5.4-23.9c-0.4-1.7-0.6-3.5-1-5.8
		c14.3,1.9,27.1,6.3,38.8,13.5c17,10.4,29.3,24.9,37.4,43.1c4.3,9.7,8.8,19.3,13.4,29.5c-5.3,2.3-9.9,4.4-14.6,6.4
		c-9.2,3.9-18.5,7.5-27.6,11.8c-4.5,2.1-6.2,0.7-7.6-3.4c-1.5-4.6-3.5-9-5.3-13.5c-1.4-3.5-3.1-6.7-7.6-4.9c-4.2,1.7-3.3,5-2.1,8.4
		c6.9,18.4,13.4,36.9,20.8,55.1c4.8,11.8,5.1,22.2-2.3,33.3c-7.9,12.1-14.3,25.2-21.2,37.9c-1.6,2.9-2.9,4.2-6.5,2.8
		c-5.6-2.2-10.9-0.8-15.1,3.5c-2.4,2.5-4.4,2.1-6.9,0.3c-2.9-2.2-6-4.1-9.1-6.2c-6.6-4.6-6.9-4.6-14.3,0.8c-3.6-3.9-7.4-8-11.1-12.2
		c-2.6-3-5.8-4.8-8.9-1.6c-2.9,2.9-1.3,6.1,1.3,8.8c3.4,3.4,6.9,6.8,10.1,10.4c1,1.1,2,3.9,1.5,4.4c-1.6,1.5-4,3.4-5.9,3.1
		c-5.3-0.6-10.4-2.4-15.6-3.4c-4.3-0.9-7.8,1.4-6.9,4.7c0.5,2.1,2.9,4.3,5,5.2c3.9,1.6,8.2,2.3,12.5,3.3c-4.4,6.8-4.4,7.7,1.1,13.2
		c27,27,54,53.9,81,80.9C1415.3,982.9,1416,983.6,1417.5,985.2z"/>
	<path class="st1" d="M1904,923.6c-46,1.9-91.2,5.4-135.5,18.6c0-1.9-0.1-4,0-6.1c0.9-24.1,1.8-48.3,2.7-72.4c0-1.2,0.5-2.7,0-3.4
		c-1.3-1.9-3-4.6-4.7-4.7c-1.6-0.1-4.4,2.6-4.7,4.4c-0.9,5.7-1,11.6-1.2,17.4c-0.4,10.3-0.6,20.7-1.2,31c-0.1,2-1.3,4.7-2.8,5.8
		c-15.4,10.5-30.9,20.9-46.6,30.9c-12.6,8-26.3,9.9-40.8,6.1c-9.9-2.6-19.9-5.3-29.8-7.9c0-0.6,0-1.2,0-1.8c5.5-1.2,11-2.6,16.6-3.7
		c12.2-2.5,12.2-2.5,9.7-14.6c-1.5-7.2-3-14.3-4.4-21.5c-0.3-1.6-0.5-3.2-0.7-4.5c0.6-0.4,0.8-0.6,0.9-0.6
		c16.8,4.2,29.6-2.7,40.3-14.8c18.4-20.9,36.1-42.3,54.9-62.9c10.3-11.3,21.9-21.3,33-31.8c1.2-1.1,2.7-1.8,5-3.3
		c1,7.9,2,15,2.9,22.2c1,8.4,1.9,16.9,3,25.3c0.7,5.5,4.3,7.4,8.7,4.1c19.3-14.2,38.6-28.5,57.5-43.2c4-3.1,6.9-8.1,9.3-12.7
		c1.5-2.9,2.5-3.5,5.5-2.6c19,5.6,34.2,16.8,47.2,31.4c20.6,23,32.8,50.3,40.6,79.9c5.6,20.9,11.5,41.8,12,63.7
		c0.2,7.2-0.7,14.7-2.5,21.7c-2.2,8.8-8,12.3-17.1,12.3c-40.8-0.1-81.7-0.3-122.5-0.3c-4.1,0-6.1-0.8-6.5-5.6
		c-1.1-13.8-8.2-24.4-19-32.6c-1.3-1-2.7-2-4-3c-0.2-0.2-0.2-0.6-0.6-1.5c10-1.5,19.8-3.6,29.6-4.4c22.9-1.8,45.8-3,68.8-4.2
		c6.4-0.4,8-1.9,6.9-8.3c-4.3-24.2-12.6-46.9-24.4-68.4c-1.6-3-3.8-5.7-7.5-3.7c-4,2.1-2.7,5.5-1,8.6c9.4,17.6,16.6,36,21.2,55.4
		C1903.3,919.3,1903.6,921.1,1904,923.6z"/>
	<path class="st0" d="M1128.6,1033.1c0-2.7,0-5.1,0-8.1c1.9-0.1,3.7-0.3,5.5-0.3c98.1,0,196.3,0,294.4,0.1c2.7,0,5.5,1.1,8.2,1.4
		c3.6,0.3,7.2,0.5,10.8,0.3c3.7-0.3,7.4-1.7,11.2-1.7c188.6-0.1,377.3-0.1,565.9-0.1c2.5,0,4.9,0,8.3,0c-3,7.4-5.5,14-8.3,20.5
		c-0.4,0.9-2,1.6-3.1,1.9c-1.4,0.3-3,0.1-4.5,0.1c-290.3,0-580.5,0-870.8,0c-1.5,0-3-0.1-4.5,0c-3.1,0.3-4-1.3-4.3-4.1
		C1136.4,1034.8,1136.4,1034.8,1128.6,1033.1z"/>
	<path class="st20" d="M648.5,598.7c3.1,6.6,5.1,13.1,8.8,18.4c5.9,8.5,14.7,13,25.2,13c3.9,0,6,1.6,7.9,4.7
		c11.3,18.7,17.9,39,21.7,60.3c3.2,17.9,6.1,35.8,9.1,53.7c0.1,0.5-0.1,0.9-0.3,2.1c-34.1-7.3-68.3-7.4-103.6-0.5
		c0.6-8.5,1.1-16.1,1.7-23.6c0.7-9.1,1.6-18.2,2.4-27.4c0.3-3.5-0.5-6.7-4.5-7c-4-0.3-5.2,2.6-5.5,6.2c-1.5,18.3-3.3,36.5-4.7,54.7
		c-0.6,8.1,1.3,9.6,9.1,7.9c33.8-7.3,67.7-7.9,101.6-0.5c7.8,1.7,7.7,1.8,8.7,10.6c-54.4,0-108.7,0-163.8,0
		c0.8-6.7,1.3-13.2,2.3-19.5c3.9-26.8,6.5-54,12.4-80.4c8.2-36.5,31.5-60.5,67.4-71.8C646,599.2,647.8,598.9,648.5,598.7z"/>
	<path class="st0" d="M947.2,1025.1c-4.4,7.3-8.4,13.9-12.6,20.5c-0.5,0.8-1.9,1.3-2.9,1.5c-1.3,0.3-2.7,0.1-4,0.1
		c-269.6,0-539.2,0-808.8,0.1c-5.9,0-9.1-1.5-10.7-7.3c-1.4-4.9-3.7-9.6-5.8-14.9C384,1025.1,665.1,1025.1,947.2,1025.1z"/>
	<path class="st0" d="M1056,937.4c-6.2,0-12.4,0.4-18.5-0.1c-7.9-0.6-15.9-1.3-23.6-3.2c-22.3-5.6-35.7-27.4-32.1-50.1
		c2.5-15.9,4.5-31.9,6.5-47.9c1.6-12.5,9.7-20.1,22.4-20.2c30.2-0.1,60.3-0.1,90.5,0c11.7,0,19.9,6.6,21.7,18
		c2.9,18.1,5.8,36.1,7.6,54.3c2.5,25.3-15.5,45.4-41.7,47.7c-10.9,0.9-21.8,1.5-32.7,2.2C1056,937.8,1056,937.6,1056,937.4z
		 M1021.5,850.1c7.5,0,14.2-5.7,14.4-12.9c0.1-1.9-2.1-3.9-3.3-5.9c-1.9,1.2-4.7,2.1-5.4,3.8c-1.1,3-1.9,5.8-5.6,6
		c-4,0.1-4.8-2.8-6.1-6c-0.7-1.7-3.5-2.5-5.4-3.8c-1.1,2-3.3,4-3.2,5.9C1007.4,844.6,1013.9,850.1,1021.5,850.1z M1087.9,850.1
		c7.5,0.3,14.1-4.8,15-12.3c0.2-2-1.4-5.3-3.1-6.2c-2.9-1.5-5,0.9-5.6,3.8c-0.7,3.3-2.1,5.7-5.7,5.7c-3.7-0.1-4.5-2.8-5.7-5.8
		c-0.7-1.7-3.5-2.7-5.3-3.9c-1.2,2.1-3.4,4.3-3.3,6.3C1074.7,844.6,1080.8,849.9,1087.9,850.1z M1056.1,862.1
		c3.6,0,7.4,0.5,10.9-0.2c1.9-0.4,3.5-2.6,5.2-4c-1.8-1.6-3.4-4.4-5.3-4.5c-7.4-0.5-14.9-0.5-22.4,0c-1.8,0.1-4.4,2.4-4.8,4.1
		c-0.8,3.3,1.9,4.5,4.9,4.6C1048.5,862.1,1052.3,862.1,1056.1,862.1z"/>
	<path class="st21" d="M970.3,997.1c-2.5,5.3-4.6,10-7,14.5c-0.4,0.8-2.2,1.3-3.4,1.3c-3.5,0.2-7,0-10.5,0c-299.2,0-598.3,0-897.5,0
		c-1.8,0-3.7-0.1-5.5,0c-2.8,0.1-3.8-1.2-3.8-3.9c0.2-14.6-1.9-11.9,11.1-11.9c260.7,0,521.3,0,782,0c42.8,0,85.7-0.1,128.5-0.1
		C966,997.1,967.6,997.1,970.3,997.1z"/>
	<path class="st22" d="M1809.9,605.8c14.7,14.2,33.1,16.9,53.6,15.6c-0.5,7.8-0.9,15.5-1.5,23.2c-1.1,14.1-2.7,28.2-3.5,42.3
		c-0.9,17.1,3.8,32.9,12.5,47.6c0.9,1.6,1.9,3.1,3,5c-11.7,7.7-24.2,12.4-37.6,14.5c-55.7,8.9-106.5-26.5-117.7-81.8
		c-1-4.9-1.4-9.9-1.6-14.9c-0.1-1.1,1.5-3.1,2.4-3.3c35.9-4.4,65-21.4,89.3-47.6C1808.9,606.2,1809.3,606.1,1809.9,605.8z
		 M1810.1,714.9c3.7,0,8.6-4.1,9.1-10.8c0.3-2.9-0.5-5.9-0.6-8.9c-0.1-1.4,0.3-2.8,0.3-4.2c0-2.1,0.6-5.4-0.4-6.1
		c-1.6-1-4.9-1-6.5,0c-10.7,6.6-21.8,9.7-34.1,6c-3-0.9-5.5-0.2-6.4,2.9c-1,3.2,0.9,5.2,3.9,5.9c4.4,0.9,8.8,1.8,13.2,2
		c3.4,0.1,5.3,0.8,6.7,4.2C1797.4,711,1800.9,715,1810.1,714.9z M1842.5,633.8c1.1-1,3.8-2.4,3.9-3.8c0-1.9-1.8-5-3.5-5.5
		c-11.9-3.4-23.7-2.7-35,2.7c-1.6,0.8-2,3.9-3,5.9c2.1,0.9,4.7,3.1,6.1,2.5C1821,631.4,1831,630.7,1842.5,633.8z M1741.6,678
		c5.7,0,10.2-4.3,10.4-9.8c0.2-5.6-4.6-10.6-10.3-10.6c-5.7,0-10.5,4.8-10.4,10.5C1731.4,673.6,1735.9,678,1741.6,678z M1839,661.9
		c0-5.9-4.5-10.2-10.6-10.1c-5.6,0.1-10.1,4.7-10.1,10.2c0.1,5.7,4.8,10.2,10.7,10.1C1834.8,672,1839.1,667.6,1839,661.9z"/>
	<path class="st2" d="M1809.2,605.8c14.7,14.2,33.1,16.9,53.6,15.6c-0.5,7.8-0.9,15.5-1.5,23.2c-1.1,14.1-2.7,28.2-3.5,42.3
		c-0.9,17.1,3.8,32.9,12.5,47.6c0.9,1.6,1.9,3.1,3,5c-11.7,7.7-24.2,12.4-37.6,14.5c-55.7,8.9-106.5-26.5-117.7-81.8
		c-1-4.9-1.4-9.9-1.6-14.9c-0.1-1.1,1.5-3.1,2.4-3.3c35.9-4.4,65-21.4,89.3-47.6C1808.2,606.2,1808.6,606.1,1809.2,605.8z
		 M1809.4,714.9c3.7,0,8.6-4.1,9.1-10.8c0.3-2.9-0.5-5.9-0.6-8.9c-0.1-1.4,0.3-2.8,0.3-4.2c0-0.4,0.1-1,0.1-2
		c0.1-3.2-0.2-3.8-0.5-4.1c-0.3-0.3-0.8-0.4-1.7-0.6c-0.7-0.1-2.7-0.4-4.8,0.6c-0.5,0.2-0.8,0.5-0.9,0.5c-2.1,1.5-12.5,7.1-22.9,7
		c-2.4,0-3.9,0-6-0.5c-1.5-0.4-2.9-0.6-4.4-1c-0.8-0.2-1.9-0.5-3.1-0.3c-0.3,0.1-0.9,0.2-1.5,0.6c-1.3,0.8-1.6,2.1-1.8,2.6
		c-1,3.2,0.9,5.2,3.9,5.9c4.4,0.9,8.8,1.8,13.2,2c3.4,0.1,5.3,0.8,6.7,4.2C1796.7,711,1800.2,715,1809.4,714.9z M1841.8,633.8
		c1.1-1,3.8-2.4,3.9-3.8c0-1.9-1.8-5-3.5-5.5c-11.9-3.4-23.7-2.7-35,2.7c-1.6,0.8-2,3.9-3,5.9c2.1,0.9,4.7,3.1,6.1,2.5
		C1820.3,631.4,1830.3,630.7,1841.8,633.8z M1740.9,678c5.7,0,10.2-4.3,10.4-9.8c0.2-5.6-4.6-10.6-10.3-10.6
		c-5.7,0-10.5,4.8-10.4,10.5C1730.8,673.6,1735.2,678,1740.9,678z M1838.4,661.9c0-5.9-4.5-10.2-10.6-10.1
		c-5.6,0.1-10.1,4.7-10.1,10.2c0.1,5.7,4.8,10.2,10.7,10.1C1834.1,672,1838.4,667.6,1838.4,661.9z"/>
	<path class="st20" d="M763.3,642.6c2.6,6.4,5.4,12.8,7.9,19.3c10,26.2,16.4,53.4,21.2,81c0.3,1.6,0.6,3.3,1,4.9
		c0.6,3.2,2.3,5.4,5.8,4.8c3.7-0.7,4.4-3.6,3.7-7c-1.5-7.8-2.9-15.7-4.5-23.5c-5.9-29.1-14.3-57.5-26.7-84.6
		c-0.4-0.9-0.6-2.1-1.3-2.7c-9-7.4-3.7-15.8-1.8-24.6c8.3,5.5,14.6,12.4,20.2,20c13.8,18.7,20.7,40.2,24.3,62.8
		c3.8,24.3,6.4,48.8,9.5,73.2c0.2,1.6,0.2,3.2,0.3,5.3c-2,0.1-3.6,0.3-5.2,0.3c-25.1,0-50.3-0.1-75.4,0.1c-4.1,0-6-1.2-6.7-5.2
		c-4.2-23.1-8.4-46.2-12.9-69.2c-2.1-10.8-4.9-21.4-7.5-32.1c-0.6-2.5-1.2-4.4,2-5.6c14.6-5.6,29.2-11.3,43.8-16.9
		C761.4,642.8,762.1,642.8,763.3,642.6z"/>
	<path class="st4" d="M1456.6,996.5c2.7,0.9,5.9,1.3,8.2,2.9c8,5.5,14.7,5.5,22.4-0.4c1.3-1,3.2-1.6,4.9-1.8
		c2.1-0.3,4.3-0.1,6.5-0.1c194.8,0,389.6,0,584.3,0c6.4,0,6.4,0,6.4,6.7c0,10.4,1.1,9.2-8.9,9.2c-204.3,0-408.6,0-612.8,0
		c-8.3,0-8.3,0-10.3-7.9c-0.6-2.3-1.1-4.7-1.6-7.1C1456,997.5,1456.3,997,1456.6,996.5z"/>
	<path class="st10" d="M1452.3,908.7c-3.6-5.4-7.7-8.7-13.8-9.1c-1-0.1-2.3-1.7-2.9-2.9c-2.4-4.4-5.9-7-10.8-8
		c-1.5-0.3-3.2-0.9-4.3-2c-3.9-3.6-7.5-7.4-11.9-11.9c3.6-6.4,8-14.1,12.3-21.9c5.8-10.5,11.4-21.1,17.2-31.6
		c3.1-5.7,4.1-11.4,1.9-17.7c-4.2-11.8-7.9-23.7-12.2-35.4c-1.4-3.8-0.8-5.5,3.1-7.1c13-5.2,25.8-10.8,38.7-16.2
		c1.3-0.6,2.7-1,4.7-1.7c3.4,8.8,7,17.2,9.8,25.9c3.9,11.9,7.1,23.9,10.6,35.9c3.2,11.1,1.2,21.7-2.8,32.2
		c-7.8,20.3-18.7,39-30.3,57.3C1458.5,899.1,1455.5,903.7,1452.3,908.7z"/>
	<path class="st0" d="M1611.6,807.2c8.8,41.8,17.4,82.9,26.2,124.7c-19.1,4-37.9,8-57.3,12.1c-1-4.5-2.1-8.6-2.8-12.8
		c-0.1-0.7,0.9-2,1.7-2.6c7.6-5.8,9.1-10.9,5.9-19.5c-0.5-1.3-0.1-3.4,0.7-4.7c4.4-6.8,4.2-12.4-0.7-18.8c-0.9-1.2-1.4-3.2-1.2-4.7
		c1.5-8.3-0.7-13.3-7.8-17.7c-1.1-0.7-2.3-2.3-2.4-3.6c-0.7-8.5-3.7-12.2-11.6-14.8c-1.4-0.5-3-2.1-3.4-3.4
		c-1.8-7.1-3.1-14.2-4.8-22.1C1573.3,815.3,1592,811.3,1611.6,807.2z"/>
	<path class="st4" d="M1426.2,1013c-2.8,0-4.7,0-6.7,0c-95,0-190,0-284.9,0.1c-4.8,0-6-1.5-5.9-6c0.5-11.6-1.6-10,10.2-10
		c91.8,0,183.6,0,275.5,0c8.8,0,7.3-1.2,9.8,7.6C1424.8,1007.1,1425.3,1009.5,1426.2,1013z"/>
	<path class="st2" d="M757.6,633.8c-15.9,6.2-31.4,12.2-47,18.3c-3.7-7-6.7-14.1-11.1-20.3c-5.5-7.8-12.1-14.9-18.5-22
		c-1.9-2.1-3.6-3.8-1.4-6.3c2.3-2.6,4.8-1.6,6.8,0.7c1.1,1.3,2.1,2.6,3.2,3.8c2.1,2.4,4.6,2.7,7,0.6c2.4-2.1,2.5-4.6,0.5-7.1
		c-1.9-2.3-4-4.5-6-6.7c-1.9-2.2-4.3-4.6-1.3-7.2c3-2.6,5.5-0.4,7.6,2.1c1.6,1.9,3.1,4.2,5.1,5.4c1.6,0.9,5.2,1.3,5.9,0.4
		c1.1-1.5,1.5-4.7,0.6-6.4c-1.4-2.7-4.4-4.6-5.9-7.3c-0.9-1.6-0.3-4-0.4-6.1c2.1,0.3,4.4,0.1,6.1,1c1.8,1,3,3.1,4.4,4.7
		c2.2,2.6,4.9,3.9,7.7,1.3c2.8-2.6,1.6-5.4-0.7-7.9c-7.4-8.1-14.8-16.2-22.2-24.4c-0.8-0.9-2-1.7-2.2-2.6c-0.3-1.6-0.5-4,0.4-4.9
		c0.9-0.9,3.4-0.9,4.9-0.5c1.3,0.4,2.3,1.9,3.3,3c10.6,11.3,21.2,22.6,32,33.7c1.5,1.5,4.9,3.2,6.2,2.6c1.8-0.9,3.1-3.9,3.6-6.3
		c0.8-3.9,0.9-7.9,1.1-11.9c0.2-2.9,1.3-5.5,4.3-4.6c1.6,0.5,3.6,3.5,3.6,5.3c-0.3,8.1-1.4,16.2-1.8,24.4c-0.1,3,0.4,6.3,1.7,8.9
		c4,7.8,5.1,15.6,0.1,23.2c-2.7,4.1,0,6.9,1.3,10.1C756.8,631.6,757,632.4,757.6,633.8z"/>
	<path class="st10" d="M1223.1,750.4c5.3,1.1,10.4,1.8,15.2,3.3c1,0.3,2.1,3.1,1.9,4.6c-1.2,14.1-2.8,28.2-4,42.3
		c-1.4,17.6-2.8,35.2-3.7,52.8c-1.9,36.6-3.5,73.2-5.1,109.8c-0.3,5.7-0.5,11.3-0.6,17c0,3.8-1.5,5.5-5.4,5.2c-3.3-0.2-6.7-0.2-10,0
		c-3.9,0.2-5.3-1.3-5.1-5.3c0.9-12.9,1.6-25.9,2.5-38.9c1.2-17.4,2.4-34.9,3.7-52.3c2.3-31.4,4.5-62.7,6.8-94.1
		c1-13.3,2.1-26.6,3.1-39.8C1222.6,753.6,1222.9,752.3,1223.1,750.4z"/>
	<path class="st0" d="M1445,931c4.8,3.3,9.9,6.5,14.7,10.1c5,3.8,5.9,10.4,1.8,15.5c-6.2,7.8-12.6,15.5-19.1,23.1
		c-4.3,4.9-11,5.3-15.5,0.8c-28.4-28.1-56.6-56.4-84.9-84.6c-0.3-0.3-0.5-0.8-1.1-1.7c5.8-7,11.7-14.2,17.8-21.6
		c2.2,1.5,4.1,2.8,6.1,3.9c4.1,2.3,6.6,4.6,5.1,10.4c-1.8,6.9,2.2,12.4,9.2,15.1c2.3,0.9,3.2,2,3.3,4.6c0.5,7.9,4.8,12,12.8,13.5
		c1.5,0.3,3.2,1.5,4,2.8c4.3,7.2,9.4,9.6,17.5,8c1.1-0.2,2.7-0.3,3.6,0.3C1431.6,939.4,1434.3,939.5,1445,931z"/>
	<path class="st12" d="M1767.7,770.9c-21-1.9-38.3-10.7-51.9-26.6c-11.5-13.5-17.4-29.4-17.8-47.1c-0.3-13-0.1-26-0.1-38.9
		c0-1,0.3-1.9,0.5-3.2c2.5,0,4.9,0,7.5,0c1.2,7.6,1.9,15,3.5,22.2c7.4,32.3,25.7,56.6,54.3,73.1c3.7,2.1,5.3,4.4,4.9,8.6
		c-0.4,3.5-0.2,7-0.2,10.5C1768.4,769.6,1768.1,769.9,1767.7,770.9z"/>
	<path class="st2" d="M1809.2,823.3c-2.4-19.9-4.7-39.3-7.1-59.6c22.5,2.9,43.5-0.2,63.7-9.2c4.9,18.5,3.5,24.4-9.6,34.3
		c-14.4,10.9-29,21.7-43.5,32.6C1811.8,822,1810.9,822.4,1809.2,823.3z"/>
	<path class="st23" d="M512.2,783.3c0,63,0.1,125.6-0.2,188.1c0,3.8-1.9,7.9-3.9,11.4c-0.9,1.6-3.9,2-5.9,2.9
		c-0.6-1.9-1.6-3.8-1.6-5.7c-0.1-52.9-0.1-105.9-0.1-158.8c0-9.3,0-18.6,0-28C500.6,785,503.8,782.3,512.2,783.3z"/>
	<path class="st10" d="M1303.2,625.5c7.3,1.1,13.4,1.9,19.4,2.8c13.3,1.9,26.6,0.9,39.7-1.7c3.9-0.8,4.9,0.3,5.1,4.1
		c0.2,4.9-1,8.8-4.5,12.6c-13.5,14.7-26.7,29.7-40.1,44.5c-0.5,0.6-1.3,1-2.5,1.9c-1.2-3.5-2.3-6.6-3.3-9.7
		c-4-11.7-8.3-23.2-11.7-35C1303.7,639,1303.9,632.4,1303.2,625.5z"/>
	<g>
		<path class="st19" d="M270.9,815c10.6,14.5,20.8,28.9,31.5,42.9c7.5,9.7,15.8,18.9,23.9,28.2c4,4.5,6.9,4.5,10.7-0.2
			c16.4-20,32.2-40.4,45.1-62.9c2.6-4.6,4.8-9.4,7.4-14.6c10.5,5.4,19.6,12.3,27.7,20.5c22.5,22.8,33.4,50.6,34.2,82.4
			c0.4,14.8,0.1,29.7,0,44.5c0,1.3-0.2,2.6-0.3,4.3c-4.7,0-9.2,0-13.6,0c-3.4,0-3.4-2.4-3.5-4.8c-0.3-12.6-0.2-25.3-1.3-37.9
			c-0.7-8.4-3.1-16.6-5-24.8c-0.7-3-3.3-4.4-6.2-3.4c-3.2,1-4.4,3.6-3.3,6.8c6.1,17.6,5.1,35.8,5.4,53.9c0,0.8,0,1.7,0,2.5
			c0,8.4-0.5,8.8-9,7.5c-1.1-4.4-1.8-8.8-3.1-13.1c-5.8-19.1-19.7-27.4-38.8-30.2c-32.1-4.7-61.3,4.1-89.7,17.7
			c-7.5,3.6-15,7.1-23.1,11c0-6.4-0.5-12.1,0.1-17.7c0.9-7.9,1-16,5.9-22.9c0.8-1.2,0.1-5.1-1-5.6c-1.9-0.9-5.2-1.1-6.7,0
			c-2.2,1.7-4.2,4.7-4.6,7.4c-2,12.5-3.8,25-4.7,37.5c-0.4,4.9-1.7,7.6-6.4,9.1c-5.4,1.7-10.6,3.9-16,5.8c-3.8,1.4-6.7,3.4-5.3,8
			c1.1,3.6,4.4,4.9,9.1,2.9c20.4-8.7,40.6-17.7,60.9-26.3c10.4-4.4,20.9-8.4,31.8-12.2c-11.1,19-9.7,36.4,4.6,53.5
			c-1.6,0.2-2.8,0.5-4,0.5c-36.3,0-72.7,0-109,0c-6.7,0-6.8,0-6.6-6.5c0.5-17.6-0.3-35.5,2-52.9c5.6-43,24-79.7,57.4-108.2
			C268.6,816.4,270.2,815.5,270.9,815z"/>
		<path class="st2" d="M385.9,961c-8.9,0-16.2,0-23.5,0c-7.3,0-8.7,1.4-8.6,8.8c0,2.6,0.1,5.3,0.6,7.9c0.4,2.4,1.4,4.7,2.3,7.4
			c-9.5,1.3-16.9-2.3-22.9-8.8c-8.7-9.4-11-20.5-5.8-32.4c5-11.5,14.2-18.1,26.9-18c9.1,0.1,18.3,1,27.1,3
			c13.5,3,18.5,14.1,21.5,26.2c0.4,1.5-1.3,4.5-2.9,5.3c-2.6,1.4-5.2,0.4-6.4-2.8c-1.2-3.3-2.2-6.6-3.6-9.8c-0.9-2.1-2.3-4-3.9-5.8
			c-1.9-2.2-4.7-2.7-6.4-0.3c-1,1.4-1.1,4.3-0.5,6.1C381.3,952,383.4,955.8,385.9,961z"/>
		<path class="st2" d="M297.1,776.8c20.4,10.7,42.1,14.1,64.6,11.9c2.9,11.3-3,24.7-13.6,31.9c-11.5,7.8-27.7,7.7-39-0.6
			C295.9,810.3,292.8,797.1,297.1,776.8z"/>
	</g>
	<path class="st0" d="M331.3,877.4c-8.2-9.8-16.3-18.7-23.4-28.2c-8.9-11.8-17.3-24-25.4-36.4c-4-6.1-3.3-7,4.3-9.3
		c7.1,20.7,21.4,32.4,43.5,31.7c22.3-0.6,35.6-13.6,41.2-34.9c0.9,0.2,1.5,0.3,2.1,0.4c7.1,2.1,7.3,2.3,4,9.2
		c-9.8,20.4-23.5,38.2-37.2,56C337.8,869.5,334.9,873,331.3,877.4z"/>
	<path class="st0" d="M989.5,1033c3.1-8.4,3.1-8.4,11.2-8.4c29.2,0,58.3,0,87.5,0c2.2,0,4.3,0,6.3,0c2.2,6.7,1.6,7.3-3.8,9.6
		c-1.9,0.8-3.7,4.2-3.8,6.5c-0.3,4.8-1.8,6.5-6.9,6.4c-26.7-0.3-53.3-0.1-80-0.1c-1.8,0-3.6,0-6.1,0
		C995.7,1041,998.2,1035,989.5,1033z"/>
	<path class="st7" d="M428.5,823.8c-9.2-7.1-17.5-14.3-26.7-20.1c-9.1-5.8-19.1-10.1-30.3-15.9c23.7-6.1,43.2-17.2,59.5-35.4
		C436.6,777,435.2,800.4,428.5,823.8z"/>
	<path class="st24" d="M489.4,972.1c0,4.5,0,8.8,0,13.5c-1.9,0.1-3.5,0.4-5.1,0.4c-35.1,0-70.3,0-105.4,0c-8.3,0-14.1-5.6-14.1-13.8
		C406.2,972.1,447.5,972.1,489.4,972.1z"/>
	<path class="st2" d="M1823.6,985.6c-11.1,0-21.6,0-32.5,0c0.8-4.8,4-6.8,7.6-8.1c3.4-1.2,6-3.1,4.4-6.9c-1.7-3.9-5.1-2.9-8.1-1.7
		c-5.3,2.1-9.4,5.5-12,10.7c-3.6,7.2-3.7,7.2-12.5,5.7c0.8-6.8,4-12,9.4-16c0.9-0.7,2.4-0.9,2.9-1.8c1.1-1.9,2.8-4.4,2.3-6.2
		c-0.8-3.1-3.8-3.3-6.6-2c-8.6,4.1-13.9,11.1-16.6,20.2c-2.2,7.2-2.2,7.2-10.8,5.8c0.6-3.1,0.9-6.4,1.9-9.4
		c5.8-17.6,19.6-25.6,36.3-29.9c0.8-0.2,1.7-0.1,2.5,0.1c13.9,2.9,28.7,18,31.3,32C1823.7,980.4,1823.5,982.8,1823.6,985.6z"/>
	<path class="st0" d="M979.3,922.5c1,0.9,1.7,1.3,2.2,1.9c9.1,11.9,21.1,18.9,35.9,21.6c1.3,0.2,3.1,2.5,3.1,3.8
		c0.1,13.8,1.8,10.9-10.6,11.3c-5.1,0.2-10.3,0.4-15.3,1.2c-5.8,0.9-9.9,4.5-12.2,9.9c-0.7,1.5-1.4,3-2.1,4.5
		c-4.8,10.7-5,10.8-16.2,9C969.1,964.9,974.2,943.9,979.3,922.5z"/>
	<path class="st4" d="M998.9,1012.7c2.5-5.2,4.4-9.7,6.8-14c0.6-1,2.8-1.6,4.3-1.6c27-0.1,53.9,0,80.9-0.1c2.9,0,4.3,0.8,4.3,3.9
		c-0.1,14.8,1.4,11.8-11.2,11.9c-26.5,0.2-52.9,0.1-79.4,0C1003,1013,1001.4,1012.8,998.9,1012.7z"/>
	<path class="st6" d="M1656.6,927.8c-3.3,0.7-6.2,1.3-9.8,2c-8.7-41.5-17.3-82.7-26-124c1.3-0.5,2.1-0.8,2.8-1
		c7.3-1.6,7.3-1.6,8.8,5.8c8,38,15.9,76.1,23.9,114.1C1656.5,925.5,1656.5,926.4,1656.6,927.8z"/>
	<path class="st25" d="M969.7,1023.5c0.7-1.8,1.2-3.3,1.9-4.8c6.3-13.8,12.4-27.6,19-41.2c1.1-2.4,3.7-4.9,6.1-5.5
		c4.5-1.2,7.8,3.2,6,7.9c-2.3,5.9-5,11.6-7.7,17.3c-4.1,8.9-8.3,17.7-12.2,26.8c-1.6,3.9-3.6,4.7-7.1,2.6
		C973.9,1025.4,971.9,1024.6,969.7,1023.5z"/>
	<path class="st25" d="M1106.5,1004.5c0-7.6,0-15.3,0-22.9c0-1.6-0.2-3.7,0.6-4.8c1.3-1.9,3.5-4.4,5.2-4.3c1.6,0,3.2,3,4.7,4.8
		c0.3,0.3,0.3,1,0.3,1.4c0,17.1,0.1,34.2,0,51.4c0,4.8-3.8,3.1-6.2,3.4c-2.8,0.3-4.8-0.2-4.8-3.9
		C1106.6,1021.1,1106.5,1012.8,1106.5,1004.5z"/>
	<path class="st0" d="M1376.9,677.7c-14.3,4.3-27.9,8.5-41.5,12.6c-0.3-0.3-0.6-0.7-0.8-1c11.6-12.9,23.3-25.8,35.8-39.8
		C1372.7,659.4,1374.7,668.2,1376.9,677.7z"/>
	<path class="st0" d="M1278.1,675.1c6.2-8.5,11.9-16.4,18.4-25.4c4.7,14,9.1,26.9,13.5,39.8c-0.3,0.3-0.7,0.6-1,0.9
		C1299,685.4,1289,680.5,1278.1,675.1z"/>
	<path class="st25" d="M1153.9,1113.7c-18,0-35,0-53.6,0c8.7-6.2,16.4-11.6,25.9-12.8c5.6-0.7,11.6-0.5,17.1,0.8
		C1148.6,1102.9,1151.8,1107.5,1153.9,1113.7z"/>
	<path class="st25" d="M903.4,1081.9c7-7.2,14.7-8.8,22.7-5.2c12,5.3,19.3,15.2,26.3,27.6C935.4,1096.5,919.6,1089.3,903.4,1081.9z"
		/>
	<path class="st26" d="M545.4,471.1c7,13.4,13.7,26.2,20.4,39c-5.2,2.3-14.2-1.5-19.4-7.8C539,493.1,538.3,480.7,545.4,471.1z"/>
	<path class="st0" d="M1055.6,777.5c-6.5-0.1-11.5-5.2-11.4-11.9c0-6.4,5.3-11.7,11.7-11.8c6.4,0,12,5.8,11.8,12.2
		C1067.4,772.5,1062.1,777.6,1055.6,777.5z"/>
	<path class="st25" d="M976.1,844.9c-1.9,14.1-3.7,27.7-5.6,41.9c-5.4-2.6-7.9-6.5-8.2-11.6c-0.3-6-0.3-12,0.1-17.9
		C962.8,850.1,968.3,845.2,976.1,844.9z"/>
	<path class="st27" d="M792.5,476.8c2.7-14.7,5.3-28.6,7.9-42.6c6.6,4.3,10.3,13.9,8.6,22.5C807.2,466.1,802.1,472.9,792.5,476.8z"
		/>
	<path class="st28" d="M676.4,618.7c-12.2-2.2-18.7-15.7-16.6-33.8c6.4,0,12.7,0,19.3,0c0.3,4.5,0,7.6-4.2,10.3
		c-7.4,4.6-7.8,14.6-1.5,20.6C674.3,616.7,675.2,617.5,676.4,618.7z"/>
	<path class="st25" d="M1141.2,885.5c-1.9-13.2-3.7-26.5-5.5-39.7c5.6-1.2,12,3.4,12.6,9.8c0.7,7.2,0.6,14.6-0.1,21.9
		c-0.3,3-3.2,5.8-4.9,8.6C1142.6,885.9,1141.9,885.7,1141.2,885.5z"/>
	<path class="st0" d="M1572.4,759.3c-0.1,5.7-5,10.4-10.8,10.3c-5.7-0.1-10.5-5.1-10.2-10.8c0.2-5.4,5-10,10.5-10
		C1567.6,748.8,1572.5,753.8,1572.4,759.3z"/>
	<path class="st0" d="M1455.1,978.6c2.8-3.3,5.2-6.2,8-9.6c5.9,4.9,11.8,9.2,16.9,14.4c1.4,1.5,1.5,5.8,0.4,7.9
		c-1.6,3.1-5.2,3.5-8.2,1.2C1466.6,988.2,1461.2,983.6,1455.1,978.6z"/>
	<path class="st0" d="M919.8,986.5c-3.3,0-6.8,0.6-9.9-0.2c-2-0.5-3.5-3.1-5.3-4.8c1.7-1.7,3.2-4.8,5-5c6.9-0.6,13.9-0.6,20.8,0
		c1.8,0.2,4.5,2.9,4.9,4.8c0.7,3.3-2,5-5.2,5.1C926.7,986.7,923.2,986.6,919.8,986.5C919.8,986.5,919.8,986.5,919.8,986.5z"/>
	<path class="st0" d="M1472.9,943.1c7.1,0.6,14,1,20.8,1.6c3.6,0.3,5.4,2.7,5.4,6c0,3.6-2.3,6.2-5.9,6.2c-6.7,0-13.5-0.8-20.4-1.2
		C1472.9,951.4,1472.9,947.7,1472.9,943.1z"/>
	<path class="st0" d="M1431.2,993.2c4.3-0.8,8.1-1.4,12.3-2.1c1.7,6.5,3.6,13,5.1,19.5c0.8,3.6-1,6.3-4.5,7.3
		c-3.6,1-6.4-0.7-7.4-4.2C1434.6,1007,1433,1000.2,1431.2,993.2z"/>
	<path class="st2" d="M1553.2,885.6c-1.2-1.2-3.8-2.7-4-4.4c-0.2-1.7,1.7-4.8,3.3-5.4c5.4-1.9,11.1-3.3,16.8-4
		c1.8-0.2,4.9,1.9,5.7,3.7c0.5,1.2-1.6,4.9-3.3,5.4C1566.2,882.9,1560.2,883.9,1553.2,885.6z"/>
	<path class="st2" d="M1575.4,890.2c1.2,1.1,3.9,2.5,3.9,4c0.1,1.9-1.5,5.2-3.1,5.7c-5.6,1.9-11.5,3.2-17.4,4
		c-1.7,0.2-4.8-2.1-5.2-3.8c-0.4-1.5,1.7-4.8,3.3-5.3C1562.6,892.9,1568.5,891.8,1575.4,890.2z"/>
	<path class="st10" d="M1207,520.7c-11.6-8.3-12.9-28.1-2-38.2C1205.7,495.2,1206.4,508,1207,520.7z"/>
	<path class="st10" d="M1406.2,887.4c3.5,0,5.9,3.7,4.2,6.4c-3.2,5.2-6.7,10.2-10.6,14.9c-0.9,1.1-4.3,1.5-5.6,0.7
		c-1.2-0.8-2.3-4.2-1.6-5.3c3.8-5.6,8.1-10.8,12.3-16.1C1405.2,887.6,1406,887.5,1406.2,887.4z"/>
	<path class="st10" d="M1427.2,902.7c-0.7,1.7-1,2.9-1.7,3.8c-3,4.4-6.1,8.8-9.2,13.1c-1.7,2.3-3.9,3.2-6.5,1.3
		c-2.4-1.8-2.7-4-0.9-6.5c3.2-4.5,6.2-9.1,9.6-13.4c1-1.2,3.5-2,5.1-1.7C1425,899.5,1426.1,901.5,1427.2,902.7z"/>
	<path class="st2" d="M1548.8,866.6c-1.2-1.3-3.9-2.8-4-4.5c-0.1-1.8,1.7-4.8,3.4-5.6c3.2-1.5,7-2.4,10.6-2.4c1.9,0,5,2,5.4,3.6
		c0.4,1.6-1.4,4.9-3.1,5.7C1557.6,865,1553.7,865.4,1548.8,866.6z"/>
	<path class="st2" d="M1561.7,923.8c-1.3-1.5-3.7-3-4-4.8c-0.2-1.6,1.6-4.4,3.2-5.1c3.4-1.5,7.3-2.5,11-2.7c1.7-0.1,4.6,1.8,5.1,3.3
		c0.5,1.6-0.9,4.9-2.3,5.6C1571.1,921.8,1566.9,922.4,1561.7,923.8z"/>
	<path class="st10" d="M1443.5,915.3c-3.3,4.1-6.3,8.1-9.7,11.7c-0.6,0.6-3.4,0.2-4.3-0.7c-1-1.1-1.9-3.6-1.3-4.7
		c2-3.7,4.5-7.3,7.3-10.5c0.8-0.9,3.5-0.9,4.9-0.4C1441.6,911.2,1442.1,913.2,1443.5,915.3z"/>
	<path class="st10" d="M1395.5,880.1c0.1,4.3-8.6,13.3-12,12.8c-1.3-0.2-3.1-1.2-3.5-2.2c-0.5-1.5-0.4-3.9,0.5-5
		c2.2-2.9,4.9-5.5,7.7-7.7c1.2-0.9,3.5-0.9,5.1-0.5C1394.4,877.8,1395.1,879.5,1395.5,880.1z"/>
	<path class="st0" d="M895.5,976.5c0,3.3,0,6,0,10.3c-4.1-0.9-7.8-1.5-11.2-2.8c-0.6-0.2-0.8-4.1,0.2-5.2
		C887.3,974.9,891.5,976.3,895.5,976.5z"/>
	<path class="st29" d="M281.7,793.6c0.5-8.4,0.9-15.9,1.3-23.6C287.4,772.1,286.9,790,281.7,793.6z"/>
	<path class="st30" d="M1630.3,750.6c0-7.1-0.1-14.3,0.2-21.4c0-1,2.7-2.9,3.4-2.6c10,4.4,15.7,0.5,18.8-9.2
		c0.1-0.4,0.7-0.6,1.5-1.4c-0.7,8.1-1.1,15.7-2.2,23.1c-0.2,1.4-2.7,2.5-4.1,3.6c-0.2,0.2-0.7,0-1,0
		C1639.8,742,1632.7,741.2,1630.3,750.6z"/>
	<path class="st14" d="M683.8,862.1c11.1,0,20.2,8.8,20.2,19.7c0,11-9,20-20,20c-11.1,0-20-8.7-20.2-19.8
		C663.6,871.2,672.7,862.1,683.8,862.1z M683.9,871.9c-5.6,0-10.3,4.6-10.3,10.1c0,5.4,4.8,10,10.4,10c5.5,0.1,10.2-4.6,10.2-10.1
		C694.2,876.4,689.6,871.9,683.9,871.9z"/>
	<path class="st14" d="M1802.5,506.1c15.2,0,28.8,4.4,40.6,14.2c2.6,2.2,4.9,4.6,2.1,7.9c-2.7,3.2-5.4,1.4-7.8-0.6
		c-10.5-9-23-12.3-36.6-12.4c-1.7,0-3.6,0.4-4.9-0.2c-1.8-0.9-3.1-2.7-4.6-4.2c1.6-1.6,2.9-3.7,4.8-4.5
		C1797.9,505.5,1800.3,506.1,1802.5,506.1z"/>
	<path class="st17" d="M1288.5,496.8c0,5.5-3.9,7.5-8.3,5.1c-8.4-4.5-17.2-6.1-26.5-4.7c-4.1,0.6-8,2-12,3.3
		c-3.4,1.2-6.1,0.7-7.4-2.7c-1.2-3.3,0.6-5.4,3.6-6.7c16-6.8,31.7-6.4,47,2C1286.6,494,1287.7,495.9,1288.5,496.8z"/>
	<path class="st17" d="M1370.6,487.7c9.2,1.1,17.7,3,25.6,7.4c3.1,1.7,5.1,4.1,3.1,7.7c-1.9,3.4-4.9,2.8-7.8,1.3
		c-12.3-6.3-24.8-6.9-37.6-1.7c-3.3,1.3-6.5,1.6-8-2.1c-1.7-4.1,1.1-6.3,4.6-7.3C1357.2,491,1363.9,489.4,1370.6,487.7z"/>
	<path class="st17" d="M1316.3,564.3c-5.7-1.9-11.7-3.6-17.4-5.8c-2.9-1.1-4.3-3.9-2.6-7c1.7-3.1,4.5-3.3,7.3-1.8
		c9.1,5,18.3,3.7,27.5,0.6c0.8-0.3,1.6-0.6,2.4-0.8c3.2-1.1,6.1-0.9,7.4,2.7c1.4,3.7-0.9,5.9-4,6.8
		C1330.4,560.9,1323.8,562.4,1316.3,564.3z"/>
	<path class="st17" d="M1371,532.1c-6.4,0.1-11.5-4.7-11.7-11.1c-0.2-6.6,4.9-11.9,11.4-12c6.3-0.1,11.8,5.4,11.8,11.7
		C1382.4,527.1,1377.4,532,1371,532.1z"/>
	<path class="st17" d="M1248.3,520.6c0.1-6.4,5.6-11.8,11.9-11.5c6.2,0.2,11.3,5.5,11.3,11.7c0,6.4-5.4,11.6-11.9,11.4
		C1253.2,532,1248.3,526.9,1248.3,520.6z"/>
	<circle class="st31" cx="727" cy="505.5" r="14.5"/>
	<path class="st14" d="M720.2,495.8c0.8,0.7,3.5,2.1,4,4c0.9,3.3-1.5,5-4.8,5.4c-8.7,0.9-16.2,4.3-22.3,10.8
		c-1.1,1.2-4.8,1.4-6.4,0.5c-2.8-1.6-2.2-4.5-0.1-6.8C697.9,501.2,707.3,496.7,720.2,495.8z"/>
	<path class="st14" d="M630.5,500c-5.8,0-10.1-4.3-10-10.1c0.1-5.5,4.3-9.7,9.8-9.8c5.6-0.1,10.1,4.5,10,10.1
		C640.3,495.7,636,499.9,630.5,500z"/>
	<path class="st14" d="M723.8,466.1c5.5,0.1,9.6,4.3,9.6,9.9c0,5.7-4.4,10.1-10.1,9.9c-5.5-0.1-9.7-4.5-9.7-9.9
		C713.6,470.3,718,466,723.8,466.1z"/>
	<path class="st14" d="M338,722.8c16.7,1.1,33,2.2,49.4,3.3c0.1,13-12.6,24.3-25.7,23.6C347.4,748.9,336.2,736.6,338,722.8z"/>
	<path class="st14" d="M317.7,675.1c9.5,0,16.9,7.3,16.4,15.6c-0.1,2.1-2.2,5.1-4.1,5.7c-3,0.9-4.7-1.7-5.1-4.7
		c-0.4-3.6-1.5-6.7-5.6-7c-4.3-0.3-5.8,2.7-7.2,6.2c-0.7,1.6-3.4,3.5-5.1,3.5c-3.1-0.1-6.9-0.8-8.9-2.9c-2.1-2.2-0.6-5.1,2.8-6.5
		c1.9-0.8,3.9-2.1,5.3-3.6C309.7,677.6,313.7,675.3,317.7,675.1z"/>
	<path class="st14" d="M413.5,681.3c5.4,0.5,9.9,2.9,13.1,8c1.1,1.8,2.9,3.3,4.7,4.5c2.9,2,4.2,4.9,1.5,6.9
		c-2.1,1.6-5.9,1.7-8.7,1.3c-1.7-0.2-3.8-2.5-4.3-4.2c-1.1-3.6-2.3-6.8-6.6-6.9c-4.1-0.1-5.8,2.8-6.6,6.3c-0.7,3.1-2.7,5.1-5.6,4
		c-1.6-0.7-3.3-3.7-3.3-5.6C397.7,688,405.3,681.3,413.5,681.3z"/>
	<path class="st14" d="M409.4,657.6c8.4,0.1,16.1,2.2,23.4,6.3c3,1.7,4.9,4,2.9,7.3c-1.8,3.1-4.7,2.5-7.4,0.9
		c-8.3-4.7-17-6.4-26.4-4.4c-3,0.6-6.4,1.1-7.3-3c-1-4.3,2.1-5.5,5.5-6.1C403.1,658.1,406.3,657.9,409.4,657.6z"/>
	<path class="st14" d="M1021.5,850.1c-7.6,0-14.1-5.5-14.4-12.9c-0.1-1.9,2.1-3.9,3.2-5.9c1.9,1.2,4.7,2.1,5.4,3.8
		c1.2,3.1,2.1,6.1,6.1,6c3.7-0.1,4.4-3,5.6-6c0.6-1.7,3.5-2.6,5.4-3.8c1.1,2,3.3,4,3.3,5.9C1035.7,844.5,1028.9,850.1,1021.5,850.1z
		"/>
	<path class="st14" d="M1087.9,850.1c-7.1-0.3-13.2-5.5-13.7-12.6c-0.1-2,2.1-4.2,3.3-6.3c1.8,1.3,4.6,2.2,5.3,3.9
		c1.1,3,2,5.8,5.7,5.8c3.6,0.1,5-2.4,5.7-5.7c0.6-2.9,2.8-5.3,5.6-3.8c1.7,0.9,3.4,4.2,3.1,6.2
		C1102,845.3,1095.4,850.4,1087.9,850.1z"/>
	<path class="st14" d="M1056.1,862.1c-3.8,0-7.6,0-11.4,0c-3,0-5.7-1.3-4.9-4.6c0.4-1.7,3.1-4,4.8-4.1c7.4-0.5,14.9-0.5,22.4,0
		c1.9,0.1,3.5,2.9,5.3,4.5c-1.7,1.4-3.3,3.7-5.2,4C1063.5,862.6,1059.7,862.1,1056.1,862.1z"/>
	<path class="st32" d="M1809.4,714.9c-9.2,0.1-12.7-3.9-14.8-8.9c-1.4-3.4-3.4-4.1-6.7-4.2c-4.4-0.2-8.9-1.1-13.2-2
		c-2.9-0.6-4.8-2.7-3.9-5.9c0.9-3.1,3.4-3.8,6.4-2.9c12.4,3.7,23.5,0.6,34.1-6c1.6-1,4.9-1,6.5,0c1,0.6,0.4,3.9,0.4,6.1
		c0,1.4-0.4,2.8-0.3,4.2c0.1,3,0.9,6,0.6,8.9C1818,710.8,1813.1,714.9,1809.4,714.9z M1808.9,699.1c-0.6-0.2-1.1-0.5-1.7-0.7
		c-1.3,0.7-2.7,1.4-5.6,2.8c2.8,1.5,4.4,2.3,6,3.1C1808.1,702.6,1808.5,700.9,1808.9,699.1z"/>
	<path class="st14" d="M1841.8,633.8c-11.5-3.1-21.5-2.3-31.5,1.7c-1.5,0.6-4-1.6-6.1-2.5c1-2,1.4-5.1,3-5.9
		c11.2-5.4,23.1-6.1,35-2.7c1.6,0.5,3.5,3.6,3.5,5.5C1845.7,631.4,1842.9,632.8,1841.8,633.8z"/>
	<path class="st14" d="M1740.9,678c-5.7,0-10.2-4.4-10.3-10c-0.1-5.7,4.7-10.5,10.4-10.5c5.6,0,10.5,5,10.3,10.6
		C1751.2,673.8,1746.6,678.1,1740.9,678z"/>
	<path class="st14" d="M1838.4,661.9c0,5.7-4.2,10.1-9.9,10.2c-5.9,0.1-10.6-4.3-10.7-10.1c-0.1-5.5,4.5-10.1,10.1-10.2
		C1833.8,651.7,1838.3,656,1838.4,661.9z"/>
	<path class="st33" d="M683.9,871.9c5.7,0,10.3,4.5,10.3,10c0,5.5-4.7,10.2-10.2,10.1c-5.6-0.1-10.4-4.7-10.4-10
		C673.7,876.5,678.4,871.9,683.9,871.9z"/>
	<path class="st14" d="M1771.9,691.9c1.4-1.4,2.7-1.8,7.2-0.7c0,0,3.2,1.5,10.1,1.3c6.6-0.2,12.3-1.9,21.4-7.1
		c3.4-1.9,6.4-1.6,7.1-0.6c1.6,2.3,0.3,5,0.2,10.9c0,3.6,1.6,5,0.2,11.2c-0.2,0.8-1.3,4.8-5.1,6.9c-4.8,2.7-10.8,1.1-14.5-2.1
		c-3.8-3.2-3.1-6.7-6.7-9.2c-2-1.4-2.8-0.3-10.8-1.6c-10.6-1.7-10.4-3.5-10.5-4.6C1770.5,694.9,1771,692.8,1771.9,691.9z"/>
	<path class="st34" d="M1808.9,699.1c-0.4,1.7-0.9,3.5-1.3,5.2c-1.6-0.8-3.1-1.6-6-3.1c2.9-1.5,4.3-2.2,5.6-2.8
		C1807.8,698.7,1808.4,698.9,1808.9,699.1z"/>
</g>
<circle class="st31" cx="308" cy="722.5" r="14.5"/>
<circle class="st31" cx="410" cy="726.5" r="14.5"/>
<circle class="st31" cx="630" cy="522.5" r="14.5"/>
<circle class="st31" cx="1747.3" cy="696.4" r="14.5"/>
<circle class="st31" cx="1840.3" cy="689.4" r="14.5"/>
<g>
	<polygon class="st35" points="942.2,1025.1 102.4,1025.1 107.2,1036.8 939.8,1036.9 947.2,1025.1 	"/>
</g>
<g>
	<path class="st35" d="M2032.8,1024.7l-900.1,0l-4.2,0.3v8.1c0,0,3.1,0.6,4,1c1,0.5,3.6,2.6,3.6,2.6l892.3,0.3L2032.8,1024.7z"/>
	<path class="st35" d="M995.2,1024.9c0,0-2.3-0.4-3.6,1.1c-1.5,1.7-3.5,7.2-3.4,7l6,3.7l3.7,0l90.3,0.2c0,0,2.4-2.7,5.1-3.7
		c4.5-1.6,1-8.5,1-8.5L995.2,1024.9z"/>
</g>
</svg>
