<svg xmlns="http://www.w3.org/2000/svg" xmlns:xlink="http://www.w3.org/1999/xlink" viewBox="0 0 424.87 422.52"><defs><style>.cls-1{fill:none;}.cls-2{isolation:isolate;}.cls-3{clip-path:url(#clip-path);}.cls-4{fill:#e8f1fa;}.cls-5{fill:#e5eefe;}.cls-6{clip-path:url(#clip-path-3);}.cls-7{fill:#fec02a;}.cls-8{fill:#31c9ac;}.cls-9{fill:#ffd23c;}.cls-10{fill:#19d2c0;}.cls-11{fill:#e9007f;}.cls-12{fill:#4c59e0;}.cls-13{fill:#fff;}.cls-14{fill:#627af4;}.cls-15{fill:#c4d3d7;}.cls-16{fill:#e1e0fe;mix-blend-mode:multiply;}</style><clipPath id="clip-path" transform="translate(-10.41 -26.81)"><rect class="cls-1" x="9.5" y="36" width="425.9" height="413.4"/></clipPath><clipPath id="clip-path-3" transform="translate(-10.41 -26.81)"><rect class="cls-1" x="9.5" y="7.8" width="425.9" height="441.6"/></clipPath></defs><title>icon-real-project</title><g class="cls-2"><g id="Слой_1" data-name="Слой 1"><g class="cls-3"><path class="cls-4" d="M349.3,61.1C326.6,50.4,301.2,40.9,277,47.5c-9.8,2.7-18.8,7.9-28.6,10.5-11.6,3.1-23.9,2.6-35.8.9-27.9-4-55.1-14-83.3-14.5S69.6,56.6,60.2,83.2c-4.3,12.1-3.4,25.3-3.6,38.1a221,221,0,0,1-22.5,93.4c-12.6,25.8-30.8,53.9-20.8,80.8,11.5,30.8,53.3,39.7,68.8,68.6,9,16.9,7.3,37.2,5.6,56.3-.3,3.6-.6,7.4.5,10.8,2,6.1,8.1,9.8,14,12.3,23.2,9.6,49.8,6,73.8-1.2,12.2-3.6,24.2-8.2,34.5-15.6s18.6-17.3,29.5-23.6c20-11.5,44.7-9,67.7-7.7a479,479,0,0,0,61.1-.6c13.5-1,27.2-2.7,39.5-8.4s23-16.1,26.1-29.3c3.8-16.5-5.2-33.6-17.7-45.1-6.6-6.1-14.2-11.1-20.6-17.5-21.6-21.3-27.1-54.1-26.7-84.4.3-21.3,3.4-43.8,16.6-60.4,6.4-8,14.9-14.2,20.8-22.6C439.5,82,379,75,349.3,61.1" transform="translate(-10.41 -26.81)"/></g><g class="cls-3"><path class="cls-5" d="M331.1,423.3c-13,0-26.3-1.1-38.8-4.8a205.94,205.94,0,0,1-19.5-7.3c-4.5-1.9-9.1-3.8-13.7-5.4-16.6-5.9-34-8.4-50.3-10.5-21.4-2.7-44.1-5.1-66.7-1.6-8.2,1.3-16.5,3.4-24.6,5.4-15.2,3.9-31,7.9-46.8,6.4-8.5-.8-14.7-3.2-18.9-7.3-6.3-6.3-7.4-15.7-8.1-24.9-1.1-16.1-2-34.8.8-53.1,1.5-9.7,4.1-19.4,6.5-28.7a268.08,268.08,0,0,0,6.7-29.8c2-13.6,2.9-39.1-13.2-56.1a90.8,90.8,0,0,0-12.7-10.5c-4.6-3.4-9.4-6.8-13.3-11.1-5.8-6.3-8.5-12.9-8-19.5,1.1-14,16.3-26.3,28.5-36.1,3.4-2.7,6.6-5.3,9.3-7.8l.3.4-.3-.4C79,92.9,110.8,64.2,149.9,47.9c33.9-14.1,83.3-19.8,120.3,6.9C276.9,59.6,283,65.4,289,71c4.3,4,8.7,8.2,13.3,12a128.42,128.42,0,0,0,52.3,25.8c4.6,1.1,9.4,1.9,14,2.7,11.6,2,23.6,4.1,33.9,10,15.9,9,27,27.2,29,47.3,1.7,17.7-3.4,37.1-14.3,54.6-3.4,5.4-7.3,10.7-11,15.8-7.6,10.2-15.4,20.8-19.1,33-3.9,12.7-3.2,26.2-2.5,39.3l3.7,68.8c.7,13.6.1,32.4-13.6,39.1-4.5,2.2-9.7,2.5-14.3,2.8-9.3.5-19.3,1.1-29.3,1.1M166.4,390.9c14.5,0,28.8,1.6,42.5,3.4,16.4,2.1,33.9,4.7,50.6,10.6,4.7,1.6,9.3,3.6,13.8,5.5a204,204,0,0,0,19.4,7.3c22.1,6.5,45.3,5,67.8,3.5,4.5-.3,9.6-.6,13.9-2.7,13.1-6.4,13.7-24.8,13-38.1l-3.7-68.8c-.7-13.1-1.4-26.7,2.5-39.6,3.8-12.4,11.7-23,19.3-33.3,3.7-5.1,7.6-10.3,11-15.7,10.8-17.4,15.8-36.6,14.1-54-1.9-19.8-12.8-37.6-28.5-46.5-10.2-5.8-22.1-7.9-33.6-9.9-4.6-.8-9.4-1.6-14.1-2.7a127.88,127.88,0,0,1-52.7-26c-4.6-3.8-9-8-13.3-12-5.9-5.6-12-11.4-18.7-16.2C233,29.3,184,34.9,150.4,49,111.3,65,79.6,93.7,49,121.4c-2.7,2.5-5.9,5.1-9.4,7.8-12.1,9.7-27.1,21.9-28.1,35.4-.5,6.4,2.1,12.5,7.8,18.8,3.9,4.2,8.6,7.6,13.2,11A99.5,99.5,0,0,1,45.4,205c16.3,17.3,15.4,43.1,13.4,56.9a269.82,269.82,0,0,1-6.7,29.9,275.47,275.47,0,0,0-6.5,28.6c-2.8,18.2-1.9,36.8-.8,52.9.6,9,1.7,18.2,7.8,24.2,4,4,10,6.3,18.2,7,15.7,1.4,31.3-2.5,46.5-6.4,8.1-2,16.4-4.2,24.7-5.5a164.9,164.9,0,0,1,24.4-1.7" transform="translate(-10.41 -26.81)"/></g><g class="cls-6"><path class="cls-7" d="M427.4,318.4A5.4,5.4,0,1,1,422,313a5.38,5.38,0,0,1,5.4,5.4" transform="translate(-10.41 -26.81)"/></g><g class="cls-6"><path class="cls-8" d="M394.1,119.5a2.7,2.7,0,1,1-2.7-2.7,2.82,2.82,0,0,1,2.7,2.7" transform="translate(-10.41 -26.81)"/></g><g class="cls-6"><path class="cls-7" d="M338.8,34.6a3.8,3.8,0,1,1-3.8-3.8,3.93,3.93,0,0,1,3.8,3.8" transform="translate(-10.41 -26.81)"/></g><path class="cls-9" d="M330.9,415s-6.4,8.7-13.2,8.2-6.4,5.7-8.5,10-10.8,4.4-15.2,2l.7-6.4s8.1,3.4,10.4-2.7,4.1-12.4,12.4-10,10.1-7.8,10.1-7.8Z" transform="translate(-10.41 -26.81)"/><polygon class="cls-9" points="329.39 376.39 308.79 381.09 323.19 396.49 329.39 376.39"/><path class="cls-10" d="M375.4,55.7h0a3.6,3.6,0,0,1-1.9-4.7l9.2-22a3.58,3.58,0,0,1,6.6,2.8l-9.2,22a3.6,3.6,0,0,1-4.7,1.9" transform="translate(-10.41 -26.81)"/><path class="cls-10" d="M367.6,35.7h0a3.6,3.6,0,0,1,4.7-1.9l22,9.2a3.58,3.58,0,0,1-2.8,6.6l-22-9.2a3.6,3.6,0,0,1-1.9-4.7" transform="translate(-10.41 -26.81)"/><path class="cls-11" d="M401.7,216h0a2.63,2.63,0,0,1-1.4-3.5l6.9-16.6a2.67,2.67,0,1,1,4.9,2.1l-6.9,16.6a2.81,2.81,0,0,1-3.5,1.4" transform="translate(-10.41 -26.81)"/><path class="cls-11" d="M395.8,200.9h0a2.63,2.63,0,0,1,3.5-1.4l16.6,6.9a2.67,2.67,0,0,1-2.1,4.9l-16.6-6.9a2.72,2.72,0,0,1-1.4-3.5" transform="translate(-10.41 -26.81)"/><path class="cls-12" d="M42.9,419.6h0a2.25,2.25,0,0,1-3-.7l-7.5-12.3a2.18,2.18,0,0,1,3.7-2.3l7.5,12.3a2,2,0,0,1-.7,3" transform="translate(-10.41 -26.81)"/><path class="cls-12" d="M30.4,416.4h0a2.25,2.25,0,0,1,.7-3l12.3-7.5a2.18,2.18,0,0,1,2.3,3.7l-12.3,7.5a2.2,2.2,0,0,1-3-.7" transform="translate(-10.41 -26.81)"/><path class="cls-12" d="M217,355.6c-3.3,0-6.5-.1-9.8-.4A121.1,121.1,0,0,1,97,251.3a119,119,0,0,1-1.2-16.9,121.1,121.1,0,0,1,240.9-17.9,116.57,116.57,0,0,1,1.3,17.8,120.84,120.84,0,0,1-18.3,64.1,122.4,122.4,0,0,1-43.2,41.4A118.77,118.77,0,0,1,217,355.6Zm0-238.4A117.08,117.08,0,0,0,99.8,234.4a125.1,125.1,0,0,0,1.1,16.3A117.3,117.3,0,0,0,207.6,351.2c3.1.2,6.3.4,9.5.4a116.52,116.52,0,0,0,57.7-15.2,118.64,118.64,0,0,0,41.8-40,116.91,116.91,0,0,0,17.7-62,108.85,108.85,0,0,0-1.3-17.2,117.24,117.24,0,0,0-116-100Z" transform="translate(-10.41 -26.81)"/><path class="cls-12" d="M114.7,335.6a.91.91,0,0,1-.7-.3l-.7-.7-.7-.7a1,1,0,0,1,1.4-1.4l.7.7.7.7a1,1,0,0,1,0,1.4A1.08,1.08,0,0,1,114.7,335.6Z" transform="translate(-10.41 -26.81)"/><path class="cls-12" d="M215.6,378.6h-2a1,1,0,0,1-1-1,1.08,1.08,0,0,1,1-1h2a1,1,0,0,1,1,1A1.08,1.08,0,0,1,215.6,378.6Zm12-.4a1,1,0,0,1-1-.9,1.17,1.17,0,0,1,.9-1.1,13.55,13.55,0,0,0,2-.2,1,1,0,0,1,.2,2c-.7.1-1.3.1-2.1.2Zm-26-.5h-.1c-.7-.1-1.3-.1-2-.2a1,1,0,0,1,.2-2,13.55,13.55,0,0,0,2,.2,1.17,1.17,0,0,1,.9,1.1A1,1,0,0,1,201.6,377.7Zm40-1.2a1,1,0,0,1-1-.8,1.1,1.1,0,0,1,.8-1.2,14.16,14.16,0,0,0,2-.4,1,1,0,0,1,.4,2,14.16,14.16,0,0,0-2,.4Zm-53.9-.9h-.2c-.7-.1-1.3-.3-2-.4a1,1,0,1,1,.4-2c.6.1,1.3.3,2,.4a1,1,0,0,1,.8,1.2A1.19,1.19,0,0,1,187.7,375.6Zm67.6-2.2a1.2,1.2,0,0,1-1-.7,1,1,0,0,1,.7-1.2,13.32,13.32,0,0,1,1.9-.5.89.89,0,0,1,1.2.7c.1.6-.1,1.1-.7,1.2s-1.3.4-1.9.6C255.5,373.4,255.4,373.4,255.3,373.4ZM174.1,372h-.3c-.6-.2-1.3-.4-1.9-.6a1,1,0,0,1,.7-1.9c.6.2,1.3.4,1.9.6a1.15,1.15,0,0,1,.7,1.3A1.38,1.38,0,0,1,174.1,372Zm94.5-3a.87.87,0,0,1-.9-.6,1,1,0,0,1,.6-1.3c.6-.2,1.2-.5,1.8-.7a1,1,0,1,1,.7,1.9,10.66,10.66,0,0,1-1.9.7Zm-107.7-1.8a.6.6,0,0,1-.4-.1c-.6-.3-1.2-.5-1.9-.8a1,1,0,0,1,.8-1.8c.6.3,1.2.5,1.8.8a1,1,0,0,1,.5,1.3C161.7,366.9,161.3,367.2,160.9,367.2Zm120.5-3.9a1.05,1.05,0,0,1-.9-.5,1,1,0,0,1,.4-1.3l1.8-.9a1,1,0,1,1,.9,1.7l-1.8.9C281.7,363.2,281.6,363.3,281.4,363.3ZM148.3,361a.9.9,0,0,1-.5-.1c-.6-.3-1.2-.7-1.8-1a1,1,0,0,1,1-1.8c.6.3,1.2.7,1.7,1a1,1,0,0,1-.4,1.9Zm145.3-4.7a.89.89,0,0,1-.8-.5,1,1,0,0,1,.3-1.4c.6-.4,1.1-.7,1.7-1.1a1,1,0,0,1,1.1,1.7c-.6.4-1.1.7-1.7,1.1A.73.73,0,0,1,293.6,356.3Zm-157.3-2.6a1.42,1.42,0,0,1-.6-.2c-.6-.4-1.1-.8-1.7-1.2a1,1,0,0,1,1.2-1.6,15.26,15.26,0,0,0,1.6,1.1,1,1,0,0,1,.3,1.4A1,1,0,0,1,136.3,353.7Zm168.8-5.5a.91.91,0,0,1-.8-.4,1,1,0,0,1,.2-1.4c.5-.4,1-.8,1.6-1.2a1,1,0,0,1,1.2,1.6,18.26,18.26,0,0,0-1.6,1.3A1.27,1.27,0,0,1,305.1,348.2Zm-180-3a1.07,1.07,0,0,1-.6-.2c-.5-.4-1-.9-1.5-1.3a1,1,0,0,1,1.3-1.5c.5.4,1,.9,1.5,1.3a1,1,0,0,1,.1,1.4A1.14,1.14,0,0,1,125.1,345.2ZM315.7,339a.91.91,0,0,1-.7-.3,1,1,0,0,1,0-1.4,18.48,18.48,0,0,0,1.4-1.4,1,1,0,0,1,1.4,1.4c-.5.5-1,.9-1.5,1.4C316.2,339,316,339,315.7,339Zm9.7-10.1a1.85,1.85,0,0,1-.7-.2,1,1,0,0,1-.1-1.4c.4-.5.9-1,1.3-1.5a1,1,0,1,1,1.5,1.3c-.4.5-.9,1-1.3,1.5A.78.78,0,0,1,325.4,328.9Zm-220-3.8a.91.91,0,0,1-.8-.4,18.26,18.26,0,0,0-1.3-1.6,1,1,0,0,1,1.6-1.2c.4.5.8,1,1.2,1.6a1,1,0,0,1-.2,1.4A.76.76,0,0,1,105.4,325.1Zm228.7-7.3a1.42,1.42,0,0,1-.6-.2.9.9,0,0,1-.2-1.4,15.26,15.26,0,0,0,1.1-1.6,1,1,0,1,1,1.7,1.1c-.4.6-.8,1.1-1.2,1.7A1.23,1.23,0,0,1,334.1,317.8Zm-237-4.1a1,1,0,0,1-.8-.5c-.4-.6-.7-1.1-1.1-1.7a1,1,0,0,1,1.7-1.1c.4.6.7,1.1,1.1,1.7a1,1,0,0,1-.3,1.4A1.42,1.42,0,0,1,97.1,313.7Zm244.5-7.8a.9.9,0,0,1-.5-.1,1.11,1.11,0,0,1-.4-1.4c.3-.6.7-1.2,1-1.7a1,1,0,1,1,1.8,1c-.3.6-.7,1.2-1,1.8A1.49,1.49,0,0,1,341.6,305.9ZM90,301.6a1.05,1.05,0,0,1-.9-.5l-.9-1.8a1,1,0,0,1,1.7-.9l.9,1.8a.88.88,0,0,1-.4,1.3C90.3,301.5,90.2,301.6,90,301.6Zm257.9-8.2a.6.6,0,0,1-.4-.1,1,1,0,0,1-.5-1.3c.3-.6.5-1.2.8-1.8a1,1,0,0,1,1.8.8c-.3.6-.5,1.2-.8,1.9A.94.94,0,0,1,347.9,293.4ZM84.1,288.8a.87.87,0,0,1-.9-.6,14.58,14.58,0,0,1-.7-1.9,1,1,0,1,1,1.9-.7c.2.6.5,1.2.7,1.9a1,1,0,0,1-.6,1.3ZM353,280.3a.37.37,0,0,1-.3-.1,1,1,0,0,1-.6-1.3c.2-.6.4-1.3.6-1.9a1,1,0,1,1,2,.6c-.2.6-.4,1.3-.6,1.9A1.4,1.4,0,0,1,353,280.3ZM79.5,275.6a1.2,1.2,0,0,1-1-.7c-.2-.6-.4-1.3-.6-1.9a1,1,0,0,1,1.9-.5,13.32,13.32,0,0,1,.5,1.9,1,1,0,0,1-.8,1.2C79.7,275.5,79.6,275.6,79.5,275.6Zm277.2-8.9h-.2a1.1,1.1,0,0,1-.8-1.2c.1-.6.3-1.3.4-2a1,1,0,1,1,2,.4c-.1.7-.3,1.3-.4,2A1,1,0,0,1,356.7,266.7ZM76.3,261.9a1,1,0,0,1-1-.8,14.16,14.16,0,0,0-.4-2,1,1,0,1,1,2-.4,14.16,14.16,0,0,0,.4,2,1.1,1.1,0,0,1-.8,1.2Zm282.8-9H359a1.17,1.17,0,0,1-.9-1.1,13.55,13.55,0,0,0,.2-2,1.09,1.09,0,0,1,1.1-.9,1.17,1.17,0,0,1,.9,1.1c-.1.7-.1,1.3-.2,2A1.06,1.06,0,0,1,359.1,252.9ZM74.4,248a1.06,1.06,0,0,1-1-.9c-.1-.7-.1-1.3-.2-2a1.17,1.17,0,0,1,.9-1.1,1.09,1.09,0,0,1,1.1.9,13.55,13.55,0,0,0,.2,2,1.16,1.16,0,0,1-1,1.1Zm285.7-9.2h0a1,1,0,0,1-1-1v-2a1.08,1.08,0,0,1,1-1h0a1,1,0,0,1,1,1v2A1,1,0,0,1,360.1,238.8ZM73.8,233.9h0a1,1,0,0,1-1-1v-2a1.08,1.08,0,0,1,1-1h0a1,1,0,0,1,1,1v2A.94.94,0,0,1,73.8,233.9Zm286-9.1a1,1,0,0,1-1-.9,13.55,13.55,0,0,0-.2-2,1.17,1.17,0,0,1,.9-1.1,1,1,0,0,1,1.1.9c.1.7.1,1.3.2,2a1.09,1.09,0,0,1-1,1.1ZM74.7,219.9h0a1.16,1.16,0,0,1-1-1.1c.1-.7.1-1.3.2-2a1,1,0,0,1,2,.2,13.55,13.55,0,0,0-.2,2A1.06,1.06,0,0,1,74.7,219.9ZM358,210.8a1,1,0,0,1-1-.8,14.16,14.16,0,0,0-.4-2,1,1,0,1,1,2-.4,14.16,14.16,0,0,0,.4,2,1.1,1.1,0,0,1-.8,1.2ZM76.9,206h-.2a1,1,0,0,1-.8-1.2c.1-.7.3-1.3.4-2a1,1,0,0,1,2,.4c-.1.6-.3,1.3-.4,2A1.15,1.15,0,0,1,76.9,206ZM355,197.1a1.2,1.2,0,0,1-1-.7,13.32,13.32,0,0,1-.5-1.9,1,1,0,1,1,1.9-.5c.2.6.4,1.3.6,1.9a1,1,0,0,1-.7,1.2ZM80.4,192.4h-.3a1.15,1.15,0,0,1-.7-1.3c.2-.6.4-1.3.6-1.9a1,1,0,0,1,1.9.7c-.2.6-.4,1.3-.6,1.9A1,1,0,0,1,80.4,192.4Zm270.2-8.6a.87.87,0,0,1-.9-.6c-.2-.6-.5-1.2-.7-1.8a1,1,0,1,1,1.9-.7,10.66,10.66,0,0,1,.7,1.9,1,1,0,0,1-.6,1.3A.76.76,0,0,0,350.6,183.8ZM85.3,179.2a.6.6,0,0,1-.4-.1,1,1,0,0,1-.5-1.3c.3-.6.5-1.2.8-1.9a1,1,0,0,1,1.8.8c-.3.6-.5,1.2-.8,1.8A.93.93,0,0,1,85.3,179.2ZM344.9,171a1.05,1.05,0,0,1-.9-.5l-.9-1.8a1,1,0,1,1,1.7-.9l.9,1.8a1,1,0,0,1-.4,1.3A.6.6,0,0,1,344.9,171ZM91.4,166.6a.9.9,0,0,1-.5-.1,1,1,0,0,1-.4-1.4c.3-.6.7-1.2,1-1.8a1,1,0,0,1,1.8,1c-.3.6-.7,1.2-1,1.7A1,1,0,0,1,91.4,166.6Zm246.5-7.8a.89.89,0,0,1-.8-.5c-.4-.6-.7-1.1-1.1-1.7a1,1,0,1,1,1.7-1.1c.4.6.7,1.1,1.1,1.7a1,1,0,0,1-.3,1.4A1.42,1.42,0,0,1,337.9,158.8ZM98.8,154.6a1.42,1.42,0,0,1-.6-.2,1,1,0,0,1-.3-1.4l.1-.2c.3-.5.7-1,1-1.5a1,1,0,1,1,1.6,1.2,17,17,0,0,1-1,1.4l-.1.2A.64.64,0,0,1,98.8,154.6Zm231-7.3a.91.91,0,0,1-.8-.4c-.4-.5-.8-1-1.2-1.6a1,1,0,1,1,1.6-1.2,18.26,18.26,0,0,0,1.3,1.6,1,1,0,0,1-.2,1.4A1.85,1.85,0,0,1,329.8,147.3Zm-222.5-3.9a1.07,1.07,0,0,1-.6-.2,1,1,0,0,1-.1-1.4c.4-.5.9-1,1.3-1.5a1,1,0,1,1,1.5,1.3c-.4.5-.9,1-1.3,1.5A1.33,1.33,0,0,1,107.3,143.4Zm213.3-6.7a.91.91,0,0,1-.7-.3,18.48,18.48,0,0,0-1.4-1.4,1,1,0,0,1,1.4-1.4c.5.5.9,1,1.4,1.5a1,1,0,0,1,0,1.4A1.45,1.45,0,0,1,320.6,136.7Zm-203.8-3.6a.91.91,0,0,1-.7-.3,1,1,0,0,1,0-1.4c.5-.5,1-.9,1.5-1.4a1,1,0,1,1,1.4,1.4,18.48,18.48,0,0,0-1.4,1.4A1.33,1.33,0,0,1,116.8,133.1ZM310.5,127a1.85,1.85,0,0,1-.7-.2c-.5-.4-1-.9-1.5-1.3a1,1,0,0,1,1.3-1.5c.5.4,1,.9,1.5,1.3a1,1,0,0,1,.1,1.4A1.08,1.08,0,0,1,310.5,127Zm-183.2-3.2a.91.91,0,0,1-.8-.4,1,1,0,0,1,.2-1.4,18.26,18.26,0,0,0,1.6-1.3,1,1,0,0,1,1.2,1.6c-.5.4-1,.8-1.6,1.2A.71.71,0,0,1,127.3,123.8Zm172.1-5.5a1.42,1.42,0,0,1-.6-.2,15.26,15.26,0,0,0-1.6-1.1,1,1,0,0,1,1.1-1.7c.6.4,1.1.8,1.7,1.2a.9.9,0,0,1,.2,1.4A.91.91,0,0,1,299.4,118.3Zm-160.7-2.8a1,1,0,0,1-.8-.5,1,1,0,0,1,.3-1.4c.6-.4,1.1-.7,1.7-1.1a1,1,0,0,1,1.1,1.7c-.6.4-1.1.7-1.7,1.1A.73.73,0,0,1,138.7,115.5Zm148.8-4.7a.9.9,0,0,1-.5-.1c-.6-.3-1.2-.7-1.7-1a1,1,0,0,1,1-1.8c.6.3,1.2.7,1.8,1a1.11,1.11,0,0,1,.4,1.4A1.39,1.39,0,0,1,287.5,110.8Zm-136.7-2.4a1.05,1.05,0,0,1-.9-.5.88.88,0,0,1,.4-1.3l1.8-.9a1,1,0,0,1,.9,1.7l-1.8.9C151.1,108.4,151,108.4,150.8,108.4ZM275,104.5a.6.6,0,0,1-.4-.1c-.6-.3-1.2-.5-1.8-.8a1,1,0,1,1,.8-1.8c.6.3,1.2.5,1.9.8a1,1,0,0,1,.5,1.3A1.22,1.22,0,0,1,275,104.5Zm-111.4-1.9a.87.87,0,0,1-.9-.6,1,1,0,0,1,.6-1.3,14.58,14.58,0,0,1,1.9-.7,1,1,0,1,1,.7,1.9c-.6.2-1.2.5-1.9.7C163.8,102.5,163.7,102.6,163.6,102.6Zm98.3-3.2a.37.37,0,0,1-.3-.1c-.6-.2-1.3-.4-1.9-.6a1,1,0,1,1,.6-2c.6.2,1.3.4,1.9.6a1,1,0,0,1,.6,1.3A.86.86,0,0,1,261.9,99.4ZM176.8,98a1.2,1.2,0,0,1-1-.7.89.89,0,0,1,.7-1.2c.6-.2,1.3-.4,1.9-.6a1,1,0,1,1,.5,1.9,13.32,13.32,0,0,1-1.9.5A.35.35,0,0,1,176.8,98Zm71.5-2.3h-.2c-.6-.1-1.3-.3-1.9-.4a1,1,0,0,1,.4-2c.7.1,1.3.3,2,.4a1.1,1.1,0,0,1,.8,1.2A1.17,1.17,0,0,1,248.3,95.7Zm-57.8-1a1,1,0,0,1-1-.8,1.1,1.1,0,0,1,.8-1.2,14.16,14.16,0,0,0,2-.4,1,1,0,0,1,.4,2,14.16,14.16,0,0,0-2,.4Zm44-1.4h-.1a13.55,13.55,0,0,0-2-.2,1,1,0,0,1,.2-2c.7.1,1.3.1,2,.2a1.17,1.17,0,0,1,.9,1.1A1.06,1.06,0,0,1,234.5,93.3Zm-30.1-.5a1.06,1.06,0,0,1-1-.9,1.17,1.17,0,0,1,.9-1.1c.7-.1,1.3-.1,2-.2a1,1,0,0,1,.2,2c-.7.1-1.3.1-2.1.2Zm16.1-.5h-2a1,1,0,0,1-1-1,1.08,1.08,0,0,1,1-1h2a1,1,0,0,1,0,2Z" transform="translate(-10.41 -26.81)"/><path class="cls-13" d="M217,411.1c-4.7,0-9.5-.2-14.3-.6A176.1,176.1,0,0,1,42,259a183.75,183.75,0,0,1-1.7-24.6A176.64,176.64,0,0,1,107.5,95.7,176.79,176.79,0,0,1,391.9,208.4a173,173,0,0,1,1.9,26,176.07,176.07,0,0,1-26.7,93.5A176.31,176.31,0,0,1,217,411.1Zm0-349.4A172.28,172.28,0,0,0,110,98.9a176.49,176.49,0,0,0-35.4,37.8,171.76,171.76,0,0,0-30.3,97.7A177.52,177.52,0,0,0,46,258.5a170,170,0,0,0,16,52.2,172.69,172.69,0,0,0,141,95.9c4.6.4,9.3.6,13.9.6a171.92,171.92,0,0,0,85-22.4,172.74,172.74,0,0,0,87.6-150.4,165.16,165.16,0,0,0-1.9-25.4A172.75,172.75,0,0,0,217,61.7Z" transform="translate(-10.41 -26.81)"/><path class="cls-14" d="M376.9,351.6A28.77,28.77,0,0,1,323.2,366h0c-.4-.8-.8-1.5-1.2-2.3h0a28.92,28.92,0,0,1,26.2-40.9A28.85,28.85,0,0,1,376.9,351.6Z" transform="translate(-10.41 -26.81)"/><path class="cls-12" d="M376.9,351.6A28.77,28.77,0,0,1,323.2,366h0c-.7-1.4-1.2-2.2-1.2-2.3h0C322.5,364,346.4,382.1,376.9,351.6Z" transform="translate(-10.41 -26.81)"/><path class="cls-7" d="M100.3,159.3a18.69,18.69,0,0,1-34.9,9.3h0c-.3-.5-.5-1-.8-1.5h0a18.79,18.79,0,0,1,17-26.6A18.89,18.89,0,0,1,100.3,159.3Z" transform="translate(-10.41 -26.81)"/><path class="cls-7" d="M100.3,159.3a18.69,18.69,0,0,1-34.9,9.3h0c-.5-.9-.8-1.5-.8-1.5h0C64.8,167.4,80.4,179.2,100.3,159.3Z" transform="translate(-10.41 -26.81)"/><path class="cls-7" d="M366.5,183.4a13.18,13.18,0,0,1-24.6,6.6h0a10.91,10.91,0,0,1-.6-1.1h0a13,13,0,0,1-1.2-5.5,13.2,13.2,0,1,1,26.4,0Z" transform="translate(-10.41 -26.81)"/><path class="cls-7" d="M366.5,183.4a13.18,13.18,0,0,1-24.6,6.6h0a7.37,7.37,0,0,0-.6-1.1h0C341.5,189.1,352.5,197.4,366.5,183.4Z" transform="translate(-10.41 -26.81)"/><path class="cls-14" d="M66.8,266.1a13.18,13.18,0,0,1-24.6,6.6h0a10.91,10.91,0,0,1-.6-1.1h0a13,13,0,0,1-1.2-5.5,13.2,13.2,0,0,1,26.4,0Z" transform="translate(-10.41 -26.81)"/><path class="cls-12" d="M66.8,266.1a13.18,13.18,0,0,1-24.6,6.6h0a7.37,7.37,0,0,0-.6-1.1h0C41.8,271.8,52.8,280.1,66.8,266.1Z" transform="translate(-10.41 -26.81)"/><path class="cls-15" d="M180.1,191.6l-43.9,39.8h0v65.1h0l25.4-36a22.71,22.71,0,0,1,18.5-9.6h0V191.6Z" transform="translate(-10.41 -26.81)"/><path class="cls-15" d="M264.9,129.3H180.1l24.3-40.1,6.2-10.3a15.17,15.17,0,0,1,23.7,0l6.2,10.3,24.4,40.1Z" transform="translate(-10.41 -26.81)"/><polygon class="cls-13" points="254.49 102.49 254.49 242.99 254.49 242.99 169.69 242.99 169.69 242.99 169.69 102.49 169.69 102.49 254.49 102.49"/><path class="cls-15" d="M252.7,177.4a30.73,30.73,0,0,1-5.9,21.1A30.32,30.32,0,0,1,192.6,185a30.31,30.31,0,1,1,60.1-7.6Z" transform="translate(-10.41 -26.81)"/><path class="cls-11" d="M264.9,130.8H180.1a1.5,1.5,0,1,1,0-3h84.8a1.5,1.5,0,0,1,0,3Z" transform="translate(-10.41 -26.81)"/><path class="cls-11" d="M240.5,89.1H204.4l6.2-10.3a15.19,15.19,0,0,1,23.6,0l6.3,10.3Z" transform="translate(-10.41 -26.81)"/><path class="cls-12" d="M246.9,176.1a24.37,24.37,0,0,1-4.6,19,24.66,24.66,0,1,1,4.6-19Z" transform="translate(-10.41 -26.81)"/><path class="cls-14" d="M246.9,176.1a24.37,24.37,0,0,1-4.6,19h0c-30-14.7-30.5-37.1-30.5-37.1h0a24.83,24.83,0,0,1,35.1,18.1Z" transform="translate(-10.41 -26.81)"/><path class="cls-15" d="M258.6,284.8v21H186.4v-21a10,10,0,0,1,3.4-7.2,10.93,10.93,0,0,0,2.3-3,9.94,9.94,0,0,0,1-5.1H252a10.14,10.14,0,0,0,1,5.1,10.55,10.55,0,0,0,2.2,3A10,10,0,0,1,258.6,284.8Z" transform="translate(-10.41 -26.81)"/><polygon class="cls-14" points="248.19 268.39 248.19 278.99 248.19 278.99 175.99 278.99 175.99 278.99 175.99 268.39 175.99 268.39 248.19 268.39"/><polygon class="cls-14" points="254.49 218.59 254.49 225.89 254.49 225.89 169.69 225.89 169.69 225.89 169.69 218.59 169.69 218.59 254.49 218.59"/><path class="cls-14" d="M272.8,268.5a4.91,4.91,0,0,1-4.8,6.2H177.2a5,5,0,0,1-5-3.6,4.62,4.62,0,0,1,1.3-4.7A4.83,4.83,0,0,1,177,265h90.8A5,5,0,0,1,272.8,268.5Z" transform="translate(-10.41 -26.81)"/><path class="cls-11" d="M142.9,302.6h0a6.7,6.7,0,0,1-6.7-6.7V231.4h0l6.7-5.8h0Z" transform="translate(-10.41 -26.81)"/><path class="cls-15" d="M308.8,231.4h0v65.1h0l-6.7-9.5-18.7-26.5a22.71,22.71,0,0,0-18.5-9.6h0V191.7h0l18.5,16.8Z" transform="translate(-10.41 -26.81)"/><path class="cls-11" d="M308.8,231.4h0v65a6.75,6.75,0,0,1-6.7,6.2h0v-77h0Z" transform="translate(-10.41 -26.81)"/><path class="cls-12" d="M283.4,262a1.54,1.54,0,0,1-1.5-1.5V208.4a1.5,1.5,0,1,1,3,0v52.1A1.42,1.42,0,0,1,283.4,262Z" transform="translate(-10.41 -26.81)"/><path class="cls-12" d="M161.6,262a1.54,1.54,0,0,1-1.5-1.5V208.4a1.5,1.5,0,0,1,3,0v52.1A1.42,1.42,0,0,1,161.6,262Z" transform="translate(-10.41 -26.81)"/><polygon class="cls-15" points="233.09 339.89 191.09 339.89 191.09 339.89 191.09 278.99 191.09 278.99 233.09 278.99 233.09 278.99 233.09 339.89"/><path class="cls-13" d="M123.1,394.2h199a16,16,0,0,0-1.4-4.2l-1.5-3.9a18.64,18.64,0,0,0-2.9-4.4,17.15,17.15,0,0,0-12-6h0a29.16,29.16,0,0,0-1.4-3.8,23,23,0,0,0-14.3-12.3c-4.9-1.5-10.4-1.3-15.4-.8a35.08,35.08,0,0,0-5.8,1h0a15.62,15.62,0,0,0-6.5-7.5c-5.1-3-12.1-2.8-17.6-1.2a25.75,25.75,0,0,0-5.2,2.1h0a50.06,50.06,0,0,0-6.2-6.8,37.32,37.32,0,0,0-11.4-7c-8.3-3.4-18.2-2.4-26.2,1.7a26.82,26.82,0,0,0-9.9,9,10.62,10.62,0,0,0-1.9-.4,30,30,0,0,0-20.7,3.7,34.59,34.59,0,0,0-12.2,12.7h0a28,28,0,0,0-16,3.8,23,23,0,0,0-10.5,24.3Z" transform="translate(-10.41 -26.81)"/><path class="cls-16" d="M308.8,231.4h0v65.1h0a6.75,6.75,0,0,1-6.7,6.2h0V287h0l-18.7-26.5a22.71,22.71,0,0,0-18.5-9.6h0V265h2.8a5,5,0,0,1,5,3.6,4.91,4.91,0,0,1-4.8,6.2H252.8a10.55,10.55,0,0,0,2.2,3,9.58,9.58,0,0,1,3.5,7.1v21H243.4V129.7l-.2-.4L222.3,73.2h0a15.29,15.29,0,0,1,11.9,5.7l6.2,10.3,24.3,40.1h0v62.3h0l18.5,16.8Z" transform="translate(-10.41 -26.81)"/></g></g></svg>