<svg version="1.1" id="Слой_2" xmlns="http://www.w3.org/2000/svg" xmlns:xlink="http://www.w3.org/1999/xlink" x="0" y="0" viewBox="0 0 435.4 449.4" xml:space="preserve"><style>.st2{clip-path:url(#SVGID_4_);fill:#fec02a}.st4{fill:#627af4}.st5{fill:#4c59e0}.st6{fill:#fff}.st7{fill:#1d2bd6}.st9{fill:#fec02a}.st10{fill:#fd9107}.st12{fill:#ffd23c}.st13{fill:#19d2c0}.st14{fill:#e9007f}</style><switch><g><defs><path id="SVGID_1_" d="M9.5 36h425.9v413.4H9.5V36"/></defs><clipPath id="SVGID_2_"><use xlink:href="#SVGID_1_" overflow="visible"/></clipPath><path d="M388.2 285.2c-4.5 15.6-11.1 30.5-19.8 44.4-.3.4-.5.9-.8 1.3 6.6 5.3 10.8 13.4 10.8 22.4 0 15.9-12.9 28.8-28.8 28.8-7.9 0-15.1-3.2-20.3-8.4-7.5 6.1-15.5 11.5-23.9 16.3-3 1.7-6 3.3-9.1 4.8 3.8.2 7.7.4 11.5.6 8.6.5 17.1.7 25.7.7 11.8 0 23.7-.4 35.4-1.3 13.5-1 27.2-2.7 39.5-8.4s23-16.1 26.1-29.3c3.8-16.5-5.2-33.6-17.7-45.1-6.6-6.1-14.2-11.1-20.6-17.5-2.9-2.8-5.6-5.9-8-9.3M189.5 160.6c9-3.4 18.7-5.3 28.9-5.3h3c9.9.5 19.4 2.8 28.1 6.6.1 0 .2.1.3.1h.1c27.2 12.2 46.5 39 47.9 70.4v3.3c0 15.7-4.5 30.4-12.2 42.8-14.3 22.9-39.7 38.1-68.7 38.1-2.2 0-4.4-.1-6.5-.3-20.2-1.6-38.4-10.7-51.7-24.5-11.6-12-19.5-27.6-21.9-44.9-.5-3.7-.8-7.5-.8-11.3 0-17 5.2-32.8 14.2-45.8 10.7-12.8 23.9-23.3 39.3-29.2m28.9-41.6c-14.4 0-28.5 2.6-41.9 7.7-20.9 8-38.8 21.6-52.1 39.5 4.5 3.4 7.3 8.8 7.3 14.9 0 10.3-8.4 18.7-18.7 18.7-2 0-3.9-.3-5.7-.9-4 11.9-6 24.5-6 37.3 0 5.5.4 11 1.1 16.3 3.4 24.6 14.4 47.1 31.8 65.1 19.9 20.6 46.5 33.2 74.9 35.4 3.1.3 6.3.4 9.5.4 20.2 0 40.2-5.2 57.7-15.2 17-9.6 31.4-23.5 41.8-40 11.6-18.6 17.7-40 17.7-62 0-5.8-.4-11.6-1.3-17.2-4.1-27.5-17.9-52.8-39-71.2-21.5-18.6-48.8-28.8-77.1-28.8M217 380.3h-2c-.6 0-1-.5-1-1s.5-1 1-1h2c.6 0 1 .5 1 1 0 .6-.4 1-1 1m12.1-.4c-.5 0-1-.4-1-.9s.4-1 .9-1.1c.7 0 1.3-.1 2-.2h.1c.5 0 .9.4 1 .9 0 .5-.4 1-.9 1.1-.7.1-1.4.2-2.1.2m-26.1-.4h-.1c-.7-.1-1.3-.1-2-.2-.5-.1-.9-.6-.9-1.1.1-.5.5-.9 1-.9h.1c.7.1 1.3.2 2 .2.5.1.9.6.9 1.1-.1.5-.5.9-1 .9m40-1.3c-.5 0-.9-.3-1-.8-.1-.5.3-1.1.8-1.2.7-.1 1.3-.2 2-.4h.2c.5 0 .9.3 1 .8.1.5-.3 1.1-.8 1.2-.7.1-1.3.2-2 .4h-.2m-53.9-.9h-.2c-.7-.1-1.3-.3-2-.4-.5-.1-.9-.7-.8-1.2.1-.5.5-.8 1-.8h.2c.6.1 1.3.3 2 .4.5.1.9.6.8 1.2-.1.5-.5.8-1 .8m67.6-2.2c-.4 0-.8-.3-1-.7-.1-.5.2-1.1.7-1.2.6-.2 1.3-.4 1.9-.5h.3c.4 0 .8.3 1 .7.2.5-.1 1.1-.7 1.2-.6.2-1.3.4-1.9.6l-.3-.1m-81.2-1.3h-.3c-.6-.2-1.3-.4-1.9-.6-.5-.2-.8-.7-.6-1.3.1-.4.5-.7.9-.7.1 0 .2 0 .3.1.6.2 1.3.4 1.9.6.5.2.8.7.7 1.3-.2.3-.6.6-1 .6m94.5-3.1c-.4 0-.8-.2-.9-.6-.2-.5.1-1.1.6-1.3.6-.2 1.2-.5 1.8-.7.1 0 .2-.1.4-.1.4 0 .8.2.9.6.2.5 0 1.1-.6 1.3-.6.3-1.2.5-1.9.7 0 .1-.1.1-.3.1m-107.7-1.8c-.1 0-.3 0-.4-.1-.6-.3-1.2-.5-1.9-.8-.5-.2-.7-.8-.5-1.3.2-.4.5-.6.9-.6.1 0 .3 0 .4.1.6.3 1.2.5 1.8.8.5.2.7.8.5 1.3 0 .4-.4.6-.8.6m120.6-3.9c-.4 0-.7-.2-.9-.5-.2-.5-.1-1.1.4-1.3l1.8-.9c.1-.1.3-.1.5-.1.4 0 .7.2.9.5.3.5.1 1.1-.4 1.3l-1.8.9c-.2.1-.4.1-.5.1m-133.2-2.2c-.2 0-.3 0-.5-.1-.6-.3-1.2-.7-1.8-1-.5-.3-.6-.9-.4-1.4.2-.3.5-.5.9-.5.2 0 .3 0 .5.1.6.3 1.2.7 1.7 1 .5.3.7.9.4 1.4-.1.3-.4.5-.8.5m145.4-4.7c-.3 0-.7-.2-.8-.5-.3-.5-.2-1.1.3-1.4.6-.4 1.1-.7 1.7-1.1.2-.1.4-.2.5-.2.3 0 .6.2.8.5.3.5.2 1.1-.3 1.4-.6.4-1.1.7-1.7 1.1-.1.1-.3.2-.5.2m-157.4-2.7c-.2 0-.4-.1-.6-.2-.6-.4-1.1-.8-1.7-1.2-.5-.3-.6-.9-.2-1.4.2-.3.5-.4.8-.4.2 0 .4.1.6.2.5.4 1.1.8 1.6 1.1.5.3.6.9.3 1.4-.1.4-.5.5-.8.5m168.9-5.4c-.3 0-.6-.1-.8-.4-.3-.4-.3-1.1.2-1.4.5-.4 1-.8 1.6-1.2.2-.1.4-.2.6-.2.3 0 .6.1.8.4.3.4.3 1.1-.2 1.4-.5.4-1.1.8-1.6 1.3-.2 0-.4.1-.6.1m-180.1-3.1c-.2 0-.5-.1-.6-.2-.5-.4-1-.9-1.5-1.3-.4-.4-.5-1-.1-1.4.2-.2.5-.3.8-.3.2 0 .5.1.7.2.5.4 1 .9 1.5 1.3.4.4.5 1 .1 1.4-.3.2-.6.3-.9.3m190.7-6.1c-.3 0-.5-.1-.7-.3-.4-.4-.4-1 0-1.4.5-.5 1-.9 1.4-1.4.2-.2.4-.3.7-.3.3 0 .5.1.7.3.4.4.4 1 0 1.4-.5.5-1 .9-1.5 1.4-.1.2-.4.3-.6.3m9.7-10.2c-.2 0-.5-.1-.7-.2-.4-.4-.5-1-.1-1.4.4-.5.9-1 1.3-1.5.2-.2.5-.4.8-.4.2 0 .5.1.6.2.4.4.5 1 .1 1.4-.4.5-.9 1-1.3 1.5-.2.3-.5.4-.7.4m-220.1-3.8c-.3 0-.6-.1-.8-.4-.4-.5-.8-1.1-1.3-1.6-.3-.4-.3-1.1.2-1.4.2-.1.4-.2.6-.2.3 0 .6.1.8.4.4.5.8 1 1.2 1.6.3.4.3 1.1-.2 1.4 0 .1-.3.2-.5.2m228.7-7.3c-.2 0-.4-.1-.6-.2-.5-.3-.6-.9-.2-1.4.4-.5.8-1.1 1.1-1.6.2-.3.5-.4.8-.4.2 0 .4.1.6.2.5.3.6.9.3 1.4-.4.6-.8 1.1-1.2 1.7-.2.2-.5.3-.8.3m-236.9-4c-.3 0-.6-.2-.8-.5-.4-.6-.7-1.1-1.1-1.7-.3-.5-.2-1.1.3-1.4.2-.1.4-.2.5-.2.3 0 .7.2.8.5.4.6.7 1.1 1.1 1.7.3.5.2 1.1-.3 1.4-.2.1-.4.2-.5.2m244.4-7.8c-.2 0-.3 0-.5-.1-.5-.3-.6-.9-.4-1.4.3-.6.7-1.2 1-1.7.2-.3.5-.5.9-.5.2 0 .3 0 .5.1.5.3.7.9.4 1.4-.3.6-.7 1.2-1 1.8-.2.2-.5.4-.9.4m-251.5-4.4c-.4 0-.7-.2-.9-.5l-.9-1.8c-.2-.5-.1-1.1.4-1.3.1-.1.3-.1.4-.1.4 0 .7.2.9.5l.9 1.8c.3.5.1 1.1-.4 1.3-.1.1-.3.1-.4.1m257.9-8.2c-.1 0-.3 0-.4-.1-.5-.2-.7-.8-.5-1.3.3-.6.5-1.2.8-1.8.2-.4.5-.6.9-.6.1 0 .3 0 .4.1.5.2.7.8.5 1.3-.3.6-.5 1.2-.8 1.9-.2.3-.6.5-.9.5m-263.8-4.5c-.4 0-.8-.2-.9-.6-.3-.6-.5-1.3-.7-1.9-.2-.5.1-1.1.6-1.3.1 0 .2-.1.4-.1.4 0 .8.2.9.6.2.6.5 1.2.7 1.9.2.5 0 1.1-.6 1.3-.2.1-.3.1-.4.1m268.8-8.6c-.1 0-.2 0-.3-.1-.5-.2-.8-.7-.6-1.3.2-.6.4-1.3.6-1.9.1-.4.5-.7.9-.7h.3c.5.2.8.7.7 1.3-.2.6-.4 1.3-.6 1.9-.2.6-.6.8-1 .8M81 277.3c-.4 0-.8-.3-1-.7-.2-.6-.4-1.3-.6-1.9-.1-.5.2-1.1.7-1.2h.3c.4 0 .8.3 1 .7.2.6.4 1.3.5 1.9.2.5-.2 1.1-.7 1.2H81m277.2-8.8h-.2c-.5-.1-.9-.7-.8-1.2.1-.6.3-1.3.4-2 .1-.5.5-.8 1-.8h.2c.5.1.9.6.8 1.2-.1.7-.3 1.3-.4 2-.2.5-.6.8-1 .8m-280.5-4.9c-.5 0-.9-.3-1-.8-.1-.7-.2-1.3-.4-2-.1-.5.3-1.1.8-1.2h.2c.5 0 .9.3 1 .8.1.7.2 1.3.4 2 .1.5-.3 1.1-.8 1.2h-.2m282.8-9h-.1c-.5-.1-.9-.6-.9-1.1.1-.7.2-1.3.2-2 .1-.5.5-.9 1-.9h.1c.5.1.9.6.9 1.1-.1.7-.1 1.3-.2 2 0 .5-.5.9-1 .9m-284.7-4.9c-.5 0-.9-.4-1-.9-.1-.7-.1-1.3-.2-2 0-.5.4-1 .9-1.1h.1c.5 0 1 .4 1 .9 0 .7.1 1.3.2 2 .1.6-.3 1.1-1 1.1m285.7-9.1c-.6 0-1-.5-1-1v-2c0-.5.5-1 1-1 .6 0 1 .5 1 1v2c0 .6-.4 1-1 1m-286.2-4.9c-.6 0-1-.5-1-1v-2c0-.5.5-1 1-1 .6 0 1 .5 1 1v2c0 .5-.5 1-1 1m285.9-9.2c-.5 0-1-.4-1-.9 0-.7-.1-1.3-.2-2 0-.5.4-1 .9-1.1h.1c.5 0 .9.4 1 .9.1.7.1 1.3.2 2 0 .6-.4 1.1-1 1.1m-285.1-4.8H76c-.5-.1-.9-.6-.9-1.1.1-.7.1-1.3.2-2 .1-.5.5-.9 1-.9h.1c.5.1.9.6.9 1.1-.1.7-.2 1.3-.2 2-.1.5-.5.9-1 .9m283.4-9.1c-.5 0-.9-.3-1-.8-.1-.7-.2-1.3-.4-2-.1-.5.3-1.1.8-1.2h.2c.5 0 .9.3 1 .8.1.7.2 1.3.4 2 .1.5-.3 1.1-.8 1.2h-.2m-281.2-4.8h-.2c-.5-.1-.9-.6-.8-1.2.1-.7.3-1.3.4-2 .1-.5.5-.8 1-.8h.2c.5.1.9.7.8 1.2-.1.6-.3 1.3-.4 2-.1.4-.5.8-1 .8m278.1-8.9c-.4 0-.8-.3-1-.7-.2-.6-.4-1.3-.5-1.9-.2-.5.1-1.1.7-1.2h.3c.4 0 .8.3 1 .7.2.6.4 1.3.6 1.9.1.5-.2 1.1-.7 1.2h-.4m-274.6-4.7h-.3c-.5-.2-.8-.7-.7-1.3.2-.6.4-1.3.6-1.9.1-.4.5-.7.9-.7.1 0 .2 0 .3.1.5.2.8.7.6 1.3-.2.6-.4 1.3-.6 1.9.1.3-.3.6-.8.6m270.2-8.6c-.4 0-.8-.2-.9-.6-.2-.6-.5-1.2-.7-1.8-.2-.5 0-1.1.6-1.3.1 0 .2-.1.4-.1.4 0 .8.2.9.6.3.6.5 1.2.7 1.9.2.5-.1 1.1-.6 1.3-.2-.1-.3 0-.4 0M86.7 181c-.1 0-.3 0-.4-.1-.5-.2-.7-.8-.5-1.3.3-.6.5-1.2.8-1.9.2-.4.5-.6.9-.6.1 0 .3 0 .4.1.5.2.7.8.5 1.3-.3.6-.5 1.2-.8 1.8-.1.5-.5.7-.9.7m259.6-8.3c-.4 0-.7-.2-.9-.5l-.9-1.8c-.3-.5-.1-1.1.4-1.3.1-.1.3-.1.5-.1.4 0 .7.2.9.5l.9 1.8c.2.5.1 1.1-.4 1.3-.2.1-.3.1-.5.1m-253.4-4.3c-.2 0-.3 0-.5-.1-.5-.3-.7-.9-.4-1.4.3-.6.7-1.2 1-1.8.2-.3.5-.5.9-.5.2 0 .3 0 .5.1.5.3.6.9.4 1.4-.3.6-.7 1.2-1 1.7-.2.4-.6.6-.9.6m246.5-7.9c-.3 0-.7-.2-.8-.5-.4-.6-.7-1.1-1.1-1.7-.3-.5-.2-1.1.3-1.4.2-.1.4-.2.5-.2.3 0 .6.2.8.5.4.6.7 1.1 1.1 1.7.3.5.2 1.1-.3 1.4-.2.2-.4.2-.5.2m-239.2-4.1c-.2 0-.4-.1-.6-.2-.5-.3-.6-.9-.3-1.4l.1-.2c.3-.5.7-1 1-1.5.2-.3.5-.4.8-.4.2 0 .4.1.6.2.5.3.6.9.2 1.4-.3.5-.7 1-1 1.4l-.1.2c0 .3-.4.5-.7.5m231.1-7.3c-.3 0-.6-.1-.8-.4-.4-.5-.8-1-1.2-1.6-.3-.4-.3-1.1.2-1.4.2-.1.4-.2.6-.2.3 0 .6.1.8.4.4.5.8 1.1 1.3 1.6.3.4.3 1.1-.2 1.4-.3.1-.5.2-.7.2m-222.6-3.9c-.2 0-.5-.1-.6-.2-.4-.4-.5-1-.1-1.4.4-.5.9-1 1.3-1.5.2-.2.5-.3.8-.3.2 0 .5.1.7.2.4.4.5 1 .1 1.4-.4.5-.9 1-1.3 1.5-.3.2-.6.3-.9.3m213.4-6.8c-.3 0-.5-.1-.7-.3-.5-.5-.9-1-1.4-1.4-.4-.4-.4-1 0-1.4.2-.2.4-.3.7-.3.3 0 .5.1.7.3.5.5.9 1 1.4 1.5.4.4.4 1 0 1.4-.2.1-.5.2-.7.2m-203.8-3.5c-.3 0-.5-.1-.7-.3-.4-.4-.4-1 0-1.4.5-.5 1-.9 1.5-1.4.2-.2.4-.3.7-.3.3 0 .5.1.7.3.4.4.4 1 0 1.4-.5.5-1 .9-1.4 1.4-.3.2-.6.3-.8.3m193.6-6.2c-.2 0-.5-.1-.7-.2-.5-.4-1-.9-1.5-1.3-.4-.4-.5-1-.1-1.4.2-.2.5-.4.8-.4.2 0 .5.1.6.2.5.4 1 .9 1.5 1.3.4.4.5 1 .1 1.4-.1.3-.4.4-.7.4m-183.1-3.1c-.3 0-.6-.1-.8-.4-.3-.4-.3-1.1.2-1.4.5-.4 1.1-.8 1.6-1.3.2-.1.4-.2.6-.2.3 0 .6.1.8.4.3.4.3 1.1-.2 1.4-.5.4-1 .8-1.6 1.2-.2.2-.4.3-.6.3m172-5.5c-.2 0-.4-.1-.6-.2-.5-.4-1.1-.8-1.6-1.1-.5-.3-.6-.9-.3-1.4.2-.3.5-.4.8-.4.2 0 .4.1.6.2.6.4 1.1.8 1.7 1.2.5.3.6.9.2 1.4-.1.1-.4.3-.8.3m-179.8 44c13.8-18.7 32.4-32.8 54.1-41.1 13.8-5.3 28.4-8 43.3-8 29.3 0 57.5 10.6 79.5 29.8 21.8 19 36.2 45.1 40.3 73.6.9 5.8 1.3 11.8 1.3 17.8 0 22.7-6.3 44.9-18.3 64.1-10.7 17.1-25.6 31.4-43.2 41.4-18.1 10.3-38.7 15.7-59.7 15.7-3.3 0-6.5-.1-9.8-.4-29.4-2.3-56.9-15.4-77.4-36.6-17.9-18.6-29.3-41.8-32.8-67.3a119 119 0 01-1.2-16.9c0-13.4 2.2-26.5 6.4-38.9-2.8-1.6-5.2-4-6.8-6.8-.3-.5-.5-1-.8-1.5-1.1-2.4-1.7-5-1.7-7.9 0-10.3 8.4-18.7 18.7-18.7 3-.1 5.7.6 8.1 1.7m19.1-46.8c-.3 0-.6-.2-.8-.5-.3-.5-.2-1.1.3-1.4.6-.4 1.1-.7 1.7-1.1.2-.1.4-.2.5-.2.3 0 .7.2.8.5.3.5.2 1.1-.3 1.4-.6.4-1.1.7-1.7 1.1-.1.1-.3.2-.5.2m12.2-7.1c-.4 0-.7-.2-.9-.5-.3-.5-.1-1.1.4-1.3l1.8-.9c.1-.1.3-.1.4-.1.4 0 .7.2.9.5.2.5.1 1.1-.4 1.3l-1.8.9c-.1.1-.3.1-.4.1m12.7-5.9c-.4 0-.8-.2-.9-.6-.2-.5 0-1.1.6-1.3.6-.3 1.3-.5 1.9-.7.1 0 .2-.1.4-.1.4 0 .8.2.9.6.2.5-.1 1.1-.6 1.3-.6.2-1.2.5-1.9.7-.1.1-.3.1-.4.1m98.3-3.1c-.1 0-.2 0-.3-.1-.6-.2-1.3-.4-1.9-.6-.5-.2-.8-.7-.7-1.3.1-.4.5-.7 1-.7h.3c.6.2 1.3.4 1.9.6.5.2.8.7.6 1.3-.1.5-.5.8-.9.8m-85-1.5c-.4 0-.8-.3-1-.7-.2-.5.1-1.1.7-1.2.6-.2 1.3-.4 1.9-.6h.3c.4 0 .8.3 1 .7.1.5-.2 1.1-.7 1.2-.6.2-1.3.4-1.9.5-.1.1-.2.1-.3.1m71.5-2.3h-.2c-.6-.1-1.3-.3-1.9-.4-.5-.1-.9-.6-.8-1.2.1-.5.5-.8 1-.8h.2c.7.1 1.3.3 2 .4.5.1.9.7.8 1.2-.3.5-.7.8-1.1.8m-57.8-.9c-.5 0-.9-.3-1-.8-.1-.5.3-1.1.8-1.2.7-.1 1.3-.2 2-.4h.2c.5 0 .9.3 1 .8.1.5-.3 1.1-.8 1.2-.7.1-1.3.2-2 .4h-.2m85.7 22.9c-4.9 0-9.1-2.7-11.4-6.6-.2-.3-.4-.7-.6-1.1-.8-1.7-1.2-3.6-1.2-5.5 0-7.3 5.9-13.2 13.2-13.2 7.3 0 13.2 5.9 13.2 13.2 0 1.8-.4 3.5-1 5 .1.3.1.6-.1.8-.1.2-.3.4-.5.5-2.2 4.1-6.6 6.9-11.6 6.9m-41.8-24.3h-.1c-.7-.1-1.3-.2-2-.2-.5-.1-.9-.6-.9-1.1.1-.5.5-.9 1-.9h.1c.7.1 1.3.1 2 .2.5.1.9.6.9 1.1 0 .5-.5.9-1 .9m-30-.5c-.5 0-.9-.4-1-.9 0-.5.4-1 .9-1.1.7-.1 1.3-.1 2-.2h.1c.5 0 1 .4 1 .9s-.4 1-.9 1.1c-.7 0-1.4.1-2.1.2m16-.6h-2c-.6 0-1-.5-1-1s.5-1 1-1h2c.6 0 1 .5 1 1 0 .6-.4 1-1 1m-3.5-30.5c-21.3 0-42.1 3.8-61.7 11.4-16.3 6.2-31.6 14.9-45.3 25.8-13.6 10.8-25.5 23.5-35.4 37.8-19.8 28.8-30.3 62.6-30.3 97.7 0 8 .6 16.1 1.7 24.1 2.5 18.2 7.9 35.8 16 52.2 7.9 16.1 18.3 30.8 30.7 43.7 29.3 30.3 68.5 48.9 110.3 52.2 4.6.4 9.3.6 13.9.6 4.7 0 9.4-.2 14.1-.6 2.4-1.9 4.9-3.6 7.5-5.1 12.4-7.1 26.5-8.9 41-8.9 2.2 0 4.4 0 6.6.1 5.4-2.4 10.6-5 15.8-7.9 8.2-4.6 15.9-9.9 23.2-15.8-.7-.9-1.4-1.9-2-3-.4-.8-.8-1.5-1.2-2.3-1.7-3.7-2.6-7.7-2.6-12.1 0-15.9 12.9-28.8 28.8-28.8 5.4 0 10.4 1.5 14.7 4 .2-.4.5-.7.7-1.1 9.1-14.5 15.9-30.3 20.3-46.7-12.6-20.3-16-46.2-15.7-70.6.2-14.7 1.7-30 7-43.5-10.2-23.1-25.4-44-44.8-60.9-31.3-27.3-71.6-42.3-113.3-42.3m75.4-18.2c-5.6 0-11.2.7-16.8 2.2-9.8 2.7-18.8 7.9-28.6 10.5-4.7 1.3-9.5 1.9-14.4 2.2 37 3.3 72.2 18.1 100.4 42.7 18.9 16.5 34 36.6 44.3 58.9 2-4.2 4.5-8.2 7.5-11.9 6.4-8 14.9-14.2 20.8-22.6C439.5 82 379 75 349.3 61.1c-17.4-8.3-36.6-15.8-55.5-15.8m-166-.9C100 44.4 69.4 57 60.2 83.2c-4.3 12.1-3.4 25.3-3.6 38.1-.5 32.3-8.3 64.4-22.5 93.4-12.6 25.8-30.8 53.9-20.8 80.8 11.5 30.8 53.3 39.7 68.8 68.6 9 16.9 7.3 37.2 5.6 56.3-.3 3.6-.6 7.4.5 10.8 2 6.1 8.1 9.8 14 12.3 10 4.1 20.7 5.8 31.5 5.8h.1c14.2 0 28.6-2.9 42.2-7 12.2-3.6 24.2-8.2 34.5-15.6 5.9-4.3 11.2-9.4 16.7-14.2-2.9.1-5.9.2-8.9.2-4.7 0-9.5-.2-14.3-.6-42.8-3.4-82.9-22.4-112.9-53.4-12.8-13.2-23.4-28.3-31.5-44.7-8.3-16.8-13.8-34.8-16.4-53.4-1.1-8.1-1.7-16.4-1.7-24.6 0-35.9 10.7-70.5 31-100 10.1-14.6 22.2-27.7 36.2-38.7 14.1-11.1 29.7-20 46.4-26.4 19.7-7.6 40.6-11.5 61.9-11.6-1.5-.2-3.1-.4-4.6-.6-27.9-4-55.1-14-83.3-14.5-.3.2-.8.2-1.3.2" clip-path="url(#SVGID_2_)" fill="#e8f1fa"/><path d="M331.1 423.3c-13 0-26.3-1.1-38.8-4.8-6.7-2-13.2-4.7-19.5-7.3-4.5-1.9-9.1-3.8-13.7-5.4-16.6-5.9-34-8.4-50.3-10.5-21.4-2.7-44.1-5.1-66.7-1.6-8.2 1.3-16.5 3.4-24.6 5.4-15.2 3.9-31 7.9-46.8 6.4-8.5-.8-14.7-3.2-18.9-7.3-6.3-6.3-7.4-15.7-8.1-24.9-1.1-16.1-2-34.8.8-53.1 1.5-9.7 4.1-19.4 6.5-28.7 2.6-9.7 5.2-19.7 6.7-29.8 2-13.6 2.9-39.1-13.2-56.1-3.8-4-8.3-7.3-12.7-10.5-4.6-3.4-9.4-6.8-13.3-11.1-5.8-6.3-8.5-12.9-8-19.5 1.1-14 16.3-26.3 28.5-36.1 3.4-2.7 6.6-5.3 9.3-7.8l.3.4-.3-.4C79 92.9 110.8 64.2 149.9 47.9c33.9-14.1 83.3-19.8 120.3 6.9C276.9 59.6 283 65.4 289 71c4.3 4 8.7 8.2 13.3 12 15.1 12.4 33.2 21.4 52.3 25.8 4.6 1.1 9.4 1.9 14 2.7 11.6 2 23.6 4.1 33.9 10 15.9 9 27 27.2 29 47.3 1.7 17.7-3.4 37.1-14.3 54.6-3.4 5.4-7.3 10.7-11 15.8-7.6 10.2-15.4 20.8-19.1 33-3.9 12.7-3.2 26.2-2.5 39.3l3.7 68.8c.7 13.6.1 32.4-13.6 39.1-4.5 2.2-9.7 2.5-14.3 2.8-9.3.5-19.3 1.1-29.3 1.1m-164.7-32.4c14.5 0 28.8 1.6 42.5 3.4 16.4 2.1 33.9 4.7 50.6 10.6 4.7 1.6 9.3 3.6 13.8 5.5 6.3 2.6 12.7 5.3 19.4 7.3 22.1 6.5 45.3 5 67.8 3.5 4.5-.3 9.6-.6 13.9-2.7 13.1-6.4 13.7-24.8 13-38.1l-3.7-68.8c-.7-13.1-1.4-26.7 2.5-39.6 3.8-12.4 11.7-23 19.3-33.3 3.7-5.1 7.6-10.3 11-15.7 10.8-17.4 15.8-36.6 14.1-54-1.9-19.8-12.8-37.6-28.5-46.5-10.2-5.8-22.1-7.9-33.6-9.9-4.6-.8-9.4-1.6-14.1-2.7-19.2-4.4-37.5-13.4-52.7-26-4.6-3.8-9-8-13.3-12-5.9-5.6-12-11.4-18.7-16.2C233 29.3 184 34.9 150.4 49 111.3 65 79.6 93.7 49 121.4c-2.7 2.5-5.9 5.1-9.4 7.8-12.1 9.7-27.1 21.9-28.1 35.4-.5 6.4 2.1 12.5 7.8 18.8 3.9 4.2 8.6 7.6 13.2 11 4.4 3.2 9 6.6 12.9 10.6 16.3 17.3 15.4 43.1 13.4 56.9-1.5 10.1-4.1 20.2-6.7 29.9-2.5 9.3-5 19-6.5 28.6-2.8 18.2-1.9 36.8-.8 52.9.6 9 1.7 18.2 7.8 24.2 4 4 10 6.3 18.2 7 15.7 1.4 31.3-2.5 46.5-6.4 8.1-2 16.4-4.2 24.7-5.5 8-1.2 16.2-1.7 24.4-1.7" clip-path="url(#SVGID_2_)" fill="#e5eefe"/><defs><path id="SVGID_3_" d="M9.5 36h425.9v413.4H9.5V36"/></defs><clipPath id="SVGID_4_"><use xlink:href="#SVGID_3_" overflow="visible"/></clipPath><path class="st2" d="M427.4 318.4c0 3-2.4 5.4-5.4 5.4-3 0-5.4-2.4-5.4-5.4 0-3 2.4-5.4 5.4-5.4 3 0 5.4 2.4 5.4 5.4"/><path d="M394.1 119.5c0 1.5-1.2 2.7-2.7 2.7-1.5 0-2.7-1.2-2.7-2.7 0-1.5 1.2-2.7 2.7-2.7 1.5.1 2.7 1.3 2.7 2.7" clip-path="url(#SVGID_4_)" fill="#31c9ac"/><path class="st2" d="M393.1 37.9c-2.1 0-3.7 1.7-3.7 3.7 0 2.1 1.7 3.8 3.7 3.8s3.8-1.7 3.8-3.8c-.1-2-1.8-3.7-3.8-3.7"/><path class="st4" d="M160.2 292.4c-11.6-12-19.5-27.6-21.9-44.9 4.4 2 9.3 3.2 14 4.6 7.9 2.4 16.3 6.5 18.9 14.4 2.9 8.6-2.6 17.7-9 24-.7.6-1.3 1.3-2 1.9m-8.5-102c-8.9 13-14.2 28.8-14.2 45.8 0 3.8.3 7.6.8 11.3 2.4 17.3 10.3 32.9 21.9 44.9 13.3 13.8 31.4 22.8 51.7 24.5 2.2.2 4.3.3 6.5.3 29 0 54.4-15.2 68.7-38.1 7.8-12.4 12.2-27.1 12.2-42.8 0 15.7-4.5 30.4-12.2 42.8-14.3 22.9-39.7 38.1-68.7 38.1-2.2 0-4.4-.1-6.5-.3-20.2-1.6-38.4-10.7-51.7-24.5.2.1 8.1 3.7 21.8 3.7 8.2 0 18.4-1.3 30.3-5.3 2.3-11.9 5.3-23.6.5-34.3-6.4-14.3-23.6-19.6-36.4-28.7-12.5-8.8-21.4-22.5-24.7-37.4m99.1-28.4c.1 0 .1 0 0 0 .1 0 .1 0 0 0m-.1-.1s.1.1 0 0c.1.1 0 0 0 0m-28.6-6.6h.4-.4m-.1 0s.1 0 0 0c.1 0 0 0 0 0m-.2 0s.1 0 0 0c.1 0 0 0 0 0m-.2 0h.3-.3m-.2 0c.1 0 .1 0 0 0 .1 0 .1 0 0 0m-.2 0c.1 0 .1 0 0 0 .1 0 .1 0 0 0m-.2 0h.2-.2m-.1 0c.1 0 0 0 0 0m-.1 0c.1 0 .1 0 0 0 .1 0 .1 0 0 0m-.1 0s.1 0 0 0c.1 0 0 0 0 0m-.2 0s.1 0 0 0c.1 0 0 0 0 0m-.4 0c.1 0 .1 0 0 0 .1 0 .1 0 0 0m-.2-.1c.1 0 .1.1 0 0 .1.1.1 0 0 0m-.4 0c.1 0 .1 0 0 0 .1 0 .1 0 0 0m-.3 0s.1 0 0 0c.1 0 0 0 0 0m-.2 0s.1 0 0 0c.1 0 0 0 0 0m-.2 0s.1 0 0 0c.1 0 0 0 0 0m-.2 0c.1 0 .1 0 0 0 .1 0 .1 0 0 0m-.2 0c.1 0 .1 0 0 0 .1 0 0 0 0 0"/><path class="st5" d="M189.5 160.6c-15.4 5.9-28.6 16.4-37.8 29.8 3.3 14.9 12.2 28.6 24.7 37.4 12.8 9.1 30 14.3 36.4 28.7 4.8 10.7 1.8 22.5-.5 34.3 13-4.4 28.1-12.1 44.6-25.1-2-2.4-3.6-5.1-4.5-8.1-3.6-11.3 1.9-24.2-2.5-35.3-6.3-16-27.9-18-42.3-27.6-11.1-7.5-17.9-20.8-18.1-34.1"/><path class="st6" d="M299.4 235.7s0 .1 0 0c0 .1 0 0 0 0m0-.1s0 .1 0 0c0 .1 0 0 0 0m0-.1s0 .1 0 0c0 .1 0 0 0 0m0-.1s0 .1 0 0c0 .1 0 0 0 0m0-.1c0 .1 0 .1 0 0 0 .1 0 .1 0 0m0-.1c0 .1 0 .1 0 0 0 .1 0 .1 0 0m0-.2c0 .1 0 .1 0 0 0 .1 0 .1 0 0m-.1-.1c.1 0 .1 0 0 0 .1 0 .1 0 0 0m0-1.2c0 .1 0 .1 0 0 0 .1 0 .1 0 0m-80.9-78.5c-10.2 0-19.9 1.9-28.9 5.3.2 13.3 7 26.6 18.2 34 14.3 9.6 35.9 11.6 42.3 27.6 4.4 11-1.1 24 2.5 35.3 1 3 2.5 5.7 4.5 8.1 13-10.2 26.9-23.7 41.5-41.4.4 2.8.7 5.6.8 8.4-1.3-31.4-20.6-58.2-47.9-70.4h-.1c-.1 0-.2-.1-.3-.1-8.7-3.8-18.1-6.1-28.1-6.6H220c-1.5-.2-1.5-.2-1.6-.2.1 0 .1 0 0 0 .1 0 .1 0 0 0"/><path class="st5" d="M138.3 247.4c2.4 17.3 10.3 32.9 21.9 44.9.7-.6 1.3-1.3 2-1.9 6.4-6.4 11.8-15.5 9-24-2.6-7.8-11-11.9-18.9-14.4-4.7-1.3-9.6-2.6-14-4.6"/><path class="st7" d="M212.3 290.8c-11.9 4-22.1 5.3-30.3 5.3-13.7 0-21.6-3.6-21.8-3.7 13.3 13.8 31.4 22.8 51.7 24.5-.6-2-1-4.1-1.2-6.2-.7-6.6.3-13.3 1.6-19.9m87-56.1s0 .1 0 0c0 .1 0 0 0 0m0-.2c0 .1 0 .1 0 0 0 .1 0 .1 0 0m0-.2c0 .1 0 .1 0 0 0 .1 0 .1 0 0m0-.2c0 .1 0 .1 0 0 0 .1 0 .1 0 0m0-1.1c0 .1 0 .1 0 0 0 .1 0 .1 0 0m0-.1c0 .1 0 .1 0 0 0 .1 0 0 0 0m0-.2"/><path d="M256.9 265.7c-16.5 13-31.6 20.7-44.6 25.1-1.3 6.6-2.3 13.3-1.6 19.9.2 2.1.6 4.2 1.2 6.2 2.2.2 4.3.3 6.5.3 29 0 54.4-15.2 68.7-38.1-4.2-.4-8.4-1.1-12.4-2.2-6.8-2.2-13.3-5.9-17.8-11.2" fill="#171fc5"/><path class="st5" d="M298.5 224.3C283.9 242 270 255.5 257 265.7c4.4 5.3 11 9.1 17.7 11.1 4.1 1.2 8.2 1.9 12.4 2.2 7.8-12.4 12.2-27.1 12.2-42.8v-3.3c-.1-3.1-.4-5.9-.8-8.6"/><path class="st5" d="M218.4 115c-14.9 0-29.5 2.7-43.3 8-21.7 8.3-40.3 22.5-54.1 41.1 1.2.6 2.4 1.3 3.4 2.1 13.3-17.9 31.3-31.5 52.1-39.5 13.4-5.1 27.5-7.7 41.9-7.7 28.3 0 55.6 10.2 76.9 28.8 21.1 18.4 35 43.7 39 71.2.8 5.6 1.3 11.4 1.3 17.2 0 22-6.1 43.4-17.7 62-10.3 16.6-24.8 30.4-41.8 40-17.5 9.9-37.5 15.2-57.7 15.2-3.1 0-6.3-.1-9.5-.4-28.4-2.3-55-14.8-74.9-35.4-17.3-18-28.3-40.5-31.8-65.1-.8-5.4-1.1-10.9-1.1-16.3 0-12.8 2.1-25.4 6-37.3-1.3-.4-2.5-1-3.7-1.6-4.2 12.4-6.4 25.5-6.4 38.9 0 5.6.4 11.3 1.2 16.9 3.5 25.5 14.9 48.7 32.8 67.3 20.5 21.3 48 34.3 77.4 36.6 3.2.3 6.5.4 9.8.4 20.9 0 41.6-5.4 59.7-15.7 17.6-10 32.5-24.3 43.2-41.4 12-19.2 18.3-41.4 18.3-64.1 0-6-.4-12-1.3-17.8-4.2-28.5-18.5-54.6-40.3-73.6-21.9-19.3-50.1-29.8-79.4-29.8M116.1 337.3c-.3 0-.5-.1-.7-.3l-.7-.7-.7-.7c-.4-.4-.4-1 0-1.4.4-.4 1-.4 1.4 0l.7.7.7.7c.4.4.4 1 0 1.4-.2.2-.4.3-.7.3zm98.9 41c-.5 0-1 .4-1 1s.4 1 1 1h2c.5 0 1-.4 1-1s-.4-1-1-1h-2m16.1-.5s-.1 0 0 0c-.8.1-1.4.1-2.1.2-.5 0-1 .5-.9 1.1 0 .5.5.9 1 .9h.1c.7 0 1.3-.1 2-.2.5 0 1-.5.9-1.1-.1-.5-.5-.9-1-.9m-30.1-.5c-.5 0-.9.4-1 .9-.1.5.3 1 .9 1.1.7.1 1.3.2 2 .2h.1c.5 0 .9-.4 1-.9.1-.5-.3-1-.9-1.1-.7-.1-1.3-.1-2-.2h-.1m44-1.4h-.2c-.7.1-1.3.2-2 .4-.5.1-.9.6-.8 1.2.1.5.5.8 1 .8h.2c.7-.1 1.3-.2 2-.4.5-.1.9-.6.8-1.2-.1-.5-.5-.8-1-.8m-57.8-1c-.5 0-.9.3-1 .8-.1.5.2 1.1.8 1.2.7.1 1.3.3 2 .4h.2c.5 0 .9-.3 1-.8.1-.5-.2-1.1-.8-1.2-.7-.1-1.3-.3-2-.4h-.2m71.5-2.3h-.3c-.6.2-1.3.4-1.9.5-.5.1-.8.7-.7 1.2.1.4.5.7 1 .7h.3c.6-.2 1.3-.4 1.9-.6.5-.2.8-.7.7-1.2-.2-.3-.6-.6-1-.6m-85.1-1.4c-.4 0-.8.3-.9.7-.2.5.1 1.1.6 1.3.6.2 1.3.4 1.9.6h.3c.4 0 .8-.3 1-.7.2-.5-.1-1.1-.7-1.3-.6-.2-1.3-.4-1.9-.6h-.3m98.3-3.2c-.1 0-.3 0-.4.1-.6.2-1.2.5-1.8.7-.5.2-.8.8-.6 1.3.2.4.5.6.9.6.1 0 .2 0 .4-.1.6-.2 1.3-.5 1.9-.7.5-.2.8-.8.6-1.3-.2-.4-.6-.6-1-.6m-111.4-1.9c-.4 0-.7.2-.9.6-.2.5 0 1.1.5 1.3.6.3 1.2.5 1.9.8.1.1.3.1.4.1.4 0 .8-.2.9-.6.2-.5 0-1.1-.5-1.3-.6-.3-1.2-.5-1.8-.8-.2-.1-.4-.1-.5-.1m124.2-4c-.2 0-.3 0-.5.1l-1.8.9c-.5.2-.7.8-.4 1.3.2.3.5.5.9.5.2 0 .3 0 .4-.1l1.8-.9c.5-.3.7-.9.4-1.3-.1-.3-.5-.5-.8-.5m-136.8-2.3c-.3 0-.7.2-.9.5-.3.5-.1 1.1.4 1.4.6.3 1.2.7 1.8 1 .2.1.3.1.5.1.4 0 .7-.2.9-.5.3-.5.1-1.1-.4-1.4-.6-.3-1.2-.6-1.7-1-.2-.1-.4-.1-.6-.1m148.9-4.8c-.2 0-.4.1-.5.2-.6.4-1.1.7-1.7 1.1-.5.3-.6.9-.3 1.4.2.3.5.5.8.5.2 0 .4-.1.5-.2.6-.4 1.1-.7 1.7-1.1.5-.3.6-.9.3-1.4-.2-.3-.5-.5-.8-.5m-160.7-2.7c-.3 0-.6.1-.8.4-.3.5-.2 1.1.2 1.4.6.4 1.1.8 1.7 1.2.2.1.4.2.6.2.3 0 .6-.2.8-.4.3-.5.2-1.1-.3-1.4-.5-.4-1.1-.8-1.6-1.1-.2-.3-.4-.3-.6-.3m172-5.6c-.2 0-.4.1-.6.2-.5.4-1 .8-1.6 1.2-.4.3-.5 1-.2 1.4.2.3.5.4.8.4.2 0 .4-.1.6-.2.5-.4 1.1-.8 1.6-1.3.4-.3.5-1 .2-1.4-.2-.1-.5-.3-.8-.3M125 343.6c-.3 0-.6.1-.8.3-.4.4-.3 1 .1 1.4.5.4 1 .9 1.5 1.3.2.2.4.2.6.2.3 0 .6-.1.8-.4.4-.4.3-1.1-.1-1.4-.5-.4-1-.9-1.5-1.3-.1 0-.4-.1-.6-.1m193.6-6.2c-.3 0-.5.1-.7.3-.5.5-1 .9-1.4 1.4-.4.4-.4 1 0 1.4.2.2.5.3.7.3.2 0 .5-.1.7-.3.5-.5 1-.9 1.5-1.4.4-.4.4-1 0-1.4-.3-.2-.5-.3-.8-.3m9.6-10.3c-.3 0-.6.1-.8.4-.4.5-.9 1-1.3 1.5-.4.4-.3 1 .1 1.4.2.2.4.2.7.2.3 0 .6-.1.8-.3.4-.5.9-1 1.3-1.5.4-.4.3-1.1-.1-1.4-.3-.2-.5-.3-.7-.3m-222.6-3.9c-.2 0-.4.1-.6.2-.4.3-.5 1-.2 1.4.4.5.8 1.1 1.3 1.6.2.2.5.4.8.4.2 0 .4-.1.6-.2.4-.3.5-1 .2-1.4-.4-.5-.8-1-1.2-1.6-.3-.2-.6-.4-.9-.4m231.1-7.3c-.3 0-.6.2-.8.4-.4.5-.8 1.1-1.1 1.6-.3.5-.2 1.1.2 1.4.2.1.4.2.6.2.3 0 .6-.1.8-.4.4-.6.8-1.1 1.2-1.7.3-.5.2-1.1-.3-1.4-.3 0-.4-.1-.6-.1m-239.2-4.1c-.2 0-.4.1-.5.2-.5.3-.6.9-.3 1.4.4.6.7 1.1 1.1 1.7.2.3.5.5.8.5.2 0 .4-.1.5-.2.5-.3.6-.9.3-1.4-.4-.6-.7-1.1-1.1-1.7-.2-.4-.5-.5-.8-.5m246.5-7.9c-.4 0-.7.2-.9.5-.3.6-.6 1.2-1 1.7-.3.5-.1 1.1.4 1.4.2.1.3.1.5.1.3 0 .7-.2.9-.5.3-.6.7-1.2 1-1.8.3-.5.1-1.1-.4-1.4-.2.1-.3 0-.5 0m-253.5-4.3c-.2 0-.3 0-.4.1-.5.2-.7.8-.4 1.3l.9 1.8c.2.3.5.5.9.5.2 0 .3 0 .5-.1.5-.3.7-.9.4-1.3l-.9-1.8c-.2-.3-.6-.5-1-.5m259.7-8.3c-.4 0-.8.2-.9.6-.3.6-.5 1.2-.8 1.8-.2.5 0 1.1.5 1.3.1.1.3.1.4.1.4 0 .7-.2.9-.6.3-.6.5-1.2.8-1.9.2-.5 0-1.1-.5-1.3h-.4m-265.4-4.6c-.1 0-.2 0-.4.1-.5.2-.8.8-.6 1.3.2.6.5 1.3.7 1.9.2.4.5.6.9.6.1 0 .3 0 .4-.1.5-.2.8-.8.6-1.3-.2-.6-.5-1.2-.7-1.9-.1-.3-.5-.6-.9-.6m270.2-8.6c-.4 0-.8.3-.9.7-.2.6-.4 1.3-.6 1.9-.2.5.1 1.1.6 1.3.1 0 .2.1.3.1.4 0 .8-.3.9-.7.2-.6.4-1.3.6-1.9.2-.5-.1-1.1-.7-1.3 0-.1-.1-.1-.2-.1m-274.6-4.7h-.3c-.5.1-.8.7-.7 1.2.2.6.4 1.3.6 1.9.1.4.5.7 1 .7h.3c.5-.2.8-.7.7-1.2-.2-.6-.4-1.3-.5-1.9-.2-.4-.6-.7-1.1-.7m278.2-8.9c-.5 0-.9.3-1 .8-.1.7-.3 1.3-.4 2-.1.5.2 1.1.8 1.2h.2c.5 0 .9-.3 1-.8.1-.7.3-1.3.4-2 .1-.5-.2-1.1-.8-1.2h-.2m-281.2-4.8h-.2c-.5.1-.9.6-.8 1.2.1.7.2 1.3.4 2 .1.5.5.8 1 .8h.2c.5-.1.9-.6.8-1.2-.1-.7-.2-1.3-.4-2-.1-.5-.6-.8-1-.8m283.4-9.1c-.5 0-.9.4-1 .9-.1.7-.1 1.3-.2 2-.1.5.3 1 .9 1.1h.1c.5 0 .9-.4 1-.9.1-.7.2-1.3.2-2 .1-.5-.3-1-.9-1.1h-.1m-285.1-4.9c-.1 0-.1 0 0 0-.6 0-1 .5-1 1.1 0 .7.1 1.3.2 2 0 .5.5.9 1 .9h.1c.5 0 1-.5.9-1.1-.1-.7-.1-1.3-.2-2-.1-.5-.5-.9-1-.9m285.9-9.1c-.6 0-1 .4-1 1v2c0 .6.4 1 1 1 .5 0 1-.4 1-1v-2c0-.6-.5-1-1-1m-286.3-4.9c-.5 0-1 .4-1 1v2c0 .6.4 1 1 1 .5 0 1-.4 1-1v-2c0-.6-.4-1-1-1m285.7-9.2c-.6.1-1 .5-1 1.1.1.7.1 1.3.2 2 0 .5.5.9 1 .9h.1c.5 0 1-.5.9-1.1 0-.7-.1-1.3-.2-2 0-.5-.4-.9-1-.9m-284.7-4.8c-.5 0-.9.4-1 .9-.1.7-.2 1.3-.2 2-.1.5.3 1 .9 1.1h.1c.5 0 .9-.4 1-.9.1-.7.1-1.3.2-2 .1-.5-.3-1-.9-1.1h-.1m282.8-9.1h-.2c-.5.1-.9.6-.8 1.2.1.7.2 1.3.4 2 .1.5.5.8 1 .8h.2c.5-.1.9-.6.8-1.2-.1-.7-.2-1.3-.4-2-.1-.4-.5-.8-1-.8m-280.4-4.8c-.5 0-.9.3-1 .8-.1.7-.3 1.3-.4 2-.1.5.2 1.1.8 1.2h.2c.5 0 .9-.3 1-.8.1-.7.3-1.3.4-2 .1-.5-.2-1.1-.8-1.2h-.2m277.2-8.8h-.3c-.5.2-.8.7-.7 1.2.2.6.4 1.3.5 1.9.1.4.5.7 1 .7h.3c.5-.1.8-.7.7-1.2-.2-.7-.4-1.3-.6-1.9-.1-.4-.5-.7-.9-.7m-273.4-4.7c-.4 0-.8.3-.9.7-.2.6-.4 1.3-.6 1.9-.2.5.1 1.1.7 1.3h.3c.4 0 .8-.3 1-.7.2-.6.4-1.3.6-1.9.2-.5-.1-1.1-.6-1.3h-.5m268.8-8.6c-.1 0-.2 0-.4.1-.5.2-.8.8-.6 1.3.2.6.5 1.2.7 1.8.2.4.5.6.9.6.1 0 .2 0 .4-.1.5-.2.8-.8.6-1.3-.2-.6-.5-1.3-.7-1.9-.2-.3-.5-.5-.9-.5m-263.8-4.6c-.4 0-.7.2-.9.6-.3.6-.5 1.2-.8 1.9-.2.5 0 1.1.5 1.3.1.1.3.1.4.1.4 0 .8-.2.9-.6.3-.6.5-1.2.8-1.8.2-.5 0-1.1-.5-1.3-.1-.1-.2-.2-.4-.2m257.9-8.1c-.2 0-.3 0-.5.1-.5.3-.7.9-.4 1.3l.9 1.8c.2.3.5.5.9.5.2 0 .3 0 .4-.1.5-.2.7-.8.4-1.3l-.9-1.8c-.1-.3-.5-.5-.8-.5m-251.5-4.4c-.3 0-.7.2-.9.5-.3.6-.7 1.2-1 1.8-.3.5-.1 1.1.4 1.4.2.1.3.1.5.1.4 0 .7-.2.9-.5.3-.6.6-1.2 1-1.7.3-.5.1-1.1-.4-1.4-.2-.2-.4-.2-.5-.2m244.4-7.8c-.2 0-.4.1-.5.2-.5.3-.6.9-.3 1.4.4.6.7 1.1 1.1 1.7.2.3.5.5.8.5.2 0 .4-.1.5-.2.5-.3.6-.9.3-1.4-.4-.6-.7-1.1-1.1-1.7-.2-.3-.5-.5-.8-.5m-236.9-4.1c-.3 0-.6.1-.8.4-.3.5-.7 1-1 1.5l-.1.2c-.3.5-.2 1.1.3 1.4.2.1.4.2.6.2.3 0 .6-.2.8-.4l.1-.2c.3-.5.7-1 1-1.4.3-.5.2-1.1-.2-1.4-.3-.2-.5-.3-.7-.3m228.6-7.2c-.2 0-.4.1-.6.2-.4.3-.5 1-.2 1.4.4.5.8 1 1.2 1.6.2.3.5.4.8.4.2 0 .4-.1.6-.2.4-.3.5-1 .2-1.4-.4-.5-.8-1.1-1.3-1.6-.1-.3-.4-.4-.7-.4m-220-3.8c-.3 0-.6.1-.8.3-.4.5-.9 1-1.3 1.5-.4.4-.3 1.1.1 1.4.2.2.4.2.6.2.3 0 .6-.1.8-.4.4-.5.9-1 1.3-1.5.4-.4.3-1-.1-1.4-.1-.1-.3-.1-.6-.1m210.7-6.7c-.3 0-.5.1-.7.3-.4.4-.4 1 0 1.4.5.5.9 1 1.4 1.4.2.2.5.3.7.3.2 0 .5-.1.7-.3.4-.4.4-1 0-1.4-.5-.5-.9-1-1.4-1.5-.2-.1-.5-.2-.7-.2m-201-3.5c-.2 0-.5.1-.7.3-.5.5-1 .9-1.5 1.4-.4.4-.4 1 0 1.4.2.2.5.3.7.3.3 0 .5-.1.7-.3.5-.5 1-.9 1.4-1.4.4-.4.4-1 0-1.4-.1-.2-.3-.3-.6-.3m190.7-6.1c-.3 0-.6.1-.8.4-.4.4-.3 1.1.1 1.4.5.4 1 .9 1.5 1.3.2.2.4.2.7.2.3 0 .6-.1.8-.3.4-.4.3-1-.1-1.4-.5-.4-1-.9-1.5-1.3-.3-.2-.5-.3-.7-.3m-180.1-3.1c-.2 0-.4.1-.6.2-.5.4-1.1.8-1.6 1.3-.4.3-.5 1-.2 1.4.2.2.5.4.8.4.2 0 .4-.1.6-.2.5-.4 1-.8 1.6-1.2.4-.3.5-1 .2-1.4-.2-.4-.5-.5-.8-.5m168.9-5.4c-.3 0-.6.2-.8.4-.3.5-.2 1.1.3 1.4.5.4 1.1.8 1.6 1.1.2.1.4.2.6.2.3 0 .6-.1.8-.4.3-.5.2-1.1-.2-1.4-.6-.4-1.1-.8-1.7-1.2-.2 0-.4-.1-.6-.1m-157.4-2.7c-.2 0-.4.1-.5.2-.6.4-1.1.7-1.7 1.1-.5.3-.6.9-.3 1.4.2.3.5.5.8.5.2 0 .4-.1.5-.2.6-.4 1.1-.7 1.7-1.1.5-.3.6-.9.3-1.4-.1-.3-.4-.5-.8-.5m148.1-3c-.2.4-.4.9-.6 1.3.2-.1.4-.2.5-.5.2-.2.2-.5.1-.8M154 107.3c-.2 0-.3 0-.4.1l-1.8.9c-.5.3-.7.9-.4 1.3.2.3.5.5.9.5.2 0 .3 0 .5-.1l1.8-.9c.5-.2.7-.8.4-1.3-.2-.3-.6-.5-1-.5m12.9-5.7c-.1 0-.2 0-.4.1-.6.2-1.3.5-1.9.7-.5.2-.8.8-.6 1.3.2.4.5.6.9.6.1 0 .2 0 .4-.1.6-.2 1.2-.5 1.9-.7.5-.2.8-.8.6-1.3-.1-.4-.5-.6-.9-.6m94.5-3c-.4 0-.8.3-1 .7-.2.5.1 1.1.7 1.3.6.2 1.3.4 1.9.6.1 0 .2.1.3.1.4 0 .8-.3.9-.7.2-.5-.1-1.1-.6-1.3-.6-.2-1.3-.4-1.9-.6-.1-.1-.2-.1-.3-.1m-81.2-1.4h-.3c-.6.2-1.3.4-1.9.6-.5.2-.8.7-.7 1.2.1.4.5.7 1 .7h.3c.6-.2 1.3-.4 1.9-.5.5-.1.8-.7.7-1.2-.1-.5-.5-.8-1-.8m67.6-2.2c-.5 0-.9.3-1 .8-.1.5.2 1.1.8 1.2.7.1 1.3.3 1.9.4h.2c.5 0 .9-.3 1-.8.1-.5-.2-1.1-.8-1.2-.7-.1-1.3-.3-2-.4h-.1m-53.9-.9h-.2c-.7.1-1.3.2-2 .4-.5.1-.9.6-.8 1.2.1.5.5.8 1 .8h.2c.7-.1 1.3-.2 2-.4.5-.1.9-.6.8-1.2-.1-.5-.5-.8-1-.8m40-1.3c-.5 0-.9.4-1 .9-.1.5.3 1 .9 1.1.7.1 1.3.1 2 .2h.1c.5 0 .9-.4 1-.9.1-.5-.3-1-.9-1.1-.7-.1-1.3-.2-2-.2h-.1m-26-.4c-.1 0-.1 0 0 0-.7.1-1.4.1-2.1.2-.5 0-1 .5-.9 1.1 0 .5.5.9 1 .9h.1c.7-.1 1.3-.1 2-.2.5 0 1-.5.9-1.1-.1-.5-.5-.9-1-.9m12-.4c-.6 0-1 .4-1 1s.4 1 1 1h2c.5 0 1-.4 1-1s-.4-1-1-1h-2"/><path class="st6" d="M218.4 59.5h-1.3c-21.3.1-42.2 4.1-61.9 11.6-16.7 6.4-32.3 15.3-46.4 26.4-13.9 11-26.1 24.1-36.2 38.7-20.3 29.5-31 64.1-31 100 0 8.2.6 16.5 1.7 24.6 2.6 18.6 8.1 36.6 16.4 53.4 8.1 16.4 18.7 31.5 31.5 44.7 29.9 31 70 50 112.9 53.4 4.7.4 9.5.6 14.3.6 3 0 5.9-.1 8.9-.2 24-1.2 47.6-7.3 69.1-17.9 3.1-1.5 6.1-3.1 9.1-4.8 8.4-4.8 16.4-10.2 23.9-16.3-.9-.9-1.8-1.9-2.6-3-7.3 5.9-15.1 11.2-23.2 15.8-5.1 2.9-10.4 5.5-15.8 7.9-17.4 7.6-36.1 12.3-55.1 13.9-4.7.4-9.4.6-14.1.6-4.6 0-9.3-.2-13.9-.6-41.9-3.3-81-21.9-110.3-52.2-12.5-12.9-22.8-27.6-30.7-43.7-8.1-16.5-13.5-34-16-52.2-1.1-7.9-1.7-16-1.7-24.1 0-35.1 10.5-68.9 30.3-97.7 9.8-14.3 21.7-27 35.4-37.8 13.8-10.9 29-19.6 45.3-25.8 19.7-7.5 40.5-11.4 61.7-11.4 41.7 0 81.9 15.1 113.4 42.4 19.4 16.9 34.6 37.7 44.8 60.9 6.1 14 10.4 28.8 12.7 44 1.2 8.3 1.9 16.9 1.9 25.4 0 15.2-2 30.2-5.9 44.7-4.4 16.4-11.2 32.1-20.3 46.7-.2.4-.5.8-.7 1.1 1.1.7 2.2 1.4 3.3 2.3.3-.4.5-.9.8-1.3 8.7-13.9 15.3-28.8 19.8-44.4 4.6-15.8 6.9-32.3 6.9-49.1 0-8.7-.6-17.5-1.9-26-2.5-16.8-7.4-33.1-14.5-48.4-10.4-22.3-25.4-42.5-44.3-58.9C306.2 78.3 271 63.4 234 60.2c-5.2-.5-10.4-.7-15.6-.7"/><path class="st4" d="M349.6 324.6c-15.9 0-28.8 12.9-28.8 28.8 0 4.3.9 8.4 2.6 12.1.4.8.8 1.6 1.2 2.3.6 1 1.3 2 2 3 .8 1.1 1.7 2.1 2.6 3 5.2 5.2 12.4 8.4 20.3 8.4 15.9 0 28.8-12.9 28.8-28.8 0 15.9-12.9 28.8-28.8 28.8-10.6 0-19.9-5.8-24.9-14.4-.7-1.4-1.2-2.2-1.2-2.3.2.2 7.4 5.6 18.9 5.6 9.6 0 22.1-3.8 36-17.7 0-9.1-4.2-17.2-10.8-22.4-1-.8-2.1-1.6-3.3-2.3-4.2-2.6-9.2-4.1-14.6-4.1"/><path class="st7" d="M378.4 353.4c-13.9 13.9-26.4 17.7-36 17.7-11.5 0-18.7-5.5-18.9-5.6 0 .1.5.9 1.2 2.3 5 8.6 14.3 14.4 24.9 14.4 15.9-.1 28.8-13 28.8-28.8"/><path class="st9" d="M113 162.3c-10.3 0-18.7 8.4-18.7 18.7 0 2.8.6 5.5 1.7 7.9.2.5.5 1 .8 1.5 1.6 2.8 4 5.2 6.8 6.8 1.1.7 2.4 1.2 3.7 1.6 1.8.6 3.7.9 5.7.9 10.3 0 18.7-8.4 18.7-18.7 0 10.3-8.4 18.7-18.7 18.7-6.9 0-13-3.8-16.2-9.4-.5-.9-.8-1.5-.8-1.5.1.1 4.8 3.7 12.3 3.7 6.2 0 14.4-2.5 23.4-11.5 0-6.1-2.9-11.5-7.3-14.9-1.1-.8-2.2-1.5-3.4-2.1-2.4-1-5.1-1.7-8-1.7"/><path class="st10" d="M131.8 181.1c-9 9-17.2 11.5-23.4 11.5-7.5 0-12.2-3.6-12.3-3.7 0 .1.3.6.8 1.5 3.2 5.6 9.3 9.4 16.2 9.4 10.3 0 18.7-8.4 18.7-18.7"/><path class="st9" d="M277.7 93c-7.3 0-13.2 5.9-13.2 13.2 0 2 .4 3.8 1.2 5.5.2.4.4.7.6 1.1 2.3 3.9 6.5 6.6 11.4 6.6 5 0 9.3-2.8 11.6-6.9.2-.4.4-.8.6-1.3.6-1.6 1-3.3 1-5 0 7.3-5.9 13.2-13.2 13.2-4.9 0-9.1-2.7-11.4-6.6-.3-.6-.5-1-.6-1.1.1.1 3.4 2.6 8.7 2.6 4.4 0 10.1-1.7 16.5-8.1 0-7.3-5.9-13.2-13.2-13.2"/><path class="st10" d="M290.9 106.2c-6.4 6.4-12.1 8.1-16.5 8.1-5.3 0-8.6-2.5-8.7-2.6 0 0 .2.4.6 1.1 2.3 3.9 6.5 6.6 11.4 6.6 7.3 0 13.2-5.9 13.2-13.2"/><path d="M376.7 98.8c0 2.3-1.9 4.2-4.2 4.2s-4.2-1.9-4.2-4.2 1.9-4.2 4.2-4.2 4.2 1.9 4.2 4.2zM88.4 288.2c0 2.3-1.9 4.2-4.2 4.2-2.3 0-4.2-1.9-4.2-4.2s1.9-4.2 4.2-4.2c2.3 0 4.2 1.9 4.2 4.2z" fill="#00b7e1"/><path class="st6" d="M59.3 367.7c0 2.3-1.9 4.2-4.2 4.2-2.3 0-4.2-1.9-4.2-4.2s1.9-4.2 4.2-4.2c2.3 0 4.2 1.9 4.2 4.2zm323.3-120.3c0 2.3-1.9 4.2-4.2 4.2s-4.2-1.9-4.2-4.2c0-2.3 1.9-4.2 4.2-4.2s4.2 1.9 4.2 4.2zM88 68.5c-.2 0-.4-.1-.6-.2-.3-.3-.3-.8 0-1.1l6.3-6.3c.3-.3.8-.3 1.1 0s.3.8 0 1.1l-6.3 6.3c-.1.2-.3.2-.5.2z"/><path class="st6" d="M94.3 68.5c-.2 0-.4-.1-.6-.2L87.4 62c-.3-.3-.3-.8 0-1.1.3-.3.8-.3 1.1 0l6.3 6.3c.3.3.3.8 0 1.1-.1.2-.3.2-.5.2zm229.2 332.9c-.2 0-.4-.1-.6-.2-.3-.3-.3-.8 0-1.1l6.3-6.3c.3-.3.8-.3 1.1 0 .3.3.3.8 0 1.1l-6.3 6.3c-.1.1-.3.2-.5.2z"/><path class="st6" d="M329.8 401.4c-.2 0-.4-.1-.6-.2l-6.3-6.3c-.3-.3-.3-.8 0-1.1.3-.3.8-.3 1.1 0l6.3 6.3c.3.3.3.8 0 1.1-.1.1-.3.2-.5.2z"/><path class="st12" d="M247 11s10.7 1.5 13.5 7.6c2.9 6.1 8.1 2.9 12.8 2.6 4.8-.3 9 7.4 9 12.3l-5.9 2.5s-1-8.7-7.4-7.9c-6.4.8-12.8 2.4-14.7-6-1.9-8.4-11.6-5.1-11.6-5.1l4.3-6z"/><path class="st12" d="M229.4 8.9l14.1 15.7 6.6-20zM330.9 415s-6.4 8.7-13.2 8.2c-6.7-.5-6.4 5.7-8.5 10-2 4.3-10.8 4.4-15.2 2l.7-6.4s8.1 3.4 10.4-2.7c2.4-6 4.1-12.4 12.4-10 8.3 2.4 10.1-7.8 10.1-7.8l3.3 6.7z"/><path class="st12" d="M339.8 403.2l-20.6 4.7 14.4 15.4zM5.7 227.4s-2.5-6.8.2-10.4c2.7-3.6-.9-5.7-2.5-8.4-1.7-2.7 1.5-7.7 4.4-9.3l3.4 2.7s-4.8 3.3-2.3 6.9c2.5 3.5 5.5 6.8 1.1 10.6s.7 8.5.7 8.5l-5-.6z"/><path class="st12" d="M9.1 236.7l4.8-13.3L0 225.9z"/><path class="st13" d="M358.4 53.7c-1.8-.8-2.7-2.9-1.9-4.7l9.2-22c.8-1.8 2.9-2.7 4.7-1.9 1.8.8 2.7 2.9 1.9 4.7l-9.2 22c-.8 1.8-2.9 2.7-4.7 1.9"/><path class="st13" d="M350.6 33.7c.8-1.8 2.9-2.7 4.7-1.9l22 9.2c1.8.8 2.7 2.9 1.9 4.7-.8 1.8-2.9 2.7-4.7 1.9l-22-9.2c-1.8-.8-2.7-2.9-1.9-4.7"/><path class="st14" d="M26.7 416c-1.4-.6-2-2.2-1.4-3.5l6.9-16.6c.6-1.4 2.2-2 3.5-1.4 1.4.6 2 2.2 1.4 3.5l-6.9 16.6c-.6 1.3-2.2 1.9-3.5 1.4"/><path class="st14" d="M20.8 400.9c.6-1.4 2.2-2 3.5-1.4l16.6 6.9c1.4.6 2 2.2 1.4 3.5-.6 1.4-2.2 2-3.5 1.4l-16.6-6.9c-1.3-.6-2-2.2-1.4-3.5"/><path class="st5" d="M376.9 404.6c-1 .6-2.3.3-3-.7l-7.5-12.3c-.6-1-.3-2.3.7-3 1-.6 2.3-.3 3 .7l7.5 12.3c.7 1.1.4 2.4-.7 3"/><path class="st5" d="M364.4 401.4c-.6-1-.3-2.3.7-3l12.3-7.5c1-.6 2.3-.3 3 .7s.3 2.3-.7 3l-12.3 7.5c-1.1.6-2.4.3-3-.7"/></g></switch></svg>