<svg version="1.1" id="rocket" xmlns="http://www.w3.org/2000/svg" x="0" y="0" viewBox="0 0 450 541" xml:space="preserve"><style>.st0{fill:#c8d3d7}.st1{fill:#fff}.st2{fill:#c90178}.st3{fill:#5f7ceb}.st4{fill:#536ce8}.st5{fill:#dfdefc}.st6{fill:#afb8d4}.st7{fill:#b00177}</style><switch><g><path class="st0" d="M158.9 200.8L90.3 263v101.6l39.7-56.3c6.6-9.4 17.4-15 28.9-15v-92.5zm75.4-160.1H197L160.3 101h96.4l-22.4-60.3m9-16.3l.1.1s0-.1-.1-.1m-32.5-3.8c-1.5 1.1-2.9 2.5-4.2 4.1 1.3-1.6 2.7-2.9 4.2-4.1m22.6-3.3c.2.1.4.2.6.2 3.5 1.4 6.7 3.7 9.3 6.8-2.7-3.3-6.2-5.6-9.9-7"/><path class="st1" d="M158.9 105.8v209.5h99v-19h-99v-11.5h99v-67.5c-8.5 8.1-20 13.1-32.7 13.1-2.2 0-4.5-.2-6.8-.5-20.4-2.8-37-19.2-40-39.5-3.3-21.9 8.4-41.5 26.3-50.1 6.2-3 13.2-4.7 20.5-4.7 1.9 0 3.8.1 5.7.3 10.4 1.2 19.8 5.9 27.1 12.9v-43.1l-99.1.1"/><path class="st0" d="M225.1 135.7c-7.3 0-14.3 1.7-20.5 4.7-17.9 8.6-29.6 28.2-26.3 50.1 3.1 20.4 19.6 36.7 40 39.5 2.3.3 4.6.5 6.8.5 12.7 0 24.2-5 32.7-13.1v-13.8l-1.8 2.7c-7 9.4-18.3 15.5-30.9 15.5-1.5 0-3.1-.1-4.6-.3-17-2-31.1-15.5-33.5-32.5-2.6-17.8 6.9-33.7 21.5-40.7 5.1-2.4 10.7-3.8 16.7-3.8 1.6 0 3.3.1 4.9.3 11.6 1.4 21.8 8.2 27.8 17.8V149c-7.2-7-16.7-11.7-27.1-12.9-1.9-.3-3.8-.4-5.7-.4"/><path class="st2" d="M256.7 101h-97.8c-1.3 0-2.4 1.1-2.4 2.4 0 1.3 1.1 2.4 2.4 2.4h99v-1.7l-.3-.7-.9-2.4m34.6 0h-1.4l1.4 2.4v2.4c1.3 0 2.4-1.1 2.4-2.4 0-1.3-1.1-2.4-2.4-2.4m-47.7-76.3l9.7 16-9.7-16m-18.5-8.9c-5 0-10.1 1.6-14.3 4.8-1.5 1.1-2.9 2.5-4.2 4.1l-9.7 16h37.3L225 15.8h.1c3 0 6.1.6 8.9 1.7-.2-.1-.4-.2-.6-.2-2.7-1-5.5-1.5-8.3-1.5"/><path class="st3" d="M208.4 148.2c-14.6 7-24.1 22.9-21.5 40.7 2.5 17 16.5 30.5 33.5 32.5 1.6.2 3.1.3 4.6.3 12.6 0 23.9-6.1 30.9-15.5.7-.9 1.3-1.8 1.8-2.7l-1.8 2.7c-46.7-23-47.5-58-47.5-58m16.7-3.8c-6 0-11.7 1.4-16.7 3.8 5.1-2.4 10.7-3.8 16.7-3.8"/><path class="st4" d="M225.1 144.4c-6 0-11.7 1.4-16.7 3.8 0 0 .8 34.9 47.6 58 .7-.9 1.3-1.8 1.8-2.7v-41c-6-9.6-16.2-16.4-27.8-17.8-1.6-.2-3.3-.3-4.9-.3"/><path class="st0" d="M257.8 330.6h-80.3c-.9 1.7-2 3.3-3.5 4.7-3.2 2.9-5.4 6.8-5.4 11.2v32.7h112.8-112.7v-16.7h89.1v-31.9"/><path class="st3" d="M257.8 362.5h-89.1v16.7h112.8-23.7v-16.7m0-77.7h-98.9v11.5h98.9v-11.5m0 30.5H154c-2.1 0-4 .9-5.4 2.2-1.8 1.8-2.7 4.5-2 7.4.9 3.4 4.3 5.7 7.8 5.7h103.5v-15.3"/><path class="st2" d="M100.7 374.2c-5.8 0-10.5-4.7-10.5-10.5V262.9l10.5-9.1v120.4z"/><path class="st0" d="M291.3 200.8l27.2 24.6-27.2-24.6"/><path class="st3" d="M317.9 305.3v3c0 1.3 1.1 2.4 2.4 2.4.5 0 1-.2 1.4-.4l-1.4-2c-.8-1-1.6-2.1-2.4-3m2.4-80.7c-.7 0-1.3.3-1.8.8l1.8 1.6 2.4 2.2V227c0-1.3-1.1-2.4-2.4-2.4m-190.2 86.1c-1.3 0-2.4-1.1-2.4-2.4V227c0-1.3 1.1-2.4 2.4-2.4 1.3 0 2.4 1.1 2.4 2.4v81.3c-.1 1.3-1.1 2.4-2.4 2.4z"/><path class="st0" d="M192.4 379.2h65.5v95.1h-65.5z"/><path class="st1" d="M69.9 517.3h310.9c-.4-2.3-1.2-4.4-2.2-6.5-.8-2-1.5-4-2.4-6-1.2-2.6-2.7-4.7-4.6-6.9-3.3-3.9-7.8-6.7-12.7-8.2-2-.6-4.1-1-6.1-1.2-.6-2-1.3-3.9-2.2-5.9-4.1-9.2-12.8-16.3-22.3-19.3-7.6-2.4-16.3-2.1-24.1-1.2-3.2.4-6.2.8-9 1.6-2-4.7-5.1-8.8-10.1-11.7-8-4.6-18.8-4.4-27.5-1.9-2.7.8-5.5 1.9-8.1 3.3-3-3.8-6.1-7.5-9.7-10.7-5.5-4.8-11.1-8.3-17.8-11-13-5.3-28.5-3.7-40.8 2.6-6.4 3.3-11.6 8.2-15.5 14.1-1-.2-1.9-.5-2.9-.6-11.3-2-22.4 0-32.3 5.8-7.8 4.6-14.5 11.8-19 19.8-8.6-.6-17.6 1.6-24.9 5.9-13.2 7.9-19.7 22.8-16.7 38z"/><path class="st5" d="M291.3 105.8v209.5h4.4c3.5 0 7 2.2 7.8 5.6.2.7.3 1.4.3 2 0-.7-.1-1.4-.3-2-.9-3.4-4.3-5.6-7.8-5.6h-4.4V105.8m-47.9-81.3c0 .1.1.1.1.2 0-.1 0-.1-.1-.2m-.1-.1"/><path class="st6" d="M253.3 40.7h-19l22.4 60.3h33.2l-36.6-60.3M234 17.6c3.6 1.5 6.9 3.8 9.6 7.1 0-.1-.1-.1-.1-.2l-.1-.1c-2.7-3.2-5.9-5.4-9.4-6.8"/><path class="st5" d="M291.3 296.3h-33.5v19h33.5v-19m0-190.5h-33.5v43.1c8 7.7 13.4 18.2 14.4 29.7 1.1 12.4-2.5 23.9-9.3 32.9-1.6 2.1-3.3 4-5.2 5.8v67.5h33.5v-179"/><path class="st6" d="M257.8 148.9v13.6c2.6 4.2 4.5 8.9 5.3 14 .4 2.2.5 4.4.5 6.6 0 7.5-2.1 14.5-5.9 20.5v13.8c1.9-1.8 3.6-3.7 5.2-5.8 6.8-9 10.4-20.5 9.3-32.9-1-11.6-6.3-22.1-14.4-29.8"/><path class="st7" d="M289.9 101h-33.2l.9 2.4.2.7v1.7h33.5v-2.4l-1.4-2.4m-64.8-85.2h-.1l9.3 24.9h19l-9.7-16c-2.7-3.3-6-5.7-9.6-7.1-2.8-1.2-5.9-1.8-8.9-1.8"/><path class="st4" d="M263.7 183.1c0 7.5-2.1 14.5-5.9 20.5 3.8-6 5.9-13 5.9-20.5"/><path d="M257.8 162.5c2.6 4.2 4.5 8.9 5.3 14 .4 2.2.5 4.4.5 6.6 0-2.1-.2-4.3-.5-6.6-.8-5-2.6-9.8-5.3-14" fill="#99a0d2"/><path d="M257.8 162.5v41c3.7-5.9 5.9-12.9 5.9-20.5 0-2.1-.2-4.3-.5-6.6-.9-4.9-2.7-9.7-5.4-13.9" fill="#495ee5"/><path class="st6" d="M272.6 330.6h-14.7v32h23.7v-16.2c0-4.3-2.2-8.2-5.4-11.1-1.6-1.4-2.8-3-3.6-4.7"/><path class="st4" d="M281.5 362.5h-23.7v16.7h23.7v-16.7m9.8-77.7h-33.5v11.5h33.5v-11.5m4.5 30.5h-37.9v15.3h38.3c2.1 0 4-.9 5.4-2.2 1.4-1.4 2.2-3.3 2.2-5.4 0-.7-.1-1.4-.3-2-.8-3.6-4.2-5.7-7.7-5.7"/><path class="st6" d="M291.3 200.8v92.5c10.2 0 19.9 4.4 26.5 12V227c0-.6.2-1.2.6-1.6l-27.1-24.6M360 363.7v.8-.8m-37.3-134.6v79.2c0 .8-.4 1.5-1 2l27.8 39.5v-95.9L360 263l-37.3-33.9"/><path class="st7" d="M349.5 253.9v120.4c5.5 0 10-4.3 10.4-9.7V262.9l-10.4-9"/><path class="st4" d="M318.5 225.4c-.4.4-.6 1-.6 1.6v78.3l2.4 3 1.4 2c.6-.4 1-1.1 1-2v-79.2l-2.4-2.2-1.8-1.5"/></g></switch></svg>