<svg aria-hidden="true" style="position:absolute;width:0;height:0" xmlns="http://www.w3.org/2000/svg" overflow="hidden"><defs><symbol id="facebook" viewBox="0 0 32 32"><path fill="var(--color1, #4e598f)" d="M32 16c0 8.837-7.163 16-16 16S0 24.837 0 16 7.163 0 16 0s16 7.163 16 16z"/><path fill="var(--color2, #364270)" d="M31.975 15.106l-7.536-7.538c-.125.038-.436-.107-.573-.08-3.232.539-6.357 0-9.481.862-1.508.431-1.616 2.263-2.155 3.448-.754 2.155-.646 4.525-1.616 6.572-.646 1.401-2.155 2.263-2.694 3.879-.18.674-.169 1.524-.372 2.168l7.561 7.558c.295.016.592.025.892.025 8.836 0 16-7.163 16-16 0-.3-.009-.598-.025-.894z"/><path fill="var(--color3, #fff)" d="M22.69 6.842H9.31A2.468 2.468 0 006.842 9.31v13.38a2.468 2.468 0 002.468 2.468h6.599l.011-6.545h-1.701a.401.401 0 01-.401-.4l-.008-2.11a.401.401 0 01.401-.403h1.698v-2.039c0-2.366 1.445-3.654 3.555-3.654h1.732c.221 0 .401.18.401.401v1.779c0 .222-.18.401-.401.401l-1.063.001c-1.148 0-1.37.545-1.37 1.346V15.7h2.522a.4.4 0 01.398.448l-.25 2.11a.401.401 0 01-.398.354h-2.261l-.011 6.545h3.927a2.468 2.468 0 002.468-2.468V9.308A2.468 2.468 0 0022.69 6.84z"/><path fill="var(--color3, #fff)" d="M15.909 25.158l.011-6.545h-.028v6.545z"/><path fill="var(--color4, #d1d1d1)" d="M22.69 6.842h-6.798v8.859h.017v-2.039c0-2.366 1.445-3.654 3.555-3.654h1.732c.221 0 .401.18.401.401v1.779c0 .222-.18.401-.401.401l-1.063.001c-1.148 0-1.37.545-1.37 1.346v1.765h2.522a.4.4 0 01.398.448l-.25 2.11a.401.401 0 01-.398.354h-2.261l-.011 6.545h3.927a2.468 2.468 0 002.468-2.468V9.31a2.468 2.468 0 00-2.468-2.468z"/></symbol><symbol id="telegram" viewBox="0 0 32 32"><path fill="var(--color5, #7aa5da)" d="M32 16c0 8.837-7.163 16-16 16S0 24.837 0 16 7.163 0 16 0s16 7.163 16 16z"/><path fill="var(--color6, #5786b5)" d="M31.995 15.63l-7.103-7.091-11.569 14.102 8.33 8.33C27.699 28.687 31.999 22.846 31.999 16c0-.124-.002-.247-.005-.37z"/><path fill="var(--color3, #fff)" d="M23.982 8.345a.862.862 0 011.157.979l-2.861 13.674a.901.901 0 01-1.415.542l-4.318-3.17-2.201 2.248a.732.732 0 01-1.22-.292l-1.588-5.041-4.257-1.257c-.559-.165-.591-.943-.05-1.155l16.752-6.527zm-2.1 3.034c.186-.165-.03-.456-.241-.324l-9.188 5.699a.417.417 0 00-.179.479l1.253 5.503c.025.084.145.072.156-.015l.28-4.193a.415.415 0 01.138-.267l7.781-6.881z"/><path fill="var(--color7, #9ec2e5)" d="M21.641 11.055c.211-.131.428.159.241.324l-7.781 6.881a.415.415 0 00-.138.267l-.28 4.193c-.011.087-.131.099-.156.015l-1.253-5.503a.417.417 0 01.179-.479l9.188-5.699z"/><path fill="var(--color3, #fff)" d="M13.572 22.792a.717.717 0 01-.447-.467l-1.588-5.041-4.257-1.257c-.559-.165-.591-.943-.05-1.155l16.752-6.527a.858.858 0 011.041.341.925.925 0 00-.137-.163l-11.365 9.278v.406l-.063-.045.063 2.558v2.051a.282.282 0 00.051.019v.002z"/><path fill="var(--color4, #d1d1d1)" d="M25.158 9.095a.951.951 0 01-.018.229l-2.861 13.674a.901.901 0 01-1.415.542l-4.318-3.17-3.024-2.163v-.406l11.365-9.278a.89.89 0 01.137.163l.023.037.02.038.018.039.017.041.014.039a.796.796 0 01.032.13c.004.028.008.056.01.086z"/><path fill="var(--color4, #d1d1d1)" d="M16.546 20.37l-2.201 2.248c-.018.018-.038.037-.057.053s-.039.03-.059.044l-.001.001a.742.742 0 01-.194.091.723.723 0 01-.357.015l-.01-.002-.071-.02a.073.073 0 01-.023-.009l-.051-2.071v-2.513l3.024 2.163z"/><path fill="var(--color8, #dadde0)" d="M14.287 22.671a.836.836 0 01-.059.045v-.001a.646.646 0 00.059-.044zm-.059.044v.001h-.001l.001-.001zm-.128.069zm-.351.048a.72.72 0 00.012.002c-.004 0-.009 0-.013-.002z"/><path fill="var(--color3, #fff)" d="M13.825 22.838zm-.076-.006a.435.435 0 000-.001z"/><path fill="var(--color8, #dadde0)" d="M13.749 22.832a.488.488 0 01-.074-.01c.024.004.048.009.073.011zm-.154-.033a.942.942 0 00.071.02l-.029-.006-.012-.004a.106.106 0 01-.03-.01z"/><path fill="var(--color3, #fff)" d="M13.637 22.813l.029.006a.15.15 0 01-.029-.006zm-.042-.014a.21.21 0 00.03.01c-.016-.003-.032-.009-.049-.015a.12.12 0 00.018.005z"/><path fill="var(--color8, #dadde0)" d="M13.595 22.799a.12.12 0 01-.018-.005c-.001.001-.003 0-.004-.001v-.002l.023.009z"/><path fill="var(--color4, #d1d1d1)" d="M13.521 20.719l.051 2.071c-.017-.005-.034-.012-.051-.019V20.72z"/><path fill="var(--color8, #dadde0)" d="M13.521 18.207v2.513l-.063-2.558z"/><path fill="var(--color9, #adbcc9)" d="M21.882 11.379l-7.781 6.881a.415.415 0 00-.138.267l-.28 4.194c-.011.087-.131.099-.157.015l-1.252-5.503a.417.417 0 01.179-.479l9.188-5.699c.211-.132.428.159.241.324z"/></symbol><symbol id="youtube" viewBox="0 0 32 32"><path fill="var(--color10, #d22215)" d="M32 16c0 8.837-7.163 16-16 16S0 24.837 0 16 7.163 0 16 0s16 7.163 16 16z"/><path fill="var(--color11, #a81411)" d="M24.054 10.646c-.48.146-.98.272-1.481.398-3.556.754-8.296-1.293-10.343 2.047-1.707 2.656-2.246 5.979-4.189 8.354l10.374 10.374c6.904-1.045 12.361-6.502 13.405-13.407l-7.765-7.766z"/><path fill="var(--color3, #fff)" d="M21.353 9.521H10.647a3.803 3.803 0 00-3.803 3.803v5.352a3.803 3.803 0 003.803 3.803h10.706a3.803 3.803 0 003.803-3.803v-5.352c0-2.1-1.703-3.803-3.803-3.803zm-2.572 6.739l-5.008 2.388a.201.201 0 01-.288-.181v-4.926a.2.2 0 01.292-.179l5.008 2.538a.201.201 0 01-.004.361z"/><path fill="var(--color4, #d1d1d1)" d="M21.353 9.521h-5.461v4.913l2.893 1.466a.201.201 0 01-.004.361l-2.889 1.378v4.841h5.461a3.803 3.803 0 003.803-3.803v-5.352c0-2.1-1.703-3.803-3.803-3.803z"/></symbol></defs></svg>