<svg version="1.1" id="Слой_2" xmlns="http://www.w3.org/2000/svg" x="0" y="0" viewBox="0 0 1052 962" xml:space="preserve"><style>.st0{fill:#5f7ceb}.st1{fill:#edc04d}.st5{fill:none;stroke:#c6017c;stroke-width:8;stroke-linecap:round;stroke-miterlimit:10}.st7{fill:#f1f1fa}.st8{fill:#78d0be}</style><switch><g><path class="st0" d="M271.2 298c0 3.3 2.7 6 6 6s6-2.7 6-6-2.7-6-6-6c-3.3-.1-6 2.6-6 6zm424.9 149c0 3.3 2.7 6 6 6s6-2.7 6-6-2.7-6-6-6-6 2.7-6 6z"/><path class="st1" d="M717.8 572.9c0 3.3 2.7 6 6 6s6-2.7 6-6-2.7-6-6-6c-3.3-.1-6 2.6-6 6zm-442.5-70.5c0 3.3 2.7 6 6 6s6-2.7 6-6-2.7-6-6-6-6 2.7-6 6zm597.5 28.5c0 3.3 2.7 6 6 6s6-2.7 6-6-2.7-6-6-6c-3.3-.1-6 2.6-6 6zM469.3 278.3c.3 0 .6-.1.8-.3.4-.4.4-1.2 0-1.6l-9-9c-.4-.4-1.2-.4-1.6 0-.4.4-.4 1.2 0 1.6l9 9c.3.2.6.3.8.3z"/><path class="st1" d="M460.4 278.3c.3 0 .6-.1.8-.3l9-9c.4-.4.4-1.2 0-1.6-.4-.4-1.2-.4-1.6 0l-9 9c-.4.4-.4 1.2 0 1.6.2.2.5.3.8.3z"/><path class="st0" d="M490.3 720.4c.3 0 .6-.1.8-.3.4-.4.4-1.2 0-1.6l-9-9c-.4-.4-1.2-.4-1.6 0-.4.4-.4 1.2 0 1.6l9 9c.2.2.5.3.8.3z"/><path class="st0" d="M481.3 720.4c.3 0 .6-.1.8-.3l9-9c.4-.4.4-1.2 0-1.6-.4-.4-1.2-.4-1.6 0l-9 9c-.4.4-.4 1.2 0 1.6.2.2.5.3.8.3z"/><path class="st5" d="M904.9 290.4c2.1-6.1 3.5-6.2 5.6-6.5 3.5-.6 6 3.5 9.6 2.9 4.5-.8 3.8-9.3 9.4-11.6 4.7-1.9 7.6 3.1 12.3 1.4 6.2-2.2 2.9-10.5 8.7-13 2.5-1.1 5-2.3 10.5.9"/><path d="M591.5 789l-8.8 4.2c-.6.3-1.2.2-1.7-.2l-7.3-5.4c-1.2-.9-2.9.1-2.6 1.6l1.4 9c.1.6-.2 1.2-.7 1.6l-7.8 5.8c-1.2.9-.7 2.7.7 3l9.5 1.7c.6.1 1.1.5 1.3 1.1l2.7 8.8c.4 1.4 2.3 1.6 3.1.3l4.5-8.2c.3-.5.8-.9 1.4-.9l9.3-.1c1.5 0 2.2-1.8 1.2-2.8l-6.5-6.6c-.4-.5-.6-1.1-.4-1.7l3-9.2c.4-1.4-1-2.6-2.3-2z" fill="#edbe3e"/><path class="st7" d="M359.1 125.3l-8.8 4.2c-.6.3-1.2.2-1.7-.2l-7.3-5.4c-1.2-.9-2.9.1-2.6 1.6l1.4 9c.1.6-.2 1.2-.7 1.6l-7.8 5.8c-1.2.9-.7 2.7.7 3l9.5 1.7c.6.1 1.1.5 1.3 1.1l2.7 8.8c.4 1.4 2.3 1.6 3.1.3l4.5-8.2c.3-.5.8-.9 1.4-.9l9.3-.1c1.5 0 2.2-1.8 1.2-2.8l-6.5-6.6c-.4-.5-.6-1.1-.4-1.7l3-9.2c.5-1.4-1-2.6-2.3-2z"/><path class="st8" d="M736.7 162.8l-18.9-19.6c-2-2.1-1.8-5.3.4-7.1 2.2-1.8 5.7-1.6 7.7.5l18.9 19.6c2 2.1 1.8 5.3-.4 7.1-2.3 1.8-5.7 1.6-7.7-.5z"/><path class="st8" d="M744.8 143.3l-19.1 19.1c-2 2-5.5 2.2-7.7.5-2.2-1.8-2.3-4.9-.3-6.9l19.1-19.1c2-2 5.5-2.2 7.7-.5 2.1 1.8 2.3 4.9.3 6.9z"/><path d="M855.3 641c6.6-2.7 12.9 1.4 15.6 7.4 3.6 8-.9 22.7 18.8 21.3M110.3 441.4c-2.2-6.8 2.4-12.8 8.6-15 8.2-3 22.6 2.6 22.7-17.2" fill="none" stroke="#5874e7" stroke-width="8" stroke-linecap="round" stroke-miterlimit="10"/><circle class="st5" cx="199.4" cy="818.1" r="10.3"/><path class="st7" d="M115.1 573.3l-8.8 4.2c-.6.3-1.2.2-1.7-.2l-7.3-5.4c-1.2-.9-2.9.1-2.6 1.6l1.4 9c.1.6-.2 1.2-.7 1.6l-7.8 5.8c-1.2.9-.7 2.7.7 3l9.5 1.7c.6.1 1.1.5 1.3 1.1l2.7 8.8c.4 1.4 2.3 1.6 3.1.3l4.5-8.2c.3-.5.8-.9 1.4-.9l9.3-.1c1.5 0 2.2-1.8 1.2-2.8l-6.5-6.6c-.4-.5-.6-1.1-.4-1.7l3-9.2c.5-1.4-1-2.6-2.3-2z"/></g></switch></svg>