<svg version="1.1" id="Space" xmlns="http://www.w3.org/2000/svg" x="0" y="0" viewBox="0 0 222 178" xml:space="preserve"><style>.st1{fill:#fee03e}</style><switch><g><g id="Saturn_2_"><g id="Saturn_1_"><path d="M170.8 86.1c3.3 32.5-20.4 61.4-52.9 64.6-32.5 3.3-61.4-20.4-64.6-52.9-3.3-32.4 20.4-61.3 52.8-64.6 32.5-3.2 61.4 20.5 64.7 52.9z" fill="#fec240"/><path class="st1" d="M89.6 88.8s34.3-2.2 66.2-36.4c-4.6-5.1-10.1-9.4-16.2-12.6-6.7 13.9-20.8 31.3-50 49zm81 10.2c-28.4 26.5-60.9 40.4-82 47.2 1.8.8 3.7 1.5 5.6 2.1 13-3 35.1-10.1 51.3-24.9 0 0-6.9 16.4-32.3 27.6 1.5 0 3.1-.1 4.6-.3 4.5-.4 8.8-1.4 12.9-2.8 5.3-3.1 10.4-6.7 15-10.9 0 0-.9 2.2-3.4 5.6 15.5-9.3 26.2-25.3 28.3-43.6zm-64.5-65.8c-25.7 2.6-45.9 21.3-51.6 45.1 20.3-11 47.5-27 68.6-44.4-5.4-1-11.1-1.2-17-.7zm21.5 55.3c-14.5 14.4-44.3 26.3-66.4 33.7 1.3 2.2 2.7 4.2 4.3 6.2 46.1-17.3 62.1-39.9 62.1-39.9z"/><path class="st1" d="M167.6 72c-16.2 18.6-50.3 51.4-96.7 62.3 3.4 3.3 7.3 6.3 11.4 8.7 2.1 1.2 4.2 2.3 6.4 3.2 21-6.8 53.5-20.7 82-47.2.3-2.2.4-4.4.4-6.7 0-2.1-.1-4.1-.3-6.2-.5-4.9-1.6-9.6-3.2-14.1zm-22.1 51.4c-16.2 14.9-38.3 21.9-51.3 24.9 6 1.9 12.4 2.9 19 2.7 25.4-11.2 32.3-27.6 32.3-27.6zM130.8 148c4.1-1.4 8-3.2 11.7-5.4 2.4-3.4 3.4-5.6 3.4-5.6-4.7 4.3-9.9 7.9-15.1 11zm14.8-77.7s8.8-2.6 16.9-9c-.9-1.5-1.9-3-2.9-4.4-4 4.6-8.8 9.5-14 13.4z"/><path d="M203 46.6c-2.9-5.8-21.3-3-47 6 1.5 1.6 2.9 3.4 4.1 5.2 11.1-2.8 18.6-3 20.2.1 1.5 3.1-3.1 9-12.1 16.2-11.2 9-29 20.1-50 30.5-20.9 10.4-40.6 18.1-54.5 21.6-11.1 2.8-18.6 3-20.2-.1-1.5-3.1 3.1-9 12.1-16.2-.7-2.1-1.2-4.2-1.6-6.4-22.7 15.1-36 28.1-33.1 33.9 2.9 5.8 21.3 3 47-6 15.5-5.4 33.5-13.1 52.4-22.5s35.9-19.2 49.5-28.3c22.8-15.2 36.1-28.2 33.2-34z" fill="#f9a040"/></g></g></g></switch></svg>