<?xml version="1.0" encoding="utf-8"?>
<!-- Generator: Adobe Illustrator 22.0.1, SVG Export Plug-In . SVG Version: 6.00 Build 0)  -->
<svg version="1.1" id="footer-bg" xmlns="http://www.w3.org/2000/svg" xmlns:xlink="http://www.w3.org/1999/xlink" x="0px" y="0px"
	 viewBox="0 0 1920 734" style="enable-background:new 0 0 1920 734;" xml:space="preserve">
<style type="text/css">
	.st0{clip-path:url(#SVGID_2_);fill:#E8F1FA;}
	.st1{clip-path:url(#SVGID_2_);fill:#F4F9FE;}
</style>
<g>
	<defs>
		<rect id="SVGID_1_" x="-1" y="9" width="100%" height="725"/>
	</defs>
	<clipPath id="SVGID_2_">
		<use xlink:href="#SVGID_1_"  style="overflow:visible;"/>
	</clipPath>
	<path class="st0" d="M-40.1,169C-8.3,145.4,515.3-32.8,852.1,46.5c427.6,100.7,866.7,417.5,1070.3,315.9
		c142.9-71.4,151.6,700.5,23.3,845.4c-173.5,195.9-1786.6,92.2-1897.9-19.6C-114.3,1025.2-263,334.5-40.1,169z"/>
	<path class="st1" d="M-9,158.7c33.1-21.9,565.6-171.3,897.6-73.8c421.5,123.8,842.7,464.1,1051.6,373.6
		c146.6-63.5,113.3,707.7-22.7,845.4c-183.9,186.2-1828.3,27.4-1933.3-90.3C-168.9,1042-240.5,311.8-9,158.7z"/>
</g>
</svg>
