<svg aria-hidden="true" style="position: absolute; width: 0; height: 0; overflow: hidden;" version="1.1" xmlns="http://www.w3.org/2000/svg" xmlns:xlink="http://www.w3.org/1999/xlink">
<defs>
<symbol id="facebook" viewBox="0 0 32 32">
<path fill="#4e598f" style="fill: var(--color1, #4e598f)" d="M32 16c0 8.837-7.163 16-16 16s-16-7.163-16-16c0-8.837 7.163-16 16-16s16 7.163 16 16z"></path>
<path fill="#364270" style="fill: var(--color2, #364270)" d="M31.975 15.106l-7.536-7.538c-0.125 0.038-0.436-0.107-0.573-0.080-3.232 0.539-6.357 0-9.481 0.862-1.508 0.431-1.616 2.263-2.155 3.448-0.754 2.155-0.646 4.525-1.616 6.572-0.646 1.401-2.155 2.263-2.694 3.879-0.18 0.674-0.169 1.524-0.372 2.168l7.561 7.558c0.295 0.016 0.592 0.025 0.892 0.025 8.836 0 16-7.163 16-16 0-0.3-0.009-0.598-0.025-0.894z"></path>
<path fill="#fff" style="fill: var(--color3, #fff)" d="M22.69 6.842h-13.38c-1.363 0-2.468 1.105-2.468 2.468v13.38c0 1.363 1.105 2.468 2.468 2.468h6.599l0.011-6.545h-1.701c-0.221 0-0.4-0.179-0.401-0.4l-0.008-2.11c-0.001-0.222 0.179-0.403 0.401-0.403h1.698v-2.039c0-2.366 1.445-3.654 3.555-3.654h1.732c0.221 0 0.401 0.18 0.401 0.401v1.779c0 0.222-0.18 0.401-0.401 0.401l-1.063 0.001c-1.148 0-1.37 0.545-1.37 1.346v1.765h2.522c0.241 0 0.427 0.21 0.398 0.448l-0.25 2.11c-0.024 0.202-0.195 0.354-0.398 0.354h-2.261l-0.011 6.545h3.927c1.363 0 2.468-1.105 2.468-2.468v-13.381c0-1.363-1.105-2.468-2.468-2.468v0z"></path>
<path fill="#fff" style="fill: var(--color3, #fff)" d="M15.909 25.158l0.011-6.545h-0.028v6.545z"></path>
<path fill="#d1d1d1" style="fill: var(--color4, #d1d1d1)" d="M22.69 6.842h-6.798v8.859h0.017v-2.039c0-2.366 1.445-3.654 3.555-3.654h1.732c0.221 0 0.401 0.18 0.401 0.401v1.779c0 0.222-0.18 0.401-0.401 0.401l-1.063 0.001c-1.148 0-1.37 0.545-1.37 1.346v1.765h2.522c0.241 0 0.427 0.21 0.398 0.448l-0.25 2.11c-0.024 0.202-0.195 0.354-0.398 0.354h-2.261l-0.011 6.545h3.927c1.363 0 2.468-1.105 2.468-2.468v-13.38c0-1.363-1.105-2.468-2.468-2.468z"></path>
</symbol>
<symbol id="telegram" viewBox="0 0 32 32">
<path fill="#7aa5da" style="fill: var(--color5, #7aa5da)" d="M32 16c0 8.837-7.163 16-16 16s-16-7.163-16-16c0-8.837 7.163-16 16-16s16 7.163 16 16z"></path>
<path fill="#5786b5" style="fill: var(--color6, #5786b5)" d="M31.995 15.63l-7.103-7.091-11.569 14.102 8.33 8.33c6.046-2.284 10.346-8.125 10.346-14.971 0-0.124-0.002-0.247-0.005-0.37z"></path>
<path fill="#fff" style="fill: var(--color3, #fff)" d="M23.982 8.345c0.638-0.249 1.297 0.309 1.157 0.979l-2.861 13.674c-0.134 0.641-0.887 0.93-1.415 0.542l-4.318-3.17-2.201 2.248c-0.387 0.394-1.054 0.234-1.22-0.292l-1.588-5.041-4.257-1.257c-0.559-0.165-0.591-0.943-0.050-1.155l16.752-6.527zM21.882 11.379c0.186-0.165-0.030-0.456-0.241-0.324l-9.188 5.699c-0.162 0.1-0.236 0.297-0.179 0.479l1.253 5.503c0.025 0.084 0.145 0.072 0.156-0.015l0.28-4.193c0.011-0.103 0.060-0.198 0.138-0.267l7.781-6.881z"></path>
<path fill="#9ec2e5" style="fill: var(--color7, #9ec2e5)" d="M21.641 11.055c0.211-0.131 0.428 0.159 0.241 0.324l-7.781 6.881c-0.078 0.069-0.127 0.164-0.138 0.267l-0.28 4.193c-0.011 0.087-0.131 0.099-0.156 0.015l-1.253-5.503c-0.057-0.182 0.017-0.379 0.179-0.479l9.188-5.699z"></path>
<path fill="#fff" style="fill: var(--color3, #fff)" d="M13.572 22.792c-0.203-0.072-0.374-0.234-0.447-0.467l-1.588-5.041-4.257-1.257c-0.559-0.165-0.591-0.943-0.050-1.155l16.752-6.527c0.412-0.161 0.833 0.015 1.041 0.341-0.039-0.059-0.085-0.114-0.137-0.163l-11.365 9.278v0.406l-0.063-0.045 0.063 2.558v2.051c0.016 0.008 0.033 0.014 0.051 0.019v0.002h0z"></path>
<path fill="#d1d1d1" style="fill: var(--color4, #d1d1d1)" d="M25.158 9.095c0.003 0.073-0.002 0.151-0.018 0.229l-2.861 13.674c-0.134 0.641-0.887 0.93-1.415 0.542l-4.318-3.17-3.024-2.163v-0.406l11.365-9.278c0.052 0.049 0.098 0.103 0.137 0.163 0.008 0.013 0.015 0.025 0.023 0.037 0.006 0.013 0.014 0.026 0.020 0.038 0.006 0.013 0.013 0.026 0.018 0.039 0.006 0.014 0.012 0.027 0.017 0.041 0.004 0.012 0.010 0.025 0.014 0.039 0.014 0.042 0.025 0.085 0.032 0.13 0.004 0.028 0.008 0.056 0.010 0.086z"></path>
<path fill="#d1d1d1" style="fill: var(--color4, #d1d1d1)" d="M16.546 20.37l-2.201 2.248c-0.018 0.018-0.038 0.037-0.057 0.053s-0.039 0.030-0.059 0.044c-0.001 0.001-0.001 0.001-0.001 0.001-0.041 0.027-0.083 0.050-0.127 0.068-0.023 0.009-0.044 0.017-0.067 0.023-0.094 0.028-0.19 0.036-0.284 0.026-0.025-0.002-0.050-0.006-0.073-0.011-0.003 0-0.006-0.001-0.010-0.002-0.024-0.006-0.047-0.013-0.071-0.020-0.008-0.002-0.015-0.004-0.023-0.009l-0.051-2.071v-2.513l3.024 2.163z"></path>
<path fill="#dadde0" style="fill: var(--color8, #dadde0)" d="M14.287 22.671c-0.019 0.016-0.039 0.031-0.059 0.045v-0.001c0.021-0.014 0.040-0.028 0.059-0.044z"></path>
<path fill="#dadde0" style="fill: var(--color8, #dadde0)" d="M14.228 22.715v0.001c0 0 0-0.001-0.001 0 0 0 0 0 0.001-0.001z"></path>
<path fill="#dadde0" style="fill: var(--color8, #dadde0)" d="M14.1 22.784c0.044-0.018 0.086-0.041 0.127-0.068-0.041 0.027-0.084 0.049-0.127 0.068z"></path>
<path fill="#dadde0" style="fill: var(--color8, #dadde0)" d="M13.749 22.832c0.095 0.010 0.191 0.002 0.284-0.026-0.068 0.022-0.138 0.031-0.208 0.031-0.022 0-0.043-0.001-0.064-0.003-0.004 0-0.009 0-0.013-0.002z"></path>
<path fill="#fff" style="fill: var(--color3, #fff)" d="M13.825 22.838c-0.022 0-0.043-0.001-0.064-0.003 0.020 0.002 0.042 0.003 0.064 0.003z"></path>
<path fill="#fff" style="fill: var(--color3, #fff)" d="M13.749 22.832c0.004 0.002 0.009 0.002 0.013 0.002-0.023-0.001-0.043-0.004-0.065-0.009 0.017 0.003 0.034 0.005 0.052 0.006z"></path>
<path fill="#dadde0" style="fill: var(--color8, #dadde0)" d="M13.749 22.832c-0.017-0.001-0.034-0.003-0.052-0.006-0.008-0.001-0.015-0.002-0.022-0.004 0.024 0.004 0.048 0.009 0.073 0.011z"></path>
<path fill="#dadde0" style="fill: var(--color8, #dadde0)" d="M13.595 22.799c0.024 0.008 0.047 0.014 0.071 0.020-0.010-0.002-0.019-0.004-0.029-0.006-0.004-0.001-0.009-0.002-0.012-0.004-0.010-0.002-0.021-0.005-0.030-0.010z"></path>
<path fill="#fff" style="fill: var(--color3, #fff)" d="M13.637 22.813c0.010 0.002 0.019 0.004 0.029 0.006-0.010-0.001-0.019-0.003-0.029-0.006z"></path>
<path fill="#fff" style="fill: var(--color3, #fff)" d="M13.595 22.799c0.010 0.004 0.021 0.008 0.030 0.010-0.016-0.003-0.032-0.009-0.049-0.015 0.006 0.002 0.012 0.004 0.018 0.005z"></path>
<path fill="#dadde0" style="fill: var(--color8, #dadde0)" d="M13.595 22.799c-0.006-0.001-0.012-0.003-0.018-0.005-0.001 0.001-0.003 0-0.004-0.001v-0.002c0.008 0.004 0.015 0.006 0.023 0.009z"></path>
<path fill="#d1d1d1" style="fill: var(--color4, #d1d1d1)" d="M13.521 20.719l0.051 2.071c-0.017-0.005-0.034-0.012-0.051-0.019v-2.051z"></path>
<path fill="#dadde0" style="fill: var(--color8, #dadde0)" d="M13.521 18.207v2.513l-0.063-2.558z"></path>
<path fill="#adbcc9" style="fill: var(--color9, #adbcc9)" d="M21.882 11.379l-7.781 6.881c-0.078 0.069-0.127 0.164-0.138 0.267l-0.28 4.194c-0.011 0.087-0.131 0.099-0.157 0.015l-1.252-5.503c-0.057-0.182 0.017-0.379 0.179-0.479l9.188-5.699c0.211-0.132 0.428 0.159 0.241 0.324z"></path>
</symbol>
<symbol id="youtube" viewBox="0 0 32 32">
<path fill="#d22215" style="fill: var(--color10, #d22215)" d="M32 16c0 8.837-7.163 16-16 16s-16-7.163-16-16c0-8.837 7.163-16 16-16s16 7.163 16 16z"></path>
<path fill="#a81411" style="fill: var(--color11, #a81411)" d="M24.054 10.646c-0.48 0.146-0.98 0.272-1.481 0.398-3.556 0.754-8.296-1.293-10.343 2.047-1.707 2.656-2.246 5.979-4.189 8.354l10.374 10.374c6.904-1.045 12.361-6.502 13.405-13.407l-7.765-7.766z"></path>
<path fill="#fff" style="fill: var(--color3, #fff)" d="M21.353 9.521h-10.706c-2.101 0-3.803 1.703-3.803 3.803v5.352c0 2.101 1.703 3.803 3.803 3.803h10.706c2.101 0 3.803-1.703 3.803-3.803v-5.352c0-2.1-1.703-3.803-3.803-3.803v0zM18.781 16.26l-5.008 2.388c-0.133 0.064-0.288-0.034-0.288-0.181v-4.926c0-0.15 0.158-0.247 0.292-0.179l5.008 2.538c0.149 0.075 0.146 0.289-0.004 0.361v0z"></path>
<path fill="#d1d1d1" style="fill: var(--color4, #d1d1d1)" d="M21.353 9.521h-5.461v4.913l2.893 1.466c0.149 0.075 0.146 0.289-0.004 0.361l-2.889 1.378v4.841h5.461c2.101 0 3.803-1.703 3.803-3.803v-5.352c0-2.1-1.703-3.803-3.803-3.803z"></path>
</symbol>
</defs>
</svg>
